<?xml version="1.0" encoding="UTF-8" standalone="no"?>
<!DOCTYPE svg PUBLIC "-//W3C//DTD SVG 1.1//EN"
 "http://www.w3.org/Graphics/SVG/1.1/DTD/svg11.dtd">
<!-- Generated by graphviz version 2.48.0 (20210717.1556)
 -->
<!-- Title: dependency&#45;cruiser output Pages: 1 -->
<svg width="656pt" height="1587pt"
 viewBox="0.00 0.00 655.50 1587.18" xmlns="http://www.w3.org/2000/svg" xmlns:xlink="http://www.w3.org/1999/xlink">
<g id="graph0" class="graph" transform="scale(1 1) rotate(0) translate(4 1583.18)">
<title>dependency&#45;cruiser output</title>
<polygon fill="white" stroke="transparent" points="-4,4 -4,-1583.18 651.5,-1583.18 651.5,4 -4,4"/>
<g id="clust1" class="cluster">
<title>cluster_fs</title>
<path fill="#ffffff" stroke="black" stroke-width="2" d="M500,-51.18C500,-51.18 546,-51.18 546,-51.18 552,-51.18 558,-57.18 558,-63.18 558,-63.18 558,-91.18 558,-91.18 558,-97.18 552,-103.18 546,-103.18 546,-103.18 500,-103.18 500,-103.18 494,-103.18 488,-97.18 488,-91.18 488,-91.18 488,-63.18 488,-63.18 488,-57.18 494,-51.18 500,-51.18"/>
<text text-anchor="middle" x="523" y="-91.98" font-family="Helvetica,sans-Serif" font-weight="bold" font-size="9.00">fs</text>
</g>
<g id="clust2" class="cluster">
<title>cluster_lib</title>
<path fill="#ffffff" stroke="black" stroke-width="2" d="M21.5,-117.18C21.5,-117.18 573.5,-117.18 573.5,-117.18 579.5,-117.18 585.5,-123.18 585.5,-129.18 585.5,-129.18 585.5,-677.18 585.5,-677.18 585.5,-683.18 579.5,-689.18 573.5,-689.18 573.5,-689.18 21.5,-689.18 21.5,-689.18 15.5,-689.18 9.5,-683.18 9.5,-677.18 9.5,-677.18 9.5,-129.18 9.5,-129.18 9.5,-123.18 15.5,-117.18 21.5,-117.18"/>
<text text-anchor="middle" x="297.5" y="-677.98" font-family="Helvetica,sans-Serif" font-weight="bold" font-size="9.00">lib</text>
</g>
<g id="clust3" class="cluster">
<title>cluster_lib/build&#45;css</title>
<path fill="#ffffff" stroke="black" stroke-width="2" d="M160,-611.18C160,-611.18 206,-611.18 206,-611.18 212,-611.18 218,-617.18 218,-623.18 218,-623.18 218,-651.18 218,-651.18 218,-657.18 212,-663.18 206,-663.18 206,-663.18 160,-663.18 160,-663.18 154,-663.18 148,-657.18 148,-651.18 148,-651.18 148,-623.18 148,-623.18 148,-617.18 154,-611.18 160,-611.18"/>
<text text-anchor="middle" x="183" y="-651.98" font-family="Helvetica,sans-Serif" font-weight="bold" font-size="9.00">build&#45;css</text>
</g>
<g id="clust4" class="cluster">
<title>cluster_lib/build&#45;js</title>
<path fill="#ffffff" stroke="black" stroke-width="2" d="M160,-551.18C160,-551.18 206,-551.18 206,-551.18 212,-551.18 218,-557.18 218,-563.18 218,-563.18 218,-591.18 218,-591.18 218,-597.18 212,-603.18 206,-603.18 206,-603.18 160,-603.18 160,-603.18 154,-603.18 148,-597.18 148,-591.18 148,-591.18 148,-563.18 148,-563.18 148,-557.18 154,-551.18 160,-551.18"/>
<text text-anchor="middle" x="183" y="-591.98" font-family="Helvetica,sans-Serif" font-weight="bold" font-size="9.00">build&#45;js</text>
</g>
<g id="clust5" class="cluster">
<title>cluster_lib/build&#45;pages</title>
<path fill="#ffffff" stroke="black" stroke-width="2" d="M160,-151.18C160,-151.18 565.5,-151.18 565.5,-151.18 571.5,-151.18 577.5,-157.18 577.5,-163.18 577.5,-163.18 577.5,-471.18 577.5,-471.18 577.5,-477.18 571.5,-483.18 565.5,-483.18 565.5,-483.18 160,-483.18 160,-483.18 154,-483.18 148,-477.18 148,-471.18 148,-471.18 148,-163.18 148,-163.18 148,-157.18 154,-151.18 160,-151.18"/>
<text text-anchor="middle" x="362.75" y="-471.98" font-family="Helvetica,sans-Serif" font-weight="bold" font-size="9.00">build&#45;pages</text>
</g>
<g id="clust6" class="cluster">
<title>cluster_lib/build&#45;pages/page&#45;builders</title>
<path fill="#ffffff" stroke="black" stroke-width="2" d="M272.5,-159.18C272.5,-159.18 557.5,-159.18 557.5,-159.18 563.5,-159.18 569.5,-165.18 569.5,-171.18 569.5,-171.18 569.5,-405.18 569.5,-405.18 569.5,-411.18 563.5,-417.18 557.5,-417.18 557.5,-417.18 272.5,-417.18 272.5,-417.18 266.5,-417.18 260.5,-411.18 260.5,-405.18 260.5,-405.18 260.5,-171.18 260.5,-171.18 260.5,-165.18 266.5,-159.18 272.5,-159.18"/>
<text text-anchor="middle" x="415" y="-405.98" font-family="Helvetica,sans-Serif" font-weight="bold" font-size="9.00">page&#45;builders</text>
</g>
<g id="clust7" class="cluster">
<title>cluster_lib/build&#45;pages/page&#45;builders/html</title>
<path fill="#ffffff" stroke="black" stroke-width="2" d="M397,-227.18C397,-227.18 443,-227.18 443,-227.18 449,-227.18 455,-233.18 455,-239.18 455,-239.18 455,-267.18 455,-267.18 455,-273.18 449,-279.18 443,-279.18 443,-279.18 397,-279.18 397,-279.18 391,-279.18 385,-273.18 385,-267.18 385,-267.18 385,-239.18 385,-239.18 385,-233.18 391,-227.18 397,-227.18"/>
<text text-anchor="middle" x="420" y="-267.98" font-family="Helvetica,sans-Serif" font-weight="bold" font-size="9.00">html</text>
</g>
<g id="clust9" class="cluster">
<title>cluster_lib/build&#45;pages/page&#45;builders/md</title>
<path fill="#ffffff" stroke="black" stroke-width="2" d="M397,-167.18C397,-167.18 443,-167.18 443,-167.18 449,-167.18 455,-173.18 455,-179.18 455,-179.18 455,-207.18 455,-207.18 455,-213.18 449,-219.18 443,-219.18 443,-219.18 397,-219.18 397,-219.18 391,-219.18 385,-213.18 385,-207.18 385,-207.18 385,-179.18 385,-179.18 385,-173.18 391,-167.18 397,-167.18"/>
<text text-anchor="middle" x="420" y="-207.98" font-family="Helvetica,sans-Serif" font-weight="bold" font-size="9.00">md</text>
</g>
<g id="clust8" class="cluster">
<title>cluster_lib/build&#45;pages/page&#45;builders/js</title>
<path fill="#ffffff" stroke="black" stroke-width="2" d="M397,-313.18C397,-313.18 443,-313.18 443,-313.18 449,-313.18 455,-319.18 455,-325.18 455,-325.18 455,-353.18 455,-353.18 455,-359.18 449,-365.18 443,-365.18 443,-365.18 397,-365.18 397,-365.18 391,-365.18 385,-359.18 385,-353.18 385,-353.18 385,-325.18 385,-325.18 385,-319.18 391,-313.18 397,-313.18"/>
<text text-anchor="middle" x="420" y="-353.98" font-family="Helvetica,sans-Serif" font-weight="bold" font-size="9.00">js</text>
</g>
<g id="clust10" class="cluster">
<title>cluster_lib/build&#45;static</title>
<path fill="#ffffff" stroke="black" stroke-width="2" d="M160,-491.18C160,-491.18 206,-491.18 206,-491.18 212,-491.18 218,-497.18 218,-503.18 218,-503.18 218,-531.18 218,-531.18 218,-537.18 212,-543.18 206,-543.18 206,-543.18 160,-543.18 160,-543.18 154,-543.18 148,-537.18 148,-531.18 148,-531.18 148,-503.18 148,-503.18 148,-497.18 154,-491.18 160,-491.18"/>
<text text-anchor="middle" x="183" y="-531.98" font-family="Helvetica,sans-Serif" font-weight="bold" font-size="9.00">build&#45;static</text>
</g>
<g id="clust11" class="cluster">
<title>cluster_test&#45;project</title>
<path fill="#ffffff" stroke="black" stroke-width="2" d="M20,-775.18C20,-775.18 348.5,-775.18 348.5,-775.18 354.5,-775.18 360.5,-781.18 360.5,-787.18 360.5,-787.18 360.5,-1559.18 360.5,-1559.18 360.5,-1565.18 354.5,-1571.18 348.5,-1571.18 348.5,-1571.18 20,-1571.18 20,-1571.18 14,-1571.18 8,-1565.18 8,-1559.18 8,-1559.18 8,-787.18 8,-787.18 8,-781.18 14,-775.18 20,-775.18"/>
<text text-anchor="middle" x="184.25" y="-1559.98" font-family="Helvetica,sans-Serif" font-weight="bold" font-size="9.00">test&#45;project</text>
</g>
<g id="clust12" class="cluster">
<title>cluster_test&#45;project/public</title>
<path fill="#ffffff" stroke="black" stroke-width="2" d="M28,-1319.18C28,-1319.18 340.5,-1319.18 340.5,-1319.18 346.5,-1319.18 352.5,-1325.18 352.5,-1331.18 352.5,-1331.18 352.5,-1533.18 352.5,-1533.18 352.5,-1539.18 346.5,-1545.18 340.5,-1545.18 340.5,-1545.18 28,-1545.18 28,-1545.18 22,-1545.18 16,-1539.18 16,-1533.18 16,-1533.18 16,-1331.18 16,-1331.18 16,-1325.18 22,-1319.18 28,-1319.18"/>
<text text-anchor="middle" x="184.25" y="-1533.98" font-family="Helvetica,sans-Serif" font-weight="bold" font-size="9.00">public</text>
</g>
<g id="clust13" class="cluster">
<title>cluster_test&#45;project/public/a&#45;page</title>
<path fill="#ffffff" stroke="black" stroke-width="2" d="M36,-1407.18C36,-1407.18 98,-1407.18 98,-1407.18 104,-1407.18 110,-1413.18 110,-1419.18 110,-1419.18 110,-1507.18 110,-1507.18 110,-1513.18 104,-1519.18 98,-1519.18 98,-1519.18 36,-1519.18 36,-1519.18 30,-1519.18 24,-1513.18 24,-1507.18 24,-1507.18 24,-1419.18 24,-1419.18 24,-1413.18 30,-1407.18 36,-1407.18"/>
<text text-anchor="middle" x="67" y="-1507.98" font-family="Helvetica,sans-Serif" font-weight="bold" font-size="9.00">a&#45;page</text>
</g>
<g id="clust14" class="cluster">
<title>cluster_test&#45;project/public/a&#45;page/nested&#45;page</title>
<path fill="#ffffff" stroke="black" stroke-width="2" d="M44,-1441.18C44,-1441.18 90,-1441.18 90,-1441.18 96,-1441.18 102,-1447.18 102,-1453.18 102,-1453.18 102,-1481.18 102,-1481.18 102,-1487.18 96,-1493.18 90,-1493.18 90,-1493.18 44,-1493.18 44,-1493.18 38,-1493.18 32,-1487.18 32,-1481.18 32,-1481.18 32,-1453.18 32,-1453.18 32,-1447.18 38,-1441.18 44,-1441.18"/>
<text text-anchor="middle" x="67" y="-1481.98" font-family="Helvetica,sans-Serif" font-weight="bold" font-size="9.00">nested&#45;page</text>
</g>
<g id="clust15" class="cluster">
<title>cluster_test&#45;project/public/html&#45;page</title>
<path fill="#ffffff" stroke="black" stroke-width="2" d="M160,-1413.18C160,-1413.18 206,-1413.18 206,-1413.18 212,-1413.18 218,-1419.18 218,-1425.18 218,-1425.18 218,-1453.18 218,-1453.18 218,-1459.18 212,-1465.18 206,-1465.18 206,-1465.18 160,-1465.18 160,-1465.18 154,-1465.18 148,-1459.18 148,-1453.18 148,-1453.18 148,-1425.18 148,-1425.18 148,-1419.18 154,-1413.18 160,-1413.18"/>
<text text-anchor="middle" x="183" y="-1453.98" font-family="Helvetica,sans-Serif" font-weight="bold" font-size="9.00">html&#45;page</text>
</g>
<g id="clust16" class="cluster">
<title>cluster_test&#45;project/public/md&#45;page</title>
<path fill="#ffffff" stroke="black" stroke-width="2" d="M160,-1353.18C160,-1353.18 206,-1353.18 206,-1353.18 212,-1353.18 218,-1359.18 218,-1365.18 218,-1365.18 218,-1393.18 218,-1393.18 218,-1399.18 212,-1405.18 206,-1405.18 206,-1405.18 160,-1405.18 160,-1405.18 154,-1405.18 148,-1399.18 148,-1393.18 148,-1393.18 148,-1365.18 148,-1365.18 148,-1359.18 154,-1353.18 160,-1353.18"/>
<text text-anchor="middle" x="183" y="-1393.98" font-family="Helvetica,sans-Serif" font-weight="bold" font-size="9.00">md&#45;page</text>
</g>
<g id="clust17" class="cluster">
<title>cluster_test&#45;project/src</title>
<path fill="#ffffff" stroke="black" stroke-width="2" d="M28,-783.18C28,-783.18 222,-783.18 222,-783.18 228,-783.18 234,-789.18 234,-795.18 234,-795.18 234,-1299.18 234,-1299.18 234,-1305.18 228,-1311.18 222,-1311.18 222,-1311.18 28,-1311.18 28,-1311.18 22,-1311.18 16,-1305.18 16,-1299.18 16,-1299.18 16,-795.18 16,-795.18 16,-789.18 22,-783.18 28,-783.18"/>
<text text-anchor="middle" x="125" y="-1299.98" font-family="Helvetica,sans-Serif" font-weight="bold" font-size="9.00">src</text>
</g>
<g id="clust18" class="cluster">
<title>cluster_test&#45;project/src/a&#45;page</title>
<path fill="#ffffff" stroke="black" stroke-width="2" d="M36,-1117.18C36,-1117.18 214,-1117.18 214,-1117.18 220,-1117.18 226,-1123.18 226,-1129.18 226,-1129.18 226,-1273.18 226,-1273.18 226,-1279.18 220,-1285.18 214,-1285.18 214,-1285.18 36,-1285.18 36,-1285.18 30,-1285.18 24,-1279.18 24,-1273.18 24,-1273.18 24,-1129.18 24,-1129.18 24,-1123.18 30,-1117.18 36,-1117.18"/>
<text text-anchor="middle" x="125" y="-1273.98" font-family="Helvetica,sans-Serif" font-weight="bold" font-size="9.00">a&#45;page</text>
</g>
<g id="clust19" class="cluster">
<title>cluster_test&#45;project/src/a&#45;page/libs</title>
<path fill="#ffffff" stroke="black" stroke-width="2" d="M160,-1181.18C160,-1181.18 206,-1181.18 206,-1181.18 212,-1181.18 218,-1187.18 218,-1193.18 218,-1193.18 218,-1221.18 218,-1221.18 218,-1227.18 212,-1233.18 206,-1233.18 206,-1233.18 160,-1233.18 160,-1233.18 154,-1233.18 148,-1227.18 148,-1221.18 148,-1221.18 148,-1193.18 148,-1193.18 148,-1187.18 154,-1181.18 160,-1181.18"/>
<text text-anchor="middle" x="183" y="-1221.98" font-family="Helvetica,sans-Serif" font-weight="bold" font-size="9.00">libs</text>
</g>
<g id="clust20" class="cluster">
<title>cluster_test&#45;project/src/a&#45;page/nested&#45;page</title>
<path fill="#ffffff" stroke="black" stroke-width="2" d="M44,-1151.18C44,-1151.18 90,-1151.18 90,-1151.18 96,-1151.18 102,-1157.18 102,-1163.18 102,-1163.18 102,-1221.18 102,-1221.18 102,-1227.18 96,-1233.18 90,-1233.18 90,-1233.18 44,-1233.18 44,-1233.18 38,-1233.18 32,-1227.18 32,-1221.18 32,-1221.18 32,-1163.18 32,-1163.18 32,-1157.18 38,-1151.18 44,-1151.18"/>
<text text-anchor="middle" x="67" y="-1221.98" font-family="Helvetica,sans-Serif" font-weight="bold" font-size="9.00">nested&#45;page</text>
</g>
<g id="clust21" class="cluster">
<title>cluster_test&#45;project/src/conflict&#45;page</title>
<path fill="#ffffff" stroke="black" stroke-width="2" d="M43,-1057.18C43,-1057.18 92,-1057.18 92,-1057.18 98,-1057.18 104,-1063.18 104,-1069.18 104,-1069.18 104,-1097.18 104,-1097.18 104,-1103.18 98,-1109.18 92,-1109.18 92,-1109.18 43,-1109.18 43,-1109.18 37,-1109.18 31,-1103.18 31,-1097.18 31,-1097.18 31,-1069.18 31,-1069.18 31,-1063.18 37,-1057.18 43,-1057.18"/>
<text text-anchor="middle" x="67.5" y="-1097.98" font-family="Helvetica,sans-Serif" font-weight="bold" font-size="9.00">conflict&#45;page</text>
</g>
<g id="clust22" class="cluster">
<title>cluster_test&#45;project/src/html&#45;page</title>
<path fill="#ffffff" stroke="black" stroke-width="2" d="M38.5,-967.18C38.5,-967.18 95.5,-967.18 95.5,-967.18 101.5,-967.18 107.5,-973.18 107.5,-979.18 107.5,-979.18 107.5,-1037.18 107.5,-1037.18 107.5,-1043.18 101.5,-1049.18 95.5,-1049.18 95.5,-1049.18 38.5,-1049.18 38.5,-1049.18 32.5,-1049.18 26.5,-1043.18 26.5,-1037.18 26.5,-1037.18 26.5,-979.18 26.5,-979.18 26.5,-973.18 32.5,-967.18 38.5,-967.18"/>
<text text-anchor="middle" x="67" y="-1037.98" font-family="Helvetica,sans-Serif" font-weight="bold" font-size="9.00">html&#45;page</text>
</g>
<g id="clust23" class="cluster">
<title>cluster_test&#45;project/src/md&#45;page</title>
<path fill="#ffffff" stroke="black" stroke-width="2" d="M44,-907.18C44,-907.18 90,-907.18 90,-907.18 96,-907.18 102,-913.18 102,-919.18 102,-919.18 102,-947.18 102,-947.18 102,-953.18 96,-959.18 90,-959.18 90,-959.18 44,-959.18 44,-959.18 38,-959.18 32,-953.18 32,-947.18 32,-947.18 32,-919.18 32,-919.18 32,-913.18 38,-907.18 44,-907.18"/>
<text text-anchor="middle" x="67" y="-947.98" font-family="Helvetica,sans-Serif" font-weight="bold" font-size="9.00">md&#45;page</text>
</g>
<!-- fs/promises -->
<g id="node1" class="node">
<title>fs/promises</title>
<path fill="#ffffcc" stroke="grey" d="M544,-77.18C544,-77.18 502,-77.18 502,-77.18 499,-77.18 496,-74.18 496,-71.18 496,-71.18 496,-65.18 496,-65.18 496,-62.18 499,-59.18 502,-59.18 502,-59.18 544,-59.18 544,-59.18 547,-59.18 550,-62.18 550,-65.18 550,-65.18 550,-71.18 550,-71.18 550,-74.18 547,-77.18 544,-77.18"/>
<text text-anchor="middle" x="523" y="-65.98" font-family="Helvetica,sans-Serif" font-size="9.00" fill="grey">promises</text>
</g>
<!-- lib/build&#45;css/index.js -->
<g id="node2" class="node">
<title>lib/build&#45;css/index.js</title>
<g id="a_node2"><a xlink:href="lib/build-css/index.js" xlink:title="index.js">
<path fill="#ffffcc" stroke="black" d="M204,-637.18C204,-637.18 162,-637.18 162,-637.18 159,-637.18 156,-634.18 156,-631.18 156,-631.18 156,-625.18 156,-625.18 156,-622.18 159,-619.18 162,-619.18 162,-619.18 204,-619.18 204,-619.18 207,-619.18 210,-622.18 210,-625.18 210,-625.18 210,-631.18 210,-631.18 210,-634.18 207,-637.18 204,-637.18"/>
<text text-anchor="middle" x="183" y="-625.98" font-family="Helvetica,sans-Serif" font-size="9.00">index.js</text>
</a>
</g>
</g>
<!-- lib/build&#45;css/index.js&#45;&gt;fs/promises -->
<g id="edge1" class="edge">
<title>lib/build&#45;css/index.js&#45;&gt;fs/promises</title>
<path fill="none" stroke="#000000" stroke-dasharray="5,2" stroke-opacity="0.200000" d="M210.13,-622.78C219.21,-619.53 228.5,-614.36 234,-606.18 261.91,-564.67 216.13,-195.92 246.5,-156.18 309.93,-73.17 372.85,-122.55 471.5,-88.18 478.87,-85.61 486.76,-82.61 494.06,-79.73"/>
<polygon fill="#000000" fill-opacity="0.200000" stroke="#000000" stroke-opacity="0.200000" points="495.23,-81.52 500.03,-77.34 493.68,-77.62 495.23,-81.52"/>
</g>
<!-- path -->
<g id="node3" class="node">
<title>path</title>
<path fill="#ffffcc" stroke="grey" d="M641.5,-153.18C641.5,-153.18 599.5,-153.18 599.5,-153.18 596.5,-153.18 593.5,-150.18 593.5,-147.18 593.5,-147.18 593.5,-141.18 593.5,-141.18 593.5,-138.18 596.5,-135.18 599.5,-135.18 599.5,-135.18 641.5,-135.18 641.5,-135.18 644.5,-135.18 647.5,-138.18 647.5,-141.18 647.5,-141.18 647.5,-147.18 647.5,-147.18 647.5,-150.18 644.5,-153.18 641.5,-153.18"/>
<text text-anchor="middle" x="620.5" y="-141.98" font-family="Helvetica,sans-Serif" font-size="9.00" fill="grey">path</text>
</g>
<!-- lib/build&#45;css/index.js&#45;&gt;path -->
<g id="edge2" class="edge">
<title>lib/build&#45;css/index.js&#45;&gt;path</title>
<path fill="none" stroke="#000000" stroke-dasharray="5,2" stroke-opacity="0.200000" d="M185.81,-637.4C190.81,-659.99 207.1,-717.95 246.5,-741.18 290.14,-766.91 310.7,-750.49 360.5,-741.18 482.4,-718.39 535.5,-689.66 585.5,-576.18 619.37,-499.3 620.02,-227.78 619.64,-159.73"/>
<polygon fill="#000000" fill-opacity="0.200000" stroke="#000000" stroke-opacity="0.200000" points="621.73,-159.44 619.59,-153.46 617.53,-159.47 621.73,-159.44"/>
</g>
<!-- lib/build&#45;js/index.js -->
<g id="node4" class="node">
<title>lib/build&#45;js/index.js</title>
<g id="a_node4"><a xlink:href="lib/build-js/index.js" xlink:title="index.js">
<path fill="#ffffcc" stroke="black" d="M204,-577.18C204,-577.18 162,-577.18 162,-577.18 159,-577.18 156,-574.18 156,-571.18 156,-571.18 156,-565.18 156,-565.18 156,-562.18 159,-559.18 162,-559.18 162,-559.18 204,-559.18 204,-559.18 207,-559.18 210,-562.18 210,-565.18 210,-565.18 210,-571.18 210,-571.18 210,-574.18 207,-577.18 204,-577.18"/>
<text text-anchor="middle" x="183" y="-565.98" font-family="Helvetica,sans-Serif" font-size="9.00">index.js</text>
</a>
</g>
</g>
<!-- lib/build&#45;js/index.js&#45;&gt;path -->
<g id="edge3" class="edge">
<title>lib/build&#45;js/index.js&#45;&gt;path</title>
<path fill="none" stroke="#000000" stroke-dasharray="5,2" stroke-opacity="0.200000" d="M201.36,-577.27C212.65,-584.17 226.6,-594.74 234,-608.18 246.18,-630.31 227.68,-704.33 246.5,-721.18 284.24,-754.98 313.9,-741.08 360.5,-721.18 493.48,-664.39 525.04,-617.53 585.5,-486.18 612.89,-426.68 618.31,-217.71 619.29,-159.39"/>
<polygon fill="#000000" fill-opacity="0.200000" stroke="#000000" stroke-opacity="0.200000" points="621.39,-159.37 619.39,-153.34 617.19,-159.31 621.39,-159.37"/>
</g>
<!-- lib/build&#45;pages/index.js -->
<g id="node5" class="node">
<title>lib/build&#45;pages/index.js</title>
<g id="a_node5"><a xlink:href="lib/build-pages/index.js" xlink:title="index.js">
<path fill="#ffffcc" stroke="black" d="M204,-435.18C204,-435.18 162,-435.18 162,-435.18 159,-435.18 156,-432.18 156,-429.18 156,-429.18 156,-423.18 156,-423.18 156,-420.18 159,-417.18 162,-417.18 162,-417.18 204,-417.18 204,-417.18 207,-417.18 210,-420.18 210,-423.18 210,-423.18 210,-429.18 210,-429.18 210,-432.18 207,-435.18 204,-435.18"/>
<text text-anchor="middle" x="183" y="-423.98" font-family="Helvetica,sans-Serif" font-size="9.00">index.js</text>
</a>
</g>
</g>
<!-- lib/build&#45;pages/page&#45;builders/index.js -->
<g id="node6" class="node">
<title>lib/build&#45;pages/page&#45;builders/index.js</title>
<g id="a_node6"><a xlink:href="lib/build-pages/page-builders/index.js" xlink:title="index.js">
<path fill="#ffffcc" stroke="black" d="M316.5,-305.18C316.5,-305.18 274.5,-305.18 274.5,-305.18 271.5,-305.18 268.5,-302.18 268.5,-299.18 268.5,-299.18 268.5,-293.18 268.5,-293.18 268.5,-290.18 271.5,-287.18 274.5,-287.18 274.5,-287.18 316.5,-287.18 316.5,-287.18 319.5,-287.18 322.5,-290.18 322.5,-293.18 322.5,-293.18 322.5,-299.18 322.5,-299.18 322.5,-302.18 319.5,-305.18 316.5,-305.18"/>
<text text-anchor="middle" x="295.5" y="-293.98" font-family="Helvetica,sans-Serif" font-size="9.00">index.js</text>
</a>
</g>
</g>
<!-- lib/build&#45;pages/index.js&#45;&gt;lib/build&#45;pages/page&#45;builders/index.js -->
<g id="edge4" class="edge">
<title>lib/build&#45;pages/index.js&#45;&gt;lib/build&#45;pages/page&#45;builders/index.js</title>
<path fill="none" stroke="#000000" stroke-width="2" stroke-opacity="0.200000" d="M210.24,-425.16C219,-423.46 228.04,-420 234,-413.18 264.63,-378.12 216.05,-344.39 246.5,-309.18 250.61,-304.43 256.26,-301.33 262.24,-299.32"/>
<polygon fill="#000000" fill-opacity="0.200000" stroke="#000000" stroke-width="2" stroke-opacity="0.200000" points="263.06,-301.28 268.29,-297.66 261.95,-297.23 263.06,-301.28"/>
</g>
<!-- lib/build&#45;pages/resolve&#45;layout.js -->
<g id="node7" class="node">
<title>lib/build&#45;pages/resolve&#45;layout.js</title>
<g id="a_node7"><a xlink:href="lib/build-pages/resolve-layout.js" xlink:title="resolve&#45;layout.js">
<path fill="#ffffcc" stroke="black" d="M330.5,-457.18C330.5,-457.18 260.5,-457.18 260.5,-457.18 257.5,-457.18 254.5,-454.18 254.5,-451.18 254.5,-451.18 254.5,-445.18 254.5,-445.18 254.5,-442.18 257.5,-439.18 260.5,-439.18 260.5,-439.18 330.5,-439.18 330.5,-439.18 333.5,-439.18 336.5,-442.18 336.5,-445.18 336.5,-445.18 336.5,-451.18 336.5,-451.18 336.5,-454.18 333.5,-457.18 330.5,-457.18"/>
<text text-anchor="middle" x="295.5" y="-445.98" font-family="Helvetica,sans-Serif" font-size="9.00">resolve&#45;layout.js</text>
</a>
</g>
</g>
<!-- lib/build&#45;pages/index.js&#45;&gt;lib/build&#45;pages/resolve&#45;layout.js -->
<g id="edge5" class="edge">
<title>lib/build&#45;pages/index.js&#45;&gt;lib/build&#45;pages/resolve&#45;layout.js</title>
<path fill="none" stroke="#000000" stroke-width="2" stroke-opacity="0.200000" d="M210.19,-431.39C221.59,-433.66 235.3,-436.39 248.32,-438.98"/>
<polygon fill="#000000" fill-opacity="0.200000" stroke="#000000" stroke-width="2" stroke-opacity="0.200000" points="247.94,-441.05 254.24,-440.16 248.76,-436.93 247.94,-441.05"/>
</g>
<!-- lib/build&#45;pages/resolve&#45;vars.js -->
<g id="node8" class="node">
<title>lib/build&#45;pages/resolve&#45;vars.js</title>
<g id="a_node8"><a xlink:href="lib/build-pages/resolve-vars.js" xlink:title="resolve&#45;vars.js">
<path fill="#ffffcc" stroke="black" d="M554.5,-443.18C554.5,-443.18 491.5,-443.18 491.5,-443.18 488.5,-443.18 485.5,-440.18 485.5,-437.18 485.5,-437.18 485.5,-431.18 485.5,-431.18 485.5,-428.18 488.5,-425.18 491.5,-425.18 491.5,-425.18 554.5,-425.18 554.5,-425.18 557.5,-425.18 560.5,-428.18 560.5,-431.18 560.5,-431.18 560.5,-437.18 560.5,-437.18 560.5,-440.18 557.5,-443.18 554.5,-443.18"/>
<text text-anchor="middle" x="523" y="-431.98" font-family="Helvetica,sans-Serif" font-size="9.00">resolve&#45;vars.js</text>
</a>
</g>
</g>
<!-- lib/build&#45;pages/index.js&#45;&gt;lib/build&#45;pages/resolve&#45;vars.js -->
<g id="edge6" class="edge">
<title>lib/build&#45;pages/index.js&#45;&gt;lib/build&#45;pages/resolve&#45;vars.js</title>
<path fill="none" stroke="#000000" stroke-width="2" stroke-opacity="0.200000" d="M210.31,-424.04C253.34,-421.06 336.41,-417.62 360.5,-433.18 367.18,-437.49 361.74,-445 368.5,-449.18 407.44,-473.25 426.2,-455.76 471.5,-449.18 477.94,-448.24 484.71,-446.67 491.12,-444.88"/>
<polygon fill="#000000" fill-opacity="0.200000" stroke="#000000" stroke-width="2" stroke-opacity="0.200000" points="491.72,-446.89 496.89,-443.19 490.54,-442.86 491.72,-446.89"/>
</g>
<!-- lib/build&#45;pages/page&#45;builders/create&#45;page&#45;builder.js -->
<g id="node9" class="node">
<title>lib/build&#45;pages/page&#45;builders/create&#45;page&#45;builder.js</title>
<g id="a_node9"><a xlink:href="lib/build-pages/page-builders/create-page-builder.js" xlink:title="create&#45;page&#45;builder.js">
<path fill="#ffffcc" stroke="black" d="M465.5,-305.18C465.5,-305.18 374.5,-305.18 374.5,-305.18 371.5,-305.18 368.5,-302.18 368.5,-299.18 368.5,-299.18 368.5,-293.18 368.5,-293.18 368.5,-290.18 371.5,-287.18 374.5,-287.18 374.5,-287.18 465.5,-287.18 465.5,-287.18 468.5,-287.18 471.5,-290.18 471.5,-293.18 471.5,-293.18 471.5,-299.18 471.5,-299.18 471.5,-302.18 468.5,-305.18 465.5,-305.18"/>
<text text-anchor="middle" x="420" y="-293.98" font-family="Helvetica,sans-Serif" font-size="9.00">create&#45;page&#45;builder.js</text>
</a>
</g>
</g>
<!-- lib/build&#45;pages/page&#45;builders/index.js&#45;&gt;lib/build&#45;pages/page&#45;builders/create&#45;page&#45;builder.js -->
<g id="edge14" class="edge">
<title>lib/build&#45;pages/page&#45;builders/index.js&#45;&gt;lib/build&#45;pages/page&#45;builders/create&#45;page&#45;builder.js</title>
<path fill="none" stroke="#000000" stroke-width="2" stroke-opacity="0.200000" d="M322.78,-296.18C334.24,-296.18 348.16,-296.18 361.81,-296.18"/>
<polygon fill="#000000" fill-opacity="0.200000" stroke="#000000" stroke-width="2" stroke-opacity="0.200000" points="362.05,-298.28 368.05,-296.18 362.05,-294.08 362.05,-298.28"/>
</g>
<!-- lib/build&#45;pages/page&#45;builders/html/index.js -->
<g id="node12" class="node">
<title>lib/build&#45;pages/page&#45;builders/html/index.js</title>
<g id="a_node12"><a xlink:href="lib/build-pages/page-builders/html/index.js" xlink:title="index.js">
<path fill="#ffffcc" stroke="black" d="M441,-253.18C441,-253.18 399,-253.18 399,-253.18 396,-253.18 393,-250.18 393,-247.18 393,-247.18 393,-241.18 393,-241.18 393,-238.18 396,-235.18 399,-235.18 399,-235.18 441,-235.18 441,-235.18 444,-235.18 447,-238.18 447,-241.18 447,-241.18 447,-247.18 447,-247.18 447,-250.18 444,-253.18 441,-253.18"/>
<text text-anchor="middle" x="420" y="-241.98" font-family="Helvetica,sans-Serif" font-size="9.00">index.js</text>
</a>
</g>
</g>
<!-- lib/build&#45;pages/page&#45;builders/index.js&#45;&gt;lib/build&#45;pages/page&#45;builders/html/index.js -->
<g id="edge15" class="edge">
<title>lib/build&#45;pages/page&#45;builders/index.js&#45;&gt;lib/build&#45;pages/page&#45;builders/html/index.js</title>
<path fill="none" stroke="#000000" stroke-width="2" stroke-opacity="0.200000" d="M310.88,-287.02C325.07,-278.32 347.59,-265.39 368.5,-257.18 374.31,-254.9 380.66,-252.9 386.84,-251.2"/>
<polygon fill="#000000" fill-opacity="0.200000" stroke="#000000" stroke-width="2" stroke-opacity="0.200000" points="387.65,-253.16 392.92,-249.6 386.59,-249.09 387.65,-253.16"/>
</g>
<!-- lib/build&#45;pages/page&#45;builders/js/index.js -->
<g id="node13" class="node">
<title>lib/build&#45;pages/page&#45;builders/js/index.js</title>
<g id="a_node13"><a xlink:href="lib/build-pages/page-builders/js/index.js" xlink:title="index.js">
<path fill="#ffffcc" stroke="black" d="M441,-339.18C441,-339.18 399,-339.18 399,-339.18 396,-339.18 393,-336.18 393,-333.18 393,-333.18 393,-327.18 393,-327.18 393,-324.18 396,-321.18 399,-321.18 399,-321.18 441,-321.18 441,-321.18 444,-321.18 447,-324.18 447,-327.18 447,-327.18 447,-333.18 447,-333.18 447,-336.18 444,-339.18 441,-339.18"/>
<text text-anchor="middle" x="420" y="-327.98" font-family="Helvetica,sans-Serif" font-size="9.00">index.js</text>
</a>
</g>
</g>
<!-- lib/build&#45;pages/page&#45;builders/index.js&#45;&gt;lib/build&#45;pages/page&#45;builders/js/index.js -->
<g id="edge16" class="edge">
<title>lib/build&#45;pages/page&#45;builders/index.js&#45;&gt;lib/build&#45;pages/page&#45;builders/js/index.js</title>
<path fill="none" stroke="#000000" stroke-width="2" stroke-opacity="0.200000" d="M322.59,-298.01C334.69,-299.7 348.91,-302.96 360.5,-309.18 364.93,-311.56 364.13,-314.69 368.5,-317.18 374.16,-320.41 380.63,-322.85 387,-324.69"/>
<polygon fill="#000000" fill-opacity="0.200000" stroke="#000000" stroke-width="2" stroke-opacity="0.200000" points="386.47,-326.72 392.8,-326.22 387.54,-322.66 386.47,-326.72"/>
</g>
<!-- lib/build&#45;pages/page&#45;builders/md/index.js -->
<g id="node14" class="node">
<title>lib/build&#45;pages/page&#45;builders/md/index.js</title>
<g id="a_node14"><a xlink:href="lib/build-pages/page-builders/md/index.js" xlink:title="index.js">
<path fill="#ffffcc" stroke="black" d="M441,-193.18C441,-193.18 399,-193.18 399,-193.18 396,-193.18 393,-190.18 393,-187.18 393,-187.18 393,-181.18 393,-181.18 393,-178.18 396,-175.18 399,-175.18 399,-175.18 441,-175.18 441,-175.18 444,-175.18 447,-178.18 447,-181.18 447,-181.18 447,-187.18 447,-187.18 447,-190.18 444,-193.18 441,-193.18"/>
<text text-anchor="middle" x="420" y="-181.98" font-family="Helvetica,sans-Serif" font-size="9.00">index.js</text>
</a>
</g>
</g>
<!-- lib/build&#45;pages/page&#45;builders/index.js&#45;&gt;lib/build&#45;pages/page&#45;builders/md/index.js -->
<g id="edge17" class="edge">
<title>lib/build&#45;pages/page&#45;builders/index.js&#45;&gt;lib/build&#45;pages/page&#45;builders/md/index.js</title>
<path fill="none" stroke="#000000" stroke-width="2" stroke-opacity="0.200000" d="M305.05,-286.97C318.22,-272.94 344.47,-245.58 368.5,-224.18 379.17,-214.68 391.76,-204.7 401.71,-197.08"/>
<polygon fill="#000000" fill-opacity="0.200000" stroke="#000000" stroke-width="2" stroke-opacity="0.200000" points="403.13,-198.64 406.64,-193.33 400.59,-195.29 403.13,-198.64"/>
</g>
<!-- lib/build&#45;pages/page&#45;builders/create&#45;page&#45;builder.js&#45;&gt;fs/promises -->
<g id="edge9" class="edge">
<title>lib/build&#45;pages/page&#45;builders/create&#45;page&#45;builder.js&#45;&gt;fs/promises</title>
<path fill="none" stroke="#000000" stroke-dasharray="5,2" stroke-opacity="0.200000" d="M466.41,-287.01C468.28,-285.61 470,-284.01 471.5,-282.18 496.11,-252.21 468.91,-143.68 484.5,-108.18 489.06,-97.79 497.51,-88.4 505.24,-81.33"/>
<polygon fill="#000000" fill-opacity="0.200000" stroke="#000000" stroke-opacity="0.200000" points="506.78,-82.77 509.91,-77.24 504.01,-79.61 506.78,-82.77"/>
</g>
<!-- lib/build&#45;pages/page&#45;builders/create&#45;page&#45;builder.js&#45;&gt;path -->
<g id="edge10" class="edge">
<title>lib/build&#45;pages/page&#45;builders/create&#45;page&#45;builder.js&#45;&gt;path</title>
<path fill="none" stroke="#000000" stroke-dasharray="5,2" stroke-opacity="0.200000" d="M466.38,-286.99C468.26,-285.59 469.99,-284 471.5,-282.18 492.62,-256.8 460.15,-156.48 484.5,-134.18 514.23,-106.94 564.74,-120.7 594.83,-132.74"/>
<polygon fill="#000000" fill-opacity="0.200000" stroke="#000000" stroke-opacity="0.200000" points="594.22,-134.76 600.56,-135.12 595.82,-130.88 594.22,-134.76"/>
</g>
<!-- lib/build&#45;pages/page&#45;builders/create&#45;page&#45;builder.js&#45;&gt;lib/build&#45;pages/resolve&#45;vars.js -->
<g id="edge7" class="edge">
<title>lib/build&#45;pages/page&#45;builders/create&#45;page&#45;builder.js&#45;&gt;lib/build&#45;pages/resolve&#45;vars.js</title>
<path fill="none" stroke="#000000" stroke-width="2" stroke-opacity="0.200000" d="M466.31,-305.43C468.21,-306.81 469.96,-308.38 471.5,-310.18 503.55,-347.54 454.1,-381.46 484.5,-420.18 484.68,-420.41 484.87,-420.64 485.06,-420.86"/>
<polygon fill="#000000" fill-opacity="0.200000" stroke="#000000" stroke-width="2" stroke-opacity="0.200000" points="483.76,-422.53 489.6,-425.05 486.61,-419.44 483.76,-422.53"/>
</g>
<!-- lib/build&#45;pages/page&#45;builders/fs&#45;path&#45;to&#45;url.js -->
<g id="node10" class="node">
<title>lib/build&#45;pages/page&#45;builders/fs&#45;path&#45;to&#45;url.js</title>
<g id="a_node10"><a xlink:href="lib/build-pages/page-builders/fs-path-to-url.js" xlink:title="fs&#45;path&#45;to&#45;url.js">
<path fill="#ffffcc" stroke="black" d="M555.5,-305.18C555.5,-305.18 490.5,-305.18 490.5,-305.18 487.5,-305.18 484.5,-302.18 484.5,-299.18 484.5,-299.18 484.5,-293.18 484.5,-293.18 484.5,-290.18 487.5,-287.18 490.5,-287.18 490.5,-287.18 555.5,-287.18 555.5,-287.18 558.5,-287.18 561.5,-290.18 561.5,-293.18 561.5,-293.18 561.5,-299.18 561.5,-299.18 561.5,-302.18 558.5,-305.18 555.5,-305.18"/>
<text text-anchor="middle" x="523" y="-293.98" font-family="Helvetica,sans-Serif" font-size="9.00">fs&#45;path&#45;to&#45;url.js</text>
</a>
</g>
</g>
<!-- lib/build&#45;pages/page&#45;builders/create&#45;page&#45;builder.js&#45;&gt;lib/build&#45;pages/page&#45;builders/fs&#45;path&#45;to&#45;url.js -->
<g id="edge8" class="edge">
<title>lib/build&#45;pages/page&#45;builders/create&#45;page&#45;builder.js&#45;&gt;lib/build&#45;pages/page&#45;builders/fs&#45;path&#45;to&#45;url.js</title>
<path fill="none" stroke="#000000" stroke-width="2" stroke-opacity="0.200000" d="M471.8,-296.18C473.91,-296.18 476.02,-296.18 478.12,-296.18"/>
<polygon fill="#000000" fill-opacity="0.200000" stroke="#000000" stroke-width="2" stroke-opacity="0.200000" points="478.34,-298.28 484.34,-296.18 478.34,-294.08 478.34,-298.28"/>
</g>
<!-- lib/build&#45;pages/page&#45;builders/fs&#45;path&#45;to&#45;url.js&#45;&gt;path -->
<g id="edge11" class="edge">
<title>lib/build&#45;pages/page&#45;builders/fs&#45;path&#45;to&#45;url.js&#45;&gt;path</title>
<path fill="none" stroke="#000000" stroke-dasharray="5,2" stroke-opacity="0.200000" d="M529.69,-287.13C545.64,-261.74 590.91,-189.68 610.4,-158.67"/>
<polygon fill="#000000" fill-opacity="0.200000" stroke="#000000" stroke-opacity="0.200000" points="612.31,-159.57 613.72,-153.38 608.75,-157.34 612.31,-159.57"/>
</g>
<!-- lib/build&#45;pages/page&#45;builders/fs&#45;path&#45;to&#45;url.test.js -->
<g id="node11" class="node">
<title>lib/build&#45;pages/page&#45;builders/fs&#45;path&#45;to&#45;url.test.js</title>
<g id="a_node11"><a xlink:href="lib/build-pages/page-builders/fs-path-to-url.test.js" xlink:title="fs&#45;path&#45;to&#45;url.test.js">
<path fill="#ffffcc" stroke="black" d="M461,-391.18C461,-391.18 379,-391.18 379,-391.18 376,-391.18 373,-388.18 373,-385.18 373,-385.18 373,-379.18 373,-379.18 373,-376.18 376,-373.18 379,-373.18 379,-373.18 461,-373.18 461,-373.18 464,-373.18 467,-376.18 467,-379.18 467,-379.18 467,-385.18 467,-385.18 467,-388.18 464,-391.18 461,-391.18"/>
<text text-anchor="middle" x="420" y="-379.98" font-family="Helvetica,sans-Serif" font-size="9.00">fs&#45;path&#45;to&#45;url.test.js</text>
</a>
</g>
</g>
<!-- lib/build&#45;pages/page&#45;builders/fs&#45;path&#45;to&#45;url.test.js&#45;&gt;lib/build&#45;pages/page&#45;builders/fs&#45;path&#45;to&#45;url.js -->
<g id="edge12" class="edge">
<title>lib/build&#45;pages/page&#45;builders/fs&#45;path&#45;to&#45;url.test.js&#45;&gt;lib/build&#45;pages/page&#45;builders/fs&#45;path&#45;to&#45;url.js</title>
<path fill="none" stroke="#000000" stroke-width="2" stroke-opacity="0.200000" d="M465.65,-373.04C467.77,-371.64 469.75,-370.03 471.5,-368.18 488.74,-349.98 469.57,-331.82 484.96,-310.02"/>
<polygon fill="#000000" fill-opacity="0.200000" stroke="#000000" stroke-width="2" stroke-opacity="0.200000" points="486.64,-311.29 488.8,-305.32 483.38,-308.64 486.64,-311.29"/>
</g>
<!-- lib/build&#45;pages/page&#45;builders/html/index.js&#45;&gt;fs/promises -->
<g id="edge13" class="edge">
<title>lib/build&#45;pages/page&#45;builders/html/index.js&#45;&gt;fs/promises</title>
<path fill="none" stroke="#000000" stroke-dasharray="5,2" stroke-opacity="0.200000" d="M447.01,-238.58C456.14,-235.31 465.59,-230.18 471.5,-222.18 501.82,-181.18 463.09,-154.46 484.5,-108.18 489.27,-97.88 497.73,-88.49 505.41,-81.41"/>
<polygon fill="#000000" fill-opacity="0.200000" stroke="#000000" stroke-opacity="0.200000" points="506.95,-82.85 510.05,-77.3 504.17,-79.7 506.95,-82.85"/>
</g>
<!-- lib/build&#45;pages/page&#45;builders/md/index.js&#45;&gt;fs/promises -->
<g id="edge18" class="edge">
<title>lib/build&#45;pages/page&#45;builders/md/index.js&#45;&gt;fs/promises</title>
<path fill="none" stroke="#000000" stroke-dasharray="5,2" stroke-opacity="0.200000" d="M432.57,-175.02C443.62,-165.83 460.21,-150.84 471.5,-135.18 479.29,-124.37 476.97,-119.16 484.5,-108.18 491.1,-98.56 499.97,-88.98 507.43,-81.61"/>
<polygon fill="#000000" fill-opacity="0.200000" stroke="#000000" stroke-opacity="0.200000" points="509.01,-83.01 511.86,-77.33 506.09,-79.99 509.01,-83.01"/>
</g>
<!-- lib/build&#45;pages/resolve&#45;vars.test.js -->
<g id="node15" class="node">
<title>lib/build&#45;pages/resolve&#45;vars.test.js</title>
<g id="a_node15"><a xlink:href="lib/build-pages/resolve-vars.test.js" xlink:title="resolve&#45;vars.test.js">
<path fill="#ffffcc" stroke="black" d="M460,-443.18C460,-443.18 380,-443.18 380,-443.18 377,-443.18 374,-440.18 374,-437.18 374,-437.18 374,-431.18 374,-431.18 374,-428.18 377,-425.18 380,-425.18 380,-425.18 460,-425.18 460,-425.18 463,-425.18 466,-428.18 466,-431.18 466,-431.18 466,-437.18 466,-437.18 466,-440.18 463,-443.18 460,-443.18"/>
<text text-anchor="middle" x="420" y="-431.98" font-family="Helvetica,sans-Serif" font-size="9.00">resolve&#45;vars.test.js</text>
</a>
</g>
</g>
<!-- lib/build&#45;pages/resolve&#45;vars.test.js&#45;&gt;path -->
<g id="edge20" class="edge">
<title>lib/build&#45;pages/resolve&#45;vars.test.js&#45;&gt;path</title>
<path fill="none" stroke="#000000" stroke-dasharray="5,2" stroke-opacity="0.200000" d="M466.03,-425.38C468.06,-423.89 469.91,-422.17 471.5,-420.18 489.85,-397.25 464.15,-177.35 484.5,-156.18 510.49,-129.14 556.44,-131.12 587.43,-136.46"/>
<polygon fill="#000000" fill-opacity="0.200000" stroke="#000000" stroke-opacity="0.200000" points="587.13,-138.54 593.42,-137.57 587.9,-134.41 587.13,-138.54"/>
</g>
<!-- lib/build&#45;pages/resolve&#45;vars.test.js&#45;&gt;lib/build&#45;pages/resolve&#45;vars.js -->
<g id="edge19" class="edge">
<title>lib/build&#45;pages/resolve&#45;vars.test.js&#45;&gt;lib/build&#45;pages/resolve&#45;vars.js</title>
<path fill="none" stroke="#000000" stroke-width="2" stroke-opacity="0.200000" d="M466.18,-434.18C470.49,-434.18 474.85,-434.18 479.13,-434.18"/>
<polygon fill="#000000" fill-opacity="0.200000" stroke="#000000" stroke-width="2" stroke-opacity="0.200000" points="479.33,-436.28 485.33,-434.18 479.33,-432.08 479.33,-436.28"/>
</g>
<!-- lib/build&#45;static/index.js -->
<g id="node16" class="node">
<title>lib/build&#45;static/index.js</title>
<g id="a_node16"><a xlink:href="lib/build-static/index.js" xlink:title="index.js">
<path fill="#ffffcc" stroke="black" d="M204,-517.18C204,-517.18 162,-517.18 162,-517.18 159,-517.18 156,-514.18 156,-511.18 156,-511.18 156,-505.18 156,-505.18 156,-502.18 159,-499.18 162,-499.18 162,-499.18 204,-499.18 204,-499.18 207,-499.18 210,-502.18 210,-505.18 210,-505.18 210,-511.18 210,-511.18 210,-514.18 207,-517.18 204,-517.18"/>
<text text-anchor="middle" x="183" y="-505.98" font-family="Helvetica,sans-Serif" font-size="9.00">index.js</text>
</a>
</g>
</g>
<!-- util -->
<g id="node17" class="node">
<title>util</title>
<path fill="#ffffcc" stroke="grey" d="M316.5,-715.18C316.5,-715.18 274.5,-715.18 274.5,-715.18 271.5,-715.18 268.5,-712.18 268.5,-709.18 268.5,-709.18 268.5,-703.18 268.5,-703.18 268.5,-700.18 271.5,-697.18 274.5,-697.18 274.5,-697.18 316.5,-697.18 316.5,-697.18 319.5,-697.18 322.5,-700.18 322.5,-703.18 322.5,-703.18 322.5,-709.18 322.5,-709.18 322.5,-712.18 319.5,-715.18 316.5,-715.18"/>
<text text-anchor="middle" x="295.5" y="-703.98" font-family="Helvetica,sans-Serif" font-size="9.00" fill="grey">util</text>
</g>
<!-- lib/build&#45;static/index.js&#45;&gt;util -->
<g id="edge21" class="edge">
<title>lib/build&#45;static/index.js&#45;&gt;util</title>
<path fill="none" stroke="#000000" stroke-dasharray="5,2" stroke-opacity="0.200000" d="M199.38,-517.33C210.32,-524.52 224.69,-535.43 234,-548.18 267.66,-594.27 285.08,-661.41 291.52,-691.1"/>
<polygon fill="#000000" fill-opacity="0.200000" stroke="#000000" stroke-opacity="0.200000" points="289.5,-691.73 292.79,-697.17 293.61,-690.87 289.5,-691.73"/>
</g>
<!-- lib/builder.js -->
<g id="node18" class="node">
<title>lib/builder.js</title>
<g id="a_node18"><a xlink:href="lib/builder.js" xlink:title="builder.js">
<path fill="#ffffcc" stroke="black" d="M88,-435.18C88,-435.18 46,-435.18 46,-435.18 43,-435.18 40,-432.18 40,-429.18 40,-429.18 40,-423.18 40,-423.18 40,-420.18 43,-417.18 46,-417.18 46,-417.18 88,-417.18 88,-417.18 91,-417.18 94,-420.18 94,-423.18 94,-423.18 94,-429.18 94,-429.18 94,-432.18 91,-435.18 88,-435.18"/>
<text text-anchor="middle" x="67" y="-423.98" font-family="Helvetica,sans-Serif" font-size="9.00">builder.js</text>
</a>
</g>
</g>
<!-- lib/builder.js&#45;&gt;fs/promises -->
<g id="edge27" class="edge">
<title>lib/builder.js&#45;&gt;fs/promises</title>
<path fill="none" stroke="#000000" stroke-dasharray="5,2" stroke-opacity="0.200000" d="M69.3,-417.06C76.29,-368.39 110.04,-140.71 132.5,-119.18 231.61,-24.14 415.75,-47.05 489.87,-61.16"/>
<polygon fill="#000000" fill-opacity="0.200000" stroke="#000000" stroke-opacity="0.200000" points="489.56,-63.24 495.85,-62.33 490.36,-59.12 489.56,-63.24"/>
</g>
<!-- lib/builder.js&#45;&gt;lib/build&#45;css/index.js -->
<g id="edge22" class="edge">
<title>lib/builder.js&#45;&gt;lib/build&#45;css/index.js</title>
<path fill="none" stroke="#000000" stroke-width="2" stroke-opacity="0.200000" d="M68.78,-435.32C71.69,-464.16 84.39,-554.36 132.5,-606.18 137.4,-611.46 143.8,-615.54 150.35,-618.68"/>
<polygon fill="#000000" fill-opacity="0.200000" stroke="#000000" stroke-width="2" stroke-opacity="0.200000" points="149.54,-620.62 155.87,-621.1 151.22,-616.77 149.54,-620.62"/>
</g>
<!-- lib/builder.js&#45;&gt;path -->
<g id="edge28" class="edge">
<title>lib/builder.js&#45;&gt;path</title>
<path fill="none" stroke="#000000" stroke-dasharray="5,2" stroke-opacity="0.200000" d="M69.58,-417.14C79.45,-360.85 132.08,-60.59 132.5,-60.18 184.67,-9.42 221.71,-36.18 294.5,-36.18 294.5,-36.18 294.5,-36.18 421,-36.18 494.31,-36.18 527.21,-3.72 585.5,-48.18 610.73,-67.42 617.29,-106.85 618.96,-128.72"/>
<polygon fill="#000000" fill-opacity="0.200000" stroke="#000000" stroke-opacity="0.200000" points="616.88,-129.04 619.34,-134.9 621.07,-128.78 616.88,-129.04"/>
</g>
<!-- lib/builder.js&#45;&gt;lib/build&#45;js/index.js -->
<g id="edge23" class="edge">
<title>lib/builder.js&#45;&gt;lib/build&#45;js/index.js</title>
<path fill="none" stroke="#000000" stroke-width="2" stroke-opacity="0.200000" d="M70.62,-435.28C77.37,-457.2 97.3,-513.52 132.5,-546.18 137.57,-550.88 143.81,-554.7 150.12,-557.75"/>
<polygon fill="#000000" fill-opacity="0.200000" stroke="#000000" stroke-width="2" stroke-opacity="0.200000" points="149.58,-559.8 155.92,-560.34 151.3,-555.97 149.58,-559.8"/>
</g>
<!-- lib/builder.js&#45;&gt;lib/build&#45;pages/index.js -->
<g id="edge24" class="edge">
<title>lib/builder.js&#45;&gt;lib/build&#45;pages/index.js</title>
<path fill="none" stroke="#000000" stroke-width="2" stroke-opacity="0.200000" d="M94.15,-426.18C110.66,-426.18 132.11,-426.18 149.69,-426.18"/>
<polygon fill="#000000" fill-opacity="0.200000" stroke="#000000" stroke-width="2" stroke-opacity="0.200000" points="149.97,-428.28 155.97,-426.18 149.97,-424.08 149.97,-428.28"/>
</g>
<!-- lib/builder.js&#45;&gt;lib/build&#45;static/index.js -->
<g id="edge25" class="edge">
<title>lib/builder.js&#45;&gt;lib/build&#45;static/index.js</title>
<path fill="none" stroke="#000000" stroke-width="2" stroke-opacity="0.200000" d="M75.99,-435.32C87.47,-448.03 109.79,-471.17 132.5,-486.18 138.33,-490.03 144.94,-493.5 151.39,-496.48"/>
<polygon fill="#000000" fill-opacity="0.200000" stroke="#000000" stroke-width="2" stroke-opacity="0.200000" points="150.91,-498.56 157.24,-499.08 152.61,-494.72 150.91,-498.56"/>
</g>
<!-- lib/identify&#45;pages.js -->
<g id="node19" class="node">
<title>lib/identify&#45;pages.js</title>
<g id="a_node19"><a xlink:href="lib/identify-pages.js" xlink:title="identify&#45;pages.js">
<path fill="#ffffcc" stroke="black" d="M218,-143.18C218,-143.18 148,-143.18 148,-143.18 145,-143.18 142,-140.18 142,-137.18 142,-137.18 142,-131.18 142,-131.18 142,-128.18 145,-125.18 148,-125.18 148,-125.18 218,-125.18 218,-125.18 221,-125.18 224,-128.18 224,-131.18 224,-131.18 224,-137.18 224,-137.18 224,-140.18 221,-143.18 218,-143.18"/>
<text text-anchor="middle" x="183" y="-131.98" font-family="Helvetica,sans-Serif" font-size="9.00">identify&#45;pages.js</text>
</a>
</g>
</g>
<!-- lib/builder.js&#45;&gt;lib/identify&#45;pages.js -->
<g id="edge26" class="edge">
<title>lib/builder.js&#45;&gt;lib/identify&#45;pages.js</title>
<path fill="none" stroke="#000000" stroke-width="2" stroke-opacity="0.200000" d="M68.89,-417C73.27,-373.52 93.95,-188.61 132.5,-148.18 133.77,-146.85 135.16,-145.64 136.64,-144.54"/>
<polygon fill="#000000" fill-opacity="0.200000" stroke="#000000" stroke-width="2" stroke-opacity="0.200000" points="137.98,-146.18 141.96,-141.23 135.76,-142.61 137.98,-146.18"/>
</g>
<!-- lib/identify&#45;pages.test.js -->
<g id="node20" class="node">
<title>lib/identify&#45;pages.test.js</title>
<g id="a_node20"><a xlink:href="lib/identify-pages.test.js" xlink:title="identify&#45;pages.test.js">
<path fill="#ffffcc" stroke="black" d="M110.5,-143.18C110.5,-143.18 23.5,-143.18 23.5,-143.18 20.5,-143.18 17.5,-140.18 17.5,-137.18 17.5,-137.18 17.5,-131.18 17.5,-131.18 17.5,-128.18 20.5,-125.18 23.5,-125.18 23.5,-125.18 110.5,-125.18 110.5,-125.18 113.5,-125.18 116.5,-128.18 116.5,-131.18 116.5,-131.18 116.5,-137.18 116.5,-137.18 116.5,-140.18 113.5,-143.18 110.5,-143.18"/>
<text text-anchor="middle" x="67" y="-131.98" font-family="Helvetica,sans-Serif" font-size="9.00">identify&#45;pages.test.js</text>
</a>
</g>
</g>
<!-- lib/identify&#45;pages.test.js&#45;&gt;path -->
<g id="edge30" class="edge">
<title>lib/identify&#45;pages.test.js&#45;&gt;path</title>
<path fill="none" stroke="#000000" stroke-dasharray="5,2" stroke-opacity="0.200000" d="M70.43,-124.94C76.63,-103.39 95.25,-49.82 132.5,-26.18 193.59,12.59 222.15,-10.18 294.5,-10.18 294.5,-10.18 294.5,-10.18 421,-10.18 494.46,-10.18 529.02,20.78 585.5,-26.18 616.2,-51.7 620.18,-103.03 620.1,-128.75"/>
<polygon fill="#000000" fill-opacity="0.200000" stroke="#000000" stroke-opacity="0.200000" points="618,-128.96 620,-134.99 622.2,-129.03 618,-128.96"/>
</g>
<!-- lib/identify&#45;pages.test.js&#45;&gt;lib/identify&#45;pages.js -->
<g id="edge29" class="edge">
<title>lib/identify&#45;pages.test.js&#45;&gt;lib/identify&#45;pages.js</title>
<path fill="none" stroke="#000000" stroke-width="2" stroke-opacity="0.200000" d="M116.68,-134.18C122.94,-134.18 129.34,-134.18 135.57,-134.18"/>
<polygon fill="#000000" fill-opacity="0.200000" stroke="#000000" stroke-width="2" stroke-opacity="0.200000" points="135.72,-136.28 141.72,-134.18 135.72,-132.08 135.72,-136.28"/>
</g>
<!-- test&#45;project/public/a&#45;page/client.js -->
<g id="node21" class="node">
<title>test&#45;project/public/a&#45;page/client.js</title>
<g id="a_node21"><a xlink:href="test-project/public/a-page/client.js" xlink:title="client.js">
<path fill="#ffffcc" stroke="black" d="M88,-1433.18C88,-1433.18 46,-1433.18 46,-1433.18 43,-1433.18 40,-1430.18 40,-1427.18 40,-1427.18 40,-1421.18 40,-1421.18 40,-1418.18 43,-1415.18 46,-1415.18 46,-1415.18 88,-1415.18 88,-1415.18 91,-1415.18 94,-1418.18 94,-1421.18 94,-1421.18 94,-1427.18 94,-1427.18 94,-1430.18 91,-1433.18 88,-1433.18"/>
<text text-anchor="middle" x="67" y="-1421.98" font-family="Helvetica,sans-Serif" font-size="9.00">client.js</text>
</a>
</g>
</g>
<!-- test&#45;project/public/chunk&#45;OFR2H3GI.js -->
<g id="node22" class="node">
<title>test&#45;project/public/chunk&#45;OFR2H3GI.js</title>
<g id="a_node22"><a xlink:href="test-project/public/chunk-OFR2H3GI.js" xlink:title="chunk&#45;OFR2H3GI.js">
<path fill="#ffffcc" stroke="black" d="M338.5,-1461.18C338.5,-1461.18 252.5,-1461.18 252.5,-1461.18 249.5,-1461.18 246.5,-1458.18 246.5,-1455.18 246.5,-1455.18 246.5,-1449.18 246.5,-1449.18 246.5,-1446.18 249.5,-1443.18 252.5,-1443.18 252.5,-1443.18 338.5,-1443.18 338.5,-1443.18 341.5,-1443.18 344.5,-1446.18 344.5,-1449.18 344.5,-1449.18 344.5,-1455.18 344.5,-1455.18 344.5,-1458.18 341.5,-1461.18 338.5,-1461.18"/>
<text text-anchor="middle" x="295.5" y="-1449.98" font-family="Helvetica,sans-Serif" font-size="9.00">chunk&#45;OFR2H3GI.js</text>
</a>
</g>
</g>
<!-- test&#45;project/public/a&#45;page/client.js&#45;&gt;test&#45;project/public/chunk&#45;OFR2H3GI.js -->
<g id="edge31" class="edge">
<title>test&#45;project/public/a&#45;page/client.js&#45;&gt;test&#45;project/public/chunk&#45;OFR2H3GI.js</title>
<path fill="none" stroke="#000000" stroke-width="2" stroke-opacity="0.200000" d="M94.25,-1427.74C102.03,-1429.8 110.17,-1433.05 116.5,-1438.18 128.24,-1447.69 119.54,-1460.4 132.5,-1468.18 171.18,-1491.39 189.27,-1473.99 234,-1468.18 242.75,-1467.04 252.05,-1465.01 260.65,-1462.78"/>
<polygon fill="#000000" fill-opacity="0.200000" stroke="#000000" stroke-width="2" stroke-opacity="0.200000" points="261.24,-1464.79 266.48,-1461.2 260.14,-1460.74 261.24,-1464.79"/>
</g>
<!-- test&#45;project/public/chunk&#45;OWLKZ7N7.js -->
<g id="node23" class="node">
<title>test&#45;project/public/chunk&#45;OWLKZ7N7.js</title>
<g id="a_node23"><a xlink:href="test-project/public/chunk-OWLKZ7N7.js" xlink:title="chunk&#45;OWLKZ7N7.js">
<path fill="#ffffcc" stroke="black" d="M227.5,-1505.18C227.5,-1505.18 138.5,-1505.18 138.5,-1505.18 135.5,-1505.18 132.5,-1502.18 132.5,-1499.18 132.5,-1499.18 132.5,-1493.18 132.5,-1493.18 132.5,-1490.18 135.5,-1487.18 138.5,-1487.18 138.5,-1487.18 227.5,-1487.18 227.5,-1487.18 230.5,-1487.18 233.5,-1490.18 233.5,-1493.18 233.5,-1493.18 233.5,-1499.18 233.5,-1499.18 233.5,-1502.18 230.5,-1505.18 227.5,-1505.18"/>
<text text-anchor="middle" x="183" y="-1493.98" font-family="Helvetica,sans-Serif" font-size="9.00">chunk&#45;OWLKZ7N7.js</text>
</a>
</g>
</g>
<!-- test&#45;project/public/a&#45;page/client.js&#45;&gt;test&#45;project/public/chunk&#45;OWLKZ7N7.js -->
<g id="edge32" class="edge">
<title>test&#45;project/public/a&#45;page/client.js&#45;&gt;test&#45;project/public/chunk&#45;OWLKZ7N7.js</title>
<path fill="none" stroke="#000000" stroke-width="2" stroke-opacity="0.200000" d="M94.1,-1427.2C102.06,-1429.22 110.33,-1432.59 116.5,-1438.18 130.7,-1451.03 118.75,-1464.86 132.5,-1478.18 134.88,-1480.49 137.58,-1482.5 140.46,-1484.26"/>
<polygon fill="#000000" fill-opacity="0.200000" stroke="#000000" stroke-width="2" stroke-opacity="0.200000" points="139.53,-1486.14 145.81,-1487.15 141.53,-1482.45 139.53,-1486.14"/>
</g>
<!-- test&#45;project/public/chunk&#45;OWLKZ7N7.js&#45;&gt;test&#45;project/public/chunk&#45;OFR2H3GI.js -->
<g id="edge35" class="edge">
<title>test&#45;project/public/chunk&#45;OWLKZ7N7.js&#45;&gt;test&#45;project/public/chunk&#45;OFR2H3GI.js</title>
<path fill="none" stroke="#000000" stroke-width="2" stroke-opacity="0.200000" d="M210.06,-1487.13C217.8,-1484.36 226.28,-1481.23 234,-1478.18 245.4,-1473.68 257.85,-1468.4 268.48,-1463.77"/>
<polygon fill="#000000" fill-opacity="0.200000" stroke="#000000" stroke-width="2" stroke-opacity="0.200000" points="269.53,-1465.6 274.18,-1461.27 267.85,-1461.75 269.53,-1465.6"/>
</g>
<!-- test&#45;project/public/a&#45;page/nested&#45;page/client.js -->
<g id="node24" class="node">
<title>test&#45;project/public/a&#45;page/nested&#45;page/client.js</title>
<g id="a_node24"><a xlink:href="test-project/public/a-page/nested-page/client.js" xlink:title="client.js">
<path fill="#ffffcc" stroke="black" d="M88,-1467.18C88,-1467.18 46,-1467.18 46,-1467.18 43,-1467.18 40,-1464.18 40,-1461.18 40,-1461.18 40,-1455.18 40,-1455.18 40,-1452.18 43,-1449.18 46,-1449.18 46,-1449.18 88,-1449.18 88,-1449.18 91,-1449.18 94,-1452.18 94,-1455.18 94,-1455.18 94,-1461.18 94,-1461.18 94,-1464.18 91,-1467.18 88,-1467.18"/>
<text text-anchor="middle" x="67" y="-1455.98" font-family="Helvetica,sans-Serif" font-size="9.00">client.js</text>
</a>
</g>
</g>
<!-- test&#45;project/public/a&#45;page/nested&#45;page/client.js&#45;&gt;test&#45;project/public/chunk&#45;OFR2H3GI.js -->
<g id="edge33" class="edge">
<title>test&#45;project/public/a&#45;page/nested&#45;page/client.js&#45;&gt;test&#45;project/public/chunk&#45;OFR2H3GI.js</title>
<path fill="none" stroke="#000000" stroke-width="2" stroke-opacity="0.200000" d="M75.55,-1467.52C86.52,-1480.25 108.21,-1502.48 132.5,-1511.18 174.97,-1526.39 192.22,-1528.18 234,-1511.18 256.03,-1502.22 274.42,-1480.95 284.94,-1466.55"/>
<polygon fill="#000000" fill-opacity="0.200000" stroke="#000000" stroke-width="2" stroke-opacity="0.200000" points="286.7,-1467.71 288.46,-1461.6 283.27,-1465.28 286.7,-1467.71"/>
</g>
<!-- test&#45;project/public/a&#45;page/nested&#45;page/client.js&#45;&gt;test&#45;project/public/chunk&#45;OWLKZ7N7.js -->
<g id="edge34" class="edge">
<title>test&#45;project/public/a&#45;page/nested&#45;page/client.js&#45;&gt;test&#45;project/public/chunk&#45;OWLKZ7N7.js</title>
<path fill="none" stroke="#000000" stroke-width="2" stroke-opacity="0.200000" d="M94.15,-1466.9C110.45,-1472.33 131.57,-1479.37 149.02,-1485.18"/>
<polygon fill="#000000" fill-opacity="0.200000" stroke="#000000" stroke-width="2" stroke-opacity="0.200000" points="148.42,-1487.2 154.78,-1487.1 149.75,-1483.22 148.42,-1487.2"/>
</g>
<!-- test&#45;project/public/client.js -->
<g id="node25" class="node">
<title>test&#45;project/public/client.js</title>
<g id="a_node25"><a xlink:href="test-project/public/client.js" xlink:title="client.js">
<path fill="#ffffcc" stroke="black" d="M204,-1345.18C204,-1345.18 162,-1345.18 162,-1345.18 159,-1345.18 156,-1342.18 156,-1339.18 156,-1339.18 156,-1333.18 156,-1333.18 156,-1330.18 159,-1327.18 162,-1327.18 162,-1327.18 204,-1327.18 204,-1327.18 207,-1327.18 210,-1330.18 210,-1333.18 210,-1333.18 210,-1339.18 210,-1339.18 210,-1342.18 207,-1345.18 204,-1345.18"/>
<text text-anchor="middle" x="183" y="-1333.98" font-family="Helvetica,sans-Serif" font-size="9.00">client.js</text>
</a>
</g>
</g>
<!-- test&#45;project/public/client.js&#45;&gt;test&#45;project/public/chunk&#45;OFR2H3GI.js -->
<g id="edge36" class="edge">
<title>test&#45;project/public/client.js&#45;&gt;test&#45;project/public/chunk&#45;OFR2H3GI.js</title>
<path fill="none" stroke="#000000" stroke-width="2" stroke-opacity="0.200000" d="M210.13,-1339.58C218.39,-1341.63 227.13,-1344.91 234,-1350.18 263.72,-1372.97 281.75,-1414.87 289.7,-1437.22"/>
<polygon fill="#000000" fill-opacity="0.200000" stroke="#000000" stroke-width="2" stroke-opacity="0.200000" points="287.74,-1437.98 291.67,-1442.97 291.71,-1436.61 287.74,-1437.98"/>
</g>
<!-- test&#45;project/public/html&#45;page/client.js -->
<g id="node26" class="node">
<title>test&#45;project/public/html&#45;page/client.js</title>
<g id="a_node26"><a xlink:href="test-project/public/html-page/client.js" xlink:title="client.js">
<path fill="#ffffcc" stroke="black" d="M204,-1439.18C204,-1439.18 162,-1439.18 162,-1439.18 159,-1439.18 156,-1436.18 156,-1433.18 156,-1433.18 156,-1427.18 156,-1427.18 156,-1424.18 159,-1421.18 162,-1421.18 162,-1421.18 204,-1421.18 204,-1421.18 207,-1421.18 210,-1424.18 210,-1427.18 210,-1427.18 210,-1433.18 210,-1433.18 210,-1436.18 207,-1439.18 204,-1439.18"/>
<text text-anchor="middle" x="183" y="-1427.98" font-family="Helvetica,sans-Serif" font-size="9.00">client.js</text>
</a>
</g>
</g>
<!-- test&#45;project/public/html&#45;page/client.js&#45;&gt;test&#45;project/public/chunk&#45;OFR2H3GI.js -->
<g id="edge37" class="edge">
<title>test&#45;project/public/html&#45;page/client.js&#45;&gt;test&#45;project/public/chunk&#45;OFR2H3GI.js</title>
<path fill="none" stroke="#000000" stroke-width="2" stroke-opacity="0.200000" d="M210.19,-1435.39C220.08,-1437.36 231.71,-1439.68 243.11,-1441.95"/>
<polygon fill="#000000" fill-opacity="0.200000" stroke="#000000" stroke-width="2" stroke-opacity="0.200000" points="242.76,-1444.02 249.05,-1443.13 243.58,-1439.9 242.76,-1444.02"/>
</g>
<!-- test&#45;project/public/md&#45;page/client.js -->
<g id="node27" class="node">
<title>test&#45;project/public/md&#45;page/client.js</title>
<g id="a_node27"><a xlink:href="test-project/public/md-page/client.js" xlink:title="client.js">
<path fill="#ffffcc" stroke="black" d="M204,-1379.18C204,-1379.18 162,-1379.18 162,-1379.18 159,-1379.18 156,-1376.18 156,-1373.18 156,-1373.18 156,-1367.18 156,-1367.18 156,-1364.18 159,-1361.18 162,-1361.18 162,-1361.18 204,-1361.18 204,-1361.18 207,-1361.18 210,-1364.18 210,-1367.18 210,-1367.18 210,-1373.18 210,-1373.18 210,-1376.18 207,-1379.18 204,-1379.18"/>
<text text-anchor="middle" x="183" y="-1367.98" font-family="Helvetica,sans-Serif" font-size="9.00">client.js</text>
</a>
</g>
</g>
<!-- test&#45;project/public/md&#45;page/client.js&#45;&gt;test&#45;project/public/chunk&#45;OFR2H3GI.js -->
<g id="edge38" class="edge">
<title>test&#45;project/public/md&#45;page/client.js&#45;&gt;test&#45;project/public/chunk&#45;OFR2H3GI.js</title>
<path fill="none" stroke="#000000" stroke-width="2" stroke-opacity="0.200000" d="M196.25,-1379.27C215.91,-1393.86 254.59,-1422.57 277.11,-1439.28"/>
<polygon fill="#000000" fill-opacity="0.200000" stroke="#000000" stroke-width="2" stroke-opacity="0.200000" points="276.13,-1441.16 282.2,-1443.05 278.63,-1437.79 276.13,-1441.16"/>
</g>
<!-- test&#45;project/src/a&#45;page/client.js -->
<g id="node28" class="node">
<title>test&#45;project/src/a&#45;page/client.js</title>
<g id="a_node28"><a xlink:href="test-project/src/a-page/client.js" xlink:title="client.js">
<path fill="#ffffcc" stroke="black" d="M88,-1259.18C88,-1259.18 46,-1259.18 46,-1259.18 43,-1259.18 40,-1256.18 40,-1253.18 40,-1253.18 40,-1247.18 40,-1247.18 40,-1244.18 43,-1241.18 46,-1241.18 46,-1241.18 88,-1241.18 88,-1241.18 91,-1241.18 94,-1244.18 94,-1247.18 94,-1247.18 94,-1253.18 94,-1253.18 94,-1256.18 91,-1259.18 88,-1259.18"/>
<text text-anchor="middle" x="67" y="-1247.98" font-family="Helvetica,sans-Serif" font-size="9.00">client.js</text>
</a>
</g>
</g>
<!-- test&#45;project/src/a&#45;page/libs/a&#45;lib.js -->
<g id="node29" class="node">
<title>test&#45;project/src/a&#45;page/libs/a&#45;lib.js</title>
<g id="a_node29"><a xlink:href="test-project/src/a-page/libs/a-lib.js" xlink:title="a&#45;lib.js">
<path fill="#ffffcc" stroke="black" d="M204,-1207.18C204,-1207.18 162,-1207.18 162,-1207.18 159,-1207.18 156,-1204.18 156,-1201.18 156,-1201.18 156,-1195.18 156,-1195.18 156,-1192.18 159,-1189.18 162,-1189.18 162,-1189.18 204,-1189.18 204,-1189.18 207,-1189.18 210,-1192.18 210,-1195.18 210,-1195.18 210,-1201.18 210,-1201.18 210,-1204.18 207,-1207.18 204,-1207.18"/>
<text text-anchor="middle" x="183" y="-1195.98" font-family="Helvetica,sans-Serif" font-size="9.00">a&#45;lib.js</text>
</a>
</g>
</g>
<!-- test&#45;project/src/a&#45;page/client.js&#45;&gt;test&#45;project/src/a&#45;page/libs/a&#45;lib.js -->
<g id="edge39" class="edge">
<title>test&#45;project/src/a&#45;page/client.js&#45;&gt;test&#45;project/src/a&#45;page/libs/a&#45;lib.js</title>
<path fill="none" stroke="#000000" stroke-width="2" stroke-opacity="0.200000" d="M94.08,-1243.92C101.46,-1241.81 109.41,-1239.21 116.5,-1236.18 133.01,-1229.14 150.53,-1218.8 163.3,-1210.68"/>
<polygon fill="#000000" fill-opacity="0.200000" stroke="#000000" stroke-width="2" stroke-opacity="0.200000" points="164.55,-1212.37 168.46,-1207.36 162.28,-1208.84 164.55,-1212.37"/>
</g>
<!-- test&#45;project/src/a&#45;page/nested&#45;page/client.js -->
<g id="node30" class="node">
<title>test&#45;project/src/a&#45;page/nested&#45;page/client.js</title>
<g id="a_node30"><a xlink:href="test-project/src/a-page/nested-page/client.js" xlink:title="client.js">
<path fill="#ffffcc" stroke="black" d="M88,-1207.18C88,-1207.18 46,-1207.18 46,-1207.18 43,-1207.18 40,-1204.18 40,-1201.18 40,-1201.18 40,-1195.18 40,-1195.18 40,-1192.18 43,-1189.18 46,-1189.18 46,-1189.18 88,-1189.18 88,-1189.18 91,-1189.18 94,-1192.18 94,-1195.18 94,-1195.18 94,-1201.18 94,-1201.18 94,-1204.18 91,-1207.18 88,-1207.18"/>
<text text-anchor="middle" x="67" y="-1195.98" font-family="Helvetica,sans-Serif" font-size="9.00">client.js</text>
</a>
</g>
</g>
<!-- test&#45;project/src/a&#45;page/nested&#45;page/client.js&#45;&gt;test&#45;project/src/a&#45;page/libs/a&#45;lib.js -->
<g id="edge40" class="edge">
<title>test&#45;project/src/a&#45;page/nested&#45;page/client.js&#45;&gt;test&#45;project/src/a&#45;page/libs/a&#45;lib.js</title>
<path fill="none" stroke="#000000" stroke-width="2" stroke-opacity="0.200000" d="M94.15,-1198.18C110.66,-1198.18 132.11,-1198.18 149.69,-1198.18"/>
<polygon fill="#000000" fill-opacity="0.200000" stroke="#000000" stroke-width="2" stroke-opacity="0.200000" points="149.97,-1200.28 155.97,-1198.18 149.97,-1196.08 149.97,-1200.28"/>
</g>
<!-- test&#45;project/src/a&#45;page/nested&#45;page/page.js -->
<g id="node31" class="node">
<title>test&#45;project/src/a&#45;page/nested&#45;page/page.js</title>
<g id="a_node31"><a xlink:href="test-project/src/a-page/nested-page/page.js" xlink:title="page.js">
<path fill="#ffffcc" stroke="black" d="M88,-1177.18C88,-1177.18 46,-1177.18 46,-1177.18 43,-1177.18 40,-1174.18 40,-1171.18 40,-1171.18 40,-1165.18 40,-1165.18 40,-1162.18 43,-1159.18 46,-1159.18 46,-1159.18 88,-1159.18 88,-1159.18 91,-1159.18 94,-1162.18 94,-1165.18 94,-1165.18 94,-1171.18 94,-1171.18 94,-1174.18 91,-1177.18 88,-1177.18"/>
<text text-anchor="middle" x="67" y="-1165.98" font-family="Helvetica,sans-Serif" font-size="9.00">page.js</text>
</a>
</g>
</g>
<!-- test&#45;project/src/nav.js -->
<g id="node32" class="node">
<title>test&#45;project/src/nav.js</title>
<g id="a_node32"><a xlink:href="test-project/src/nav.js" xlink:title="nav.js">
<path fill="#ffffcc" stroke="black" d="M204,-1109.18C204,-1109.18 162,-1109.18 162,-1109.18 159,-1109.18 156,-1106.18 156,-1103.18 156,-1103.18 156,-1097.18 156,-1097.18 156,-1094.18 159,-1091.18 162,-1091.18 162,-1091.18 204,-1091.18 204,-1091.18 207,-1091.18 210,-1094.18 210,-1097.18 210,-1097.18 210,-1103.18 210,-1103.18 210,-1106.18 207,-1109.18 204,-1109.18"/>
<text text-anchor="middle" x="183" y="-1097.98" font-family="Helvetica,sans-Serif" font-size="9.00">nav.js</text>
</a>
</g>
</g>
<!-- test&#45;project/src/a&#45;page/nested&#45;page/page.js&#45;&gt;test&#45;project/src/nav.js -->
<g id="edge41" class="edge">
<title>test&#45;project/src/a&#45;page/nested&#45;page/page.js&#45;&gt;test&#45;project/src/nav.js</title>
<path fill="none" stroke="#000000" stroke-width="2" stroke-opacity="0.200000" d="M94.21,-1163.38C101.66,-1161.43 109.62,-1158.76 116.5,-1155.18 137.14,-1144.43 157.06,-1126.22 169.41,-1113.72"/>
<polygon fill="#000000" fill-opacity="0.200000" stroke="#000000" stroke-width="2" stroke-opacity="0.200000" points="170.93,-1115.17 173.6,-1109.4 167.91,-1112.24 170.93,-1115.17"/>
</g>
<!-- test&#45;project/src/a&#45;page/page.js -->
<g id="node33" class="node">
<title>test&#45;project/src/a&#45;page/page.js</title>
<g id="a_node33"><a xlink:href="test-project/src/a-page/page.js" xlink:title="page.js">
<path fill="#ffffcc" stroke="black" d="M88,-1143.18C88,-1143.18 46,-1143.18 46,-1143.18 43,-1143.18 40,-1140.18 40,-1137.18 40,-1137.18 40,-1131.18 40,-1131.18 40,-1128.18 43,-1125.18 46,-1125.18 46,-1125.18 88,-1125.18 88,-1125.18 91,-1125.18 94,-1128.18 94,-1131.18 94,-1131.18 94,-1137.18 94,-1137.18 94,-1140.18 91,-1143.18 88,-1143.18"/>
<text text-anchor="middle" x="67" y="-1131.98" font-family="Helvetica,sans-Serif" font-size="9.00">page.js</text>
</a>
</g>
</g>
<!-- test&#45;project/src/a&#45;page/page.js&#45;&gt;test&#45;project/src/a&#45;page/libs/a&#45;lib.js -->
<g id="edge43" class="edge">
<title>test&#45;project/src/a&#45;page/page.js&#45;&gt;test&#45;project/src/a&#45;page/libs/a&#45;lib.js</title>
<path fill="none" stroke="#000000" stroke-width="2" stroke-opacity="0.200000" d="M94,-1137.3C101.96,-1139.33 110.25,-1142.68 116.5,-1148.18 129.95,-1160.02 118.91,-1173.5 132.5,-1185.18 137.35,-1189.35 143.39,-1192.2 149.56,-1194.15"/>
<polygon fill="#000000" fill-opacity="0.200000" stroke="#000000" stroke-width="2" stroke-opacity="0.200000" points="149.4,-1196.28 155.74,-1195.81 150.49,-1192.22 149.4,-1196.28"/>
</g>
<!-- test&#45;project/src/a&#45;page/page.js&#45;&gt;test&#45;project/src/nav.js -->
<g id="edge42" class="edge">
<title>test&#45;project/src/a&#45;page/page.js&#45;&gt;test&#45;project/src/nav.js</title>
<path fill="none" stroke="#000000" stroke-width="2" stroke-opacity="0.200000" d="M94.15,-1126.38C110.81,-1121.41 132.49,-1114.94 150.15,-1109.68"/>
<polygon fill="#000000" fill-opacity="0.200000" stroke="#000000" stroke-width="2" stroke-opacity="0.200000" points="150.82,-1111.67 155.97,-1107.94 149.62,-1107.65 150.82,-1111.67"/>
</g>
<!-- test&#45;project/src/client.js -->
<g id="node34" class="node">
<title>test&#45;project/src/client.js</title>
<g id="a_node34"><a xlink:href="test-project/src/client.js" xlink:title="client.js">
<path fill="#ccffcc" stroke="black" d="M88,-899.18C88,-899.18 46,-899.18 46,-899.18 43,-899.18 40,-896.18 40,-893.18 40,-893.18 40,-887.18 40,-887.18 40,-884.18 43,-881.18 46,-881.18 46,-881.18 88,-881.18 88,-881.18 91,-881.18 94,-884.18 94,-887.18 94,-887.18 94,-893.18 94,-893.18 94,-896.18 91,-899.18 88,-899.18"/>
<text text-anchor="middle" x="67" y="-887.98" font-family="Helvetica,sans-Serif" font-size="9.00">client.js</text>
</a>
</g>
</g>
<!-- test&#45;project/src/conflict&#45;page/page.js -->
<g id="node35" class="node">
<title>test&#45;project/src/conflict&#45;page/page.js</title>
<g id="a_node35"><a xlink:href="test-project/src/conflict-page/page.js" xlink:title="page.js">
<path fill="#ccffcc" stroke="black" d="M88,-1083.18C88,-1083.18 46,-1083.18 46,-1083.18 43,-1083.18 40,-1080.18 40,-1077.18 40,-1077.18 40,-1071.18 40,-1071.18 40,-1068.18 43,-1065.18 46,-1065.18 46,-1065.18 88,-1065.18 88,-1065.18 91,-1065.18 94,-1068.18 94,-1071.18 94,-1071.18 94,-1077.18 94,-1077.18 94,-1080.18 91,-1083.18 88,-1083.18"/>
<text text-anchor="middle" x="67" y="-1071.98" font-family="Helvetica,sans-Serif" font-size="9.00">page.js</text>
</a>
</g>
</g>
<!-- test&#45;project/src/global.vars.js -->
<g id="node36" class="node">
<title>test&#45;project/src/global.vars.js</title>
<g id="a_node36"><a xlink:href="test-project/src/global.vars.js" xlink:title="global.vars.js">
<path fill="#ccffcc" stroke="black" d="M95.5,-869.18C95.5,-869.18 38.5,-869.18 38.5,-869.18 35.5,-869.18 32.5,-866.18 32.5,-863.18 32.5,-863.18 32.5,-857.18 32.5,-857.18 32.5,-854.18 35.5,-851.18 38.5,-851.18 38.5,-851.18 95.5,-851.18 95.5,-851.18 98.5,-851.18 101.5,-854.18 101.5,-857.18 101.5,-857.18 101.5,-863.18 101.5,-863.18 101.5,-866.18 98.5,-869.18 95.5,-869.18"/>
<text text-anchor="middle" x="67" y="-857.98" font-family="Helvetica,sans-Serif" font-size="9.00">global.vars.js</text>
</a>
</g>
</g>
<!-- test&#45;project/src/html&#45;page/client.js -->
<g id="node37" class="node">
<title>test&#45;project/src/html&#45;page/client.js</title>
<g id="a_node37"><a xlink:href="test-project/src/html-page/client.js" xlink:title="client.js">
<path fill="#ccffcc" stroke="black" d="M88,-1023.18C88,-1023.18 46,-1023.18 46,-1023.18 43,-1023.18 40,-1020.18 40,-1017.18 40,-1017.18 40,-1011.18 40,-1011.18 40,-1008.18 43,-1005.18 46,-1005.18 46,-1005.18 88,-1005.18 88,-1005.18 91,-1005.18 94,-1008.18 94,-1011.18 94,-1011.18 94,-1017.18 94,-1017.18 94,-1020.18 91,-1023.18 88,-1023.18"/>
<text text-anchor="middle" x="67" y="-1011.98" font-family="Helvetica,sans-Serif" font-size="9.00">client.js</text>
</a>
</g>
</g>
<!-- test&#45;project/src/html&#45;page/page.vars.js -->
<g id="node38" class="node">
<title>test&#45;project/src/html&#45;page/page.vars.js</title>
<g id="a_node38"><a xlink:href="test-project/src/html-page/page.vars.js" xlink:title="page.vars.js">
<path fill="#ccffcc" stroke="black" d="M93.5,-993.18C93.5,-993.18 40.5,-993.18 40.5,-993.18 37.5,-993.18 34.5,-990.18 34.5,-987.18 34.5,-987.18 34.5,-981.18 34.5,-981.18 34.5,-978.18 37.5,-975.18 40.5,-975.18 40.5,-975.18 93.5,-975.18 93.5,-975.18 96.5,-975.18 99.5,-978.18 99.5,-981.18 99.5,-981.18 99.5,-987.18 99.5,-987.18 99.5,-990.18 96.5,-993.18 93.5,-993.18"/>
<text text-anchor="middle" x="67" y="-981.98" font-family="Helvetica,sans-Serif" font-size="9.00">page.vars.js</text>
</a>
</g>
</g>
<!-- test&#45;project/src/md&#45;page/client.js -->
<g id="node39" class="node">
<title>test&#45;project/src/md&#45;page/client.js</title>
<g id="a_node39"><a xlink:href="test-project/src/md-page/client.js" xlink:title="client.js">
<path fill="#ccffcc" stroke="black" d="M88,-933.18C88,-933.18 46,-933.18 46,-933.18 43,-933.18 40,-930.18 40,-927.18 40,-927.18 40,-921.18 40,-921.18 40,-918.18 43,-915.18 46,-915.18 46,-915.18 88,-915.18 88,-915.18 91,-915.18 94,-918.18 94,-921.18 94,-921.18 94,-927.18 94,-927.18 94,-930.18 91,-933.18 88,-933.18"/>
<text text-anchor="middle" x="67" y="-921.98" font-family="Helvetica,sans-Serif" font-size="9.00">client.js</text>
</a>
</g>
</g>
<!-- test&#45;project/src/page.js -->
<g id="node40" class="node">
<title>test&#45;project/src/page.js</title>
<g id="a_node40"><a xlink:href="test-project/src/page.js" xlink:title="page.js">
<path fill="#ffffcc" stroke="black" d="M88,-839.18C88,-839.18 46,-839.18 46,-839.18 43,-839.18 40,-836.18 40,-833.18 40,-833.18 40,-827.18 40,-827.18 40,-824.18 43,-821.18 46,-821.18 46,-821.18 88,-821.18 88,-821.18 91,-821.18 94,-824.18 94,-827.18 94,-827.18 94,-833.18 94,-833.18 94,-836.18 91,-839.18 88,-839.18"/>
<text text-anchor="middle" x="67" y="-827.98" font-family="Helvetica,sans-Serif" font-size="9.00">page.js</text>
</a>
</g>
</g>
<!-- test&#45;project/src/page.js&#45;&gt;test&#45;project/src/nav.js -->
<g id="edge44" class="edge">
<title>test&#45;project/src/page.js&#45;&gt;test&#45;project/src/nav.js</title>
<path fill="none" stroke="#000000" stroke-width="2" stroke-opacity="0.200000" d="M94.06,-833.19C102.21,-835.34 110.6,-838.99 116.5,-845.18 150.29,-880.65 173.42,-1035.53 180.05,-1084.96"/>
<polygon fill="#000000" fill-opacity="0.200000" stroke="#000000" stroke-width="2" stroke-opacity="0.200000" points="177.97,-1085.29 180.84,-1090.96 182.14,-1084.74 177.97,-1085.29"/>
</g>
<!-- test&#45;project/src/root.layout.js -->
<g id="node41" class="node">
<title>test&#45;project/src/root.layout.js</title>
<g id="a_node41"><a xlink:href="test-project/src/root.layout.js" xlink:title="root.layout.js">
<path fill="#ccffcc" stroke="black" d="M95,-809.18C95,-809.18 39,-809.18 39,-809.18 36,-809.18 33,-806.18 33,-803.18 33,-803.18 33,-797.18 33,-797.18 33,-794.18 36,-791.18 39,-791.18 39,-791.18 95,-791.18 95,-791.18 98,-791.18 101,-794.18 101,-797.18 101,-797.18 101,-803.18 101,-803.18 101,-806.18 98,-809.18 95,-809.18"/>
<text text-anchor="middle" x="67" y="-797.98" font-family="Helvetica,sans-Serif" font-size="9.00">root.layout.js</text>
</a>
</g>
</g>
</g>
</svg>
