<svg height="3188pt" viewBox="0 0 911.12 3187.87" width="911pt" xmlns="http://www.w3.org/2000/svg" xmlns:xlink="http://www.w3.org/1999/xlink"><g transform="translate(4 3183.87)"><path d="m-4 4v-3187.87h911.12v3187.87z" fill="#fff"/><path d="m17-196h304.38c6 0 12-6 12-12v-2354c0-6-6-12-12-12h-304.38c-6 0-12 6-12 12v2354c0 6 6 12 12 12" fill="#fff" stroke="#000" stroke-width="2"/><text font-family="Helvetica,sans-Serif" font-size="9" font-weight="bold" text-anchor="middle" x="169.19" y="-2561.45">test-cases</text><path d="m57.75-2012h114c6 0 12-6 12-12v-238c0-6-6-12-12-12h-114c-6 0-12 6-12 12v238c0 6 6 12 12 12" fill="#fff" stroke="#000" stroke-width="2"/><text font-family="Helvetica,sans-Serif" font-size="9" font-weight="bold" text-anchor="middle" x="114.75" y="-2261.45">page-build-errors</text><path d="m68.75-2196h92c6 0 12-6 12-12v-28c0-6-6-12-12-12h-92c-6 0-12 6-12 12v28c0 6 6 12 12 12" fill="#fff" stroke="#000" stroke-width="2"/><text font-family="Helvetica,sans-Serif" font-size="9" font-weight="bold" text-anchor="middle" x="114.75" y="-2235.45">public</text><path d="m65.75-2046h98c6 0 12-6 12-12v-118c0-6-6-12-12-12h-98c-6 0-12 6-12 12v118c0 6 6 12 12 12" fill="#fff" stroke="#000" stroke-width="2"/><text font-family="Helvetica,sans-Serif" font-size="9" font-weight="bold" text-anchor="middle" x="114.75" y="-2175.45">src</text><path d="m73.75-2110h82c6 0 12-6 12-12v-28c0-6-6-12-12-12h-82c-6 0-12 6-12 12v28c0 6 6 12 12 12" fill="#fff" stroke="#000" stroke-width="2"/><text font-family="Helvetica,sans-Serif" font-size="9" font-weight="bold" text-anchor="middle" x="114.75" y="-2149.45">another-broken-page</text><path d="m55.75-2282h118c6 0 12-6 12-12v-242c0-6-6-12-12-12h-118c-6 0-12 6-12 12v242c0 6 6 12 12 12" fill="#fff" stroke="#000" stroke-width="2"/><text font-family="Helvetica,sans-Serif" font-size="9" font-weight="bold" text-anchor="middle" x="114.75" y="-2535.45">nested-dest</text><path d="m63.75-2436h102c6 0 12-6 12-12v-62c0-6-6-12-12-12h-102c-6 0-12 6-12 12v62c0 6 6 12 12 12" fill="#fff" stroke="#000" stroke-width="2"/><text font-family="Helvetica,sans-Serif" font-size="9" font-weight="bold" text-anchor="middle" x="114.75" y="-2509.45">public</text><path d="m71.75-2444h86c6 0 12-6 12-12v-28c0-6-6-12-12-12h-86c-6 0-12 6-12 12v28c0 6 6 12 12 12" fill="#fff" stroke="#000" stroke-width="2"/><text font-family="Helvetica,sans-Serif" font-size="9" font-weight="bold" text-anchor="middle" x="114.75" y="-2483.45">md-page</text><path d="m86-2346h57.5c6 0 12-6 12-12v-58c0-6-6-12-12-12h-57.5c-6 0-12 6-12 12v58c0 6 6 12 12 12" fill="#fff" stroke="#000" stroke-width="2"/><text font-family="Helvetica,sans-Serif" font-size="9" font-weight="bold" text-anchor="middle" x="114.75" y="-2415.45">md-page</text><path d="m57.75-1832h114c6 0 12-6 12-12v-148c0-6-6-12-12-12h-114c-6 0-12 6-12 12v148c0 6 6 12 12 12" fill="#fff" stroke="#000" stroke-width="2"/><text font-family="Helvetica,sans-Serif" font-size="9" font-weight="bold" text-anchor="middle" x="114.75" y="-1991.45">build-errors</text><path d="m65.75-1866h98c6 0 12-6 12-12v-88c0-6-6-12-12-12h-98c-6 0-12 6-12 12v88c0 6 6 12 12 12" fill="#fff" stroke="#000" stroke-width="2"/><text font-family="Helvetica,sans-Serif" font-size="9" font-weight="bold" text-anchor="middle" x="114.75" y="-1965.45">src</text><path d="m73.75-1900h82c6 0 12-6 12-12v-28c0-6-6-12-12-12h-82c-6 0-12 6-12 12v28c0 6 6 12 12 12" fill="#fff" stroke="#000" stroke-width="2"/><text font-family="Helvetica,sans-Serif" font-size="9" font-weight="bold" text-anchor="middle" x="114.75" y="-1939.45">another-broken-page</text><path d="m78-1682h73.5c6 0 12-6 12-12v-118c0-6-6-12-12-12h-73.5c-6 0-12 6-12 12v118c0 6 6 12 12 12" fill="#fff" stroke="#000" stroke-width="2"/><text font-family="Helvetica,sans-Serif" font-size="9" font-weight="bold" text-anchor="middle" x="114.75" y="-1811.45">conflict-pages</text><path d="m86-1716h57.5c6 0 12-6 12-12v-58c0-6-6-12-12-12h-57.5c-6 0-12 6-12 12v58c0 6 6 12 12 12" fill="#fff" stroke="#000" stroke-width="2"/><text font-family="Helvetica,sans-Serif" font-size="9" font-weight="bold" text-anchor="middle" x="114.75" y="-1785.45">src</text><path d="m75.75-1562h78c6 0 12-6 12-12v-88c0-6-6-12-12-12h-78c-6 0-12 6-12 12v88c0 6 6 12 12 12" fill="#fff" stroke="#000" stroke-width="2"/><text font-family="Helvetica,sans-Serif" font-size="9" font-weight="bold" text-anchor="middle" x="114.75" y="-1661.45">default-layout</text><path d="m83.75-1596h62c6 0 12-6 12-12v-28c0-6-6-12-12-12h-62c-6 0-12 6-12 12v28c0 6 6 12 12 12" fill="#fff" stroke="#000" stroke-width="2"/><text font-family="Helvetica,sans-Serif" font-size="9" font-weight="bold" text-anchor="middle" x="114.75" y="-1635.45">src</text><path d="m25-204h288.38c6 0 12-6 12-12v-1326c0-6-6-12-12-12h-288.38c-6 0-12 6-12 12v1326c0 6 6 12 12 12" fill="#fff" stroke="#000" stroke-width="2"/><text font-family="Helvetica,sans-Serif" font-size="9" font-weight="bold" text-anchor="middle" x="169.19" y="-1541.45">general-features</text><path d="m36-1206h157.5c6 0 12-6 12-12v-298c0-6-6-12-12-12h-157.5c-6 0-12 6-12 12v298c0 6 6 12 12 12" fill="#fff" stroke="#000" stroke-width="2"/><text font-family="Helvetica,sans-Serif" font-size="9" font-weight="bold" text-anchor="middle" x="114.75" y="-1515.45">public</text><path d="m70.62-1450h88.26c6 0 12-6 12-12v-28c0-6-6-12-12-12h-88.26c-6 0-12 6-12 12v28c0 6 6 12 12 12" fill="#fff" stroke="#000" stroke-width="2"/><text font-family="Helvetica,sans-Serif" font-size="9" font-weight="bold" text-anchor="middle" x="114.75" y="-1489.45">html-page</text><path d="m68.75-1390h92c6 0 12-6 12-12v-28c0-6-6-12-12-12h-92c-6 0-12 6-12 12v28c0 6 6 12 12 12" fill="#fff" stroke="#000" stroke-width="2"/><text font-family="Helvetica,sans-Serif" font-size="9" font-weight="bold" text-anchor="middle" x="114.75" y="-1429.45">js-page</text><path d="m44-1330h141.5c6 0 12-6 12-12v-28c0-6-6-12-12-12h-141.5c-6 0-12 6-12 12v28c0 6 6 12 12 12" fill="#fff" stroke="#000" stroke-width="2"/><text font-family="Helvetica,sans-Serif" font-size="9" font-weight="bold" text-anchor="middle" x="114.75" y="-1369.45">layouts</text><path d="m69.88-1270h89.74c6 0 12-6 12-12v-28c0-6-6-12-12-12h-89.74c-6 0-12 6-12 12v28c0 6 6 12 12 12" fill="#fff" stroke="#000" stroke-width="2"/><text font-family="Helvetica,sans-Serif" font-size="9" font-weight="bold" text-anchor="middle" x="114.75" y="-1309.45">md-page</text><path d="m33-212h272.38c6 0 12-6 12-12v-936c0-6-6-12-12-12h-272.38c-6 0-12 6-12 12v936c0 6 6 12 12 12" fill="#fff" stroke="#000" stroke-width="2"/><text font-family="Helvetica,sans-Serif" font-size="9" font-weight="bold" text-anchor="middle" x="169.19" y="-1159.45">src</text><path d="m41-1026h147.5c6 0 12-6 12-12v-96c0-6-6-12-12-12h-147.5c-6 0-12 6-12 12v96c0 6 6 12 12 12" fill="#fff" stroke="#000" stroke-width="2"/><text font-family="Helvetica,sans-Serif" font-size="9" font-weight="bold" text-anchor="middle" x="114.75" y="-1133.45">blog</text><path d="m49-1034h131.5c6 0 12-6 12-12v-62c0-6-6-12-12-12h-131.5c-6 0-12 6-12 12v62c0 6 6 12 12 12" fill="#fff" stroke="#000" stroke-width="2"/><text font-family="Helvetica,sans-Serif" font-size="9" font-weight="bold" text-anchor="middle" x="114.75" y="-1107.45">2023</text><path d="m57-1042h115.5c6 0 12-6 12-12v-28c0-6-6-12-12-12h-115.5c-6 0-12 6-12 12v28c0 6 6 12 12 12" fill="#fff" stroke="#000" stroke-width="2"/><text font-family="Helvetica,sans-Serif" font-size="9" font-weight="bold" text-anchor="middle" x="114.75" y="-1081.45">the-first-blog-post-from-2023</text><path d="m86-936h57.5c6 0 12-6 12-12v-58c0-6-6-12-12-12h-57.5c-6 0-12 6-12 12v58c0 6 6 12 12 12" fill="#fff" stroke="#000" stroke-width="2"/><text font-family="Helvetica,sans-Serif" font-size="9" font-weight="bold" text-anchor="middle" x="114.75" y="-1005.45">html-page</text><path d="m70.75-696h89c6 0 12-6 12-12v-208c0-6-6-12-12-12h-89c-6 0-12 6-12 12v208c0 6 6 12 12 12" fill="#fff" stroke="#000" stroke-width="2"/><text font-family="Helvetica,sans-Serif" font-size="9" font-weight="bold" text-anchor="middle" x="115.25" y="-915.45">js-page</text><path d="m78.75-850h73c6 0 12-6 12-12v-28c0-6-6-12-12-12h-73c-6 0-12 6-12 12v28c0 6 6 12 12 12" fill="#fff" stroke="#000" stroke-width="2"/><text font-family="Helvetica,sans-Serif" font-size="9" font-weight="bold" text-anchor="middle" x="115.25" y="-889.45">js-no-async-export</text><path d="m83.75-790h63c6 0 12-6 12-12v-28c0-6-6-12-12-12h-63c-6 0-12 6-12 12v28c0 6 6 12 12 12" fill="#fff" stroke="#000" stroke-width="2"/><text font-family="Helvetica,sans-Serif" font-size="9" font-weight="bold" text-anchor="middle" x="115.25" y="-829.45">js-no-style-client</text><path d="m71.75-606h225.63c6 0 12-6 12-12v-58c0-6-6-12-12-12h-225.63c-6 0-12 6-12 12v58c0 6 6 12 12 12" fill="#fff" stroke="#000" stroke-width="2"/><text font-family="Helvetica,sans-Serif" font-size="9" font-weight="bold" text-anchor="middle" x="184.56" y="-675.45">layouts</text><path d="m244.5-332h46c6 0 12-6 12-12v-28c0-6-6-12-12-12h-46c-6 0-12 6-12 12v28c0 6 6 12 12 12" fill="#fff" stroke="#000" stroke-width="2"/><text font-family="Helvetica,sans-Serif" font-size="9" font-weight="bold" text-anchor="middle" x="267.5" y="-371.45">libs</text><path d="m86-516h57.5c6 0 12-6 12-12v-58c0-6-6-12-12-12h-57.5c-6 0-12 6-12 12v58c0 6 6 12 12 12" fill="#fff" stroke="#000" stroke-width="2"/><text font-family="Helvetica,sans-Serif" font-size="9" font-weight="bold" text-anchor="middle" x="114.75" y="-585.45">md-page</text><path d="m59.75-366h110c6 0 12-6 12-12v-118c0-6-6-12-12-12h-110c-6 0-12 6-12 12v118c0 6 6 12 12 12" fill="#fff" stroke="#000" stroke-width="2"/><text font-family="Helvetica,sans-Serif" font-size="9" font-weight="bold" text-anchor="middle" x="114.75" y="-495.45">templates</text><path d="m837.12-2654h46c6 0 12-6 12-12v-28c0-6-6-12-12-12h-46c-6 0-12 6-12 12v28c0 6 6 12 12 12" fill="#fff" stroke="#000" stroke-width="2"/><text font-family="Helvetica,sans-Serif" font-size="9" font-weight="bold" text-anchor="middle" x="860.12" y="-2693.45">fs</text><path d="m353.38-2678h451.74c6 0 12-6 12-12v-448c0-6-6-12-12-12h-451.74c-6 0-12 6-12 12v448c0 6 6 12 12 12" fill="#fff" stroke="#000" stroke-width="2"/><text font-family="Helvetica,sans-Serif" font-size="9" font-weight="bold" text-anchor="middle" x="579.25" y="-3137.45">lib</text><path d="m434.75-2686h46c6 0 12-6 12-12v-28c0-6-6-12-12-12h-46c-6 0-12 6-12 12v28c0 6 6 12 12 12" fill="#fff" stroke="#000" stroke-width="2"/><text font-family="Helvetica,sans-Serif" font-size="9" font-weight="bold" text-anchor="middle" x="457.75" y="-2725.45">build-esbuild</text><path d="m434.75-3072h46c6 0 12-6 12-12v-28c0-6-6-12-12-12h-46c-6 0-12 6-12 12v28c0 6 6 12 12 12" fill="#fff" stroke="#000" stroke-width="2"/><text font-family="Helvetica,sans-Serif" font-size="9" font-weight="bold" text-anchor="middle" x="457.75" y="-3111.45">build-static</text><path d="m434.75-2746h362.37c6 0 12-6 12-12v-268c0-6-6-12-12-12h-362.37c-6 0-12 6-12 12v268c0 6 6 12 12 12" fill="#fff" stroke="#000" stroke-width="2"/><text font-family="Helvetica,sans-Serif" font-size="9" font-weight="bold" text-anchor="middle" x="615.94" y="-3025.45">build-pages</text><path d="m614.88-2780h174.24c6 0 12-6 12-12v-208c0-6-6-12-12-12h-174.24c-6 0-12 6-12 12v208c0 6 6 12 12 12" fill="#fff" stroke="#000" stroke-width="2"/><text font-family="Helvetica,sans-Serif" font-size="9" font-weight="bold" text-anchor="middle" x="702" y="-2999.45">page-builders</text><path d="m724.25-2934h46c6 0 12-6 12-12v-28c0-6-6-12-12-12h-46c-6 0-12 6-12 12v28c0 6 6 12 12 12" fill="#fff" stroke="#000" stroke-width="2"/><text font-family="Helvetica,sans-Serif" font-size="9" font-weight="bold" text-anchor="middle" x="747.25" y="-2973.45">html</text><path d="m724.25-2814h46c6 0 12-6 12-12v-28c0-6-6-12-12-12h-46c-6 0-12 6-12 12v28c0 6 6 12 12 12" fill="#fff" stroke="#000" stroke-width="2"/><text font-family="Helvetica,sans-Serif" font-size="9" font-weight="bold" text-anchor="middle" x="747.25" y="-2853.45">js</text><path d="m724.25-2874h46c6 0 12-6 12-12v-28c0-6-6-12-12-12h-46c-6 0-12 6-12 12v28c0 6 6 12 12 12" fill="#fff" stroke="#000" stroke-width="2"/><text font-family="Helvetica,sans-Serif" font-size="9" font-weight="bold" text-anchor="middle" x="747.25" y="-2913.45">md</text><path d="m56.5-8h116.5c6 0 12-6 12-12v-156c0-6-6-12-12-12h-116.5c-6 0-12 6-12 12v156c0 6 6 12 12 12" fill="#fff" stroke="#000" stroke-width="2"/><text font-family="Helvetica,sans-Serif" font-size="9" font-weight="bold" text-anchor="middle" x="114.75" y="-175.45">.tap</text><path d="m64.5-16h100.5c6 0 12-6 12-12v-122c0-6-6-12-12-12h-100.5c-6 0-12 6-12 12v122c0 6 6 12 12 12" fill="#fff" stroke="#000" stroke-width="2"/><text font-family="Helvetica,sans-Serif" font-size="9" font-weight="bold" text-anchor="middle" x="114.75" y="-149.45">report</text><path d="m72.5-24h84.5c6 0 12-6 12-12v-88c0-6-6-12-12-12h-84.5c-6 0-12 6-12 12v88c0 6 6 12 12 12" fill="#fff" stroke="#000" stroke-width="2"/><text font-family="Helvetica,sans-Serif" font-size="9" font-weight="bold" text-anchor="middle" x="114.75" y="-123.45">lcov-report</text><a xlink:href=".tap/report/lcov-report/block-navigation.js" xlink:title="block&#45;navigation.js"><path d="m155.08-109.88h-80.66c-2.96 0-5.92 2.96-5.92 5.92v5.92c0 2.96 2.96 5.92 5.92 5.92h80.66c2.96 0 5.92-2.96 5.92-5.92v-5.92c0-2.96-2.96-5.92-5.92-5.92" fill="#cfc" stroke="#000"/><text font-family="Helvetica,sans-Serif" font-size="9" x="76.5" y="-97.33">block-navigation.js</text></a><a xlink:href=".tap/report/lcov-report/prettify.js" xlink:title="prettify.js"><path d="m135.83-79.88h-42.16c-2.96 0-5.92 2.96-5.92 5.92v5.92c0 2.96 2.96 5.92 5.92 5.92h42.16c2.96 0 5.92-2.96 5.92-5.92v-5.92c0-2.96-2.96-5.92-5.92-5.92" fill="#cfc" stroke="#000"/><text font-family="Helvetica,sans-Serif" font-size="9" x="96.75" y="-67.33">prettify.js</text></a><a xlink:href=".tap/report/lcov-report/sorter.js" xlink:title="sorter.js"><path d="m135.83-49.88h-42.16c-2.96 0-5.92 2.96-5.92 5.92v5.92c0 2.96 2.96 5.92 5.92 5.92h42.16c2.96 0 5.92-2.96 5.92-5.92v-5.92c0-2.96-2.96-5.92-5.92-5.92" fill="#cfc" stroke="#000"/><text font-family="Helvetica,sans-Serif" font-size="9" x="98.62" y="-37.33">sorter.js</text></a><a xlink:href="bin.js" xlink:title="bin.js"><path d="m135.83-2886.88h-42.16c-2.96 0-5.92 2.96-5.92 5.92v5.92c0 2.96 2.96 5.92 5.92 5.92h42.16c2.96 0 5.92-2.96 5.92-5.92v-5.92c0-2.96-2.96-5.92-5.92-5.92" fill="#ffc" stroke="#000"/><text font-family="Helvetica,sans-Serif" font-size="9" text-anchor="middle" x="114.75" y="-2874.32">bin.js</text></a><a xlink:href="index.js" xlink:title="index.js"><path d="m288.58-2599.88h-42.16c-2.96 0-5.92 2.96-5.92 5.92v5.92c0 2.96 2.96 5.92 5.92 5.92h42.16c2.96 0 5.92-2.96 5.92-5.92v-5.92c0-2.96-2.96-5.92-5.92-5.92" fill="#ffc" stroke="#000"/><text font-family="Helvetica,sans-Serif" font-size="9" text-anchor="middle" x="267.5" y="-2587.32">index.js</text></a><path d="m120.59-2868.78c21.49 40.9 108.33 206.24 136.81 260.46" fill="none" stroke="#000" stroke-opacity=".2" stroke-width="2"/><path d="m259.26-2609.3.93 6.29-4.65-4.34z" fill-opacity=".2" stroke="#000" stroke-opacity=".2" stroke-width="2"/><a xlink:title="promises"><path d="m881.21-2679.88h-42.17c-2.96 0-5.92 2.96-5.92 5.92v5.92c0 2.96 2.96 5.92 5.92 5.92h42.17c2.96 0 5.91-2.96 5.91-5.92v-5.92c0-2.96-2.95-5.92-5.91-5.92" fill="#ffc" stroke="#808080"/><text fill="#808080" font-family="Helvetica,sans-Serif" font-size="9" x="841.38" y="-2667.32">promises</text></a><path d="m118.78-2887.22c16.77-49.13 103.07-277.78 256.6-277.78h275.24c74.2 0 113.65-40.07 166.5 12 33.85 33.34 40.68 384.17 41.81 465.31" fill="none" stroke="#000" stroke-dasharray="5 2" stroke-opacity=".2"/><path d="m861.02-2687.84-2.02 6.02-2.18-5.97z" fill-opacity=".2" stroke="#000" stroke-opacity=".2"/><a xlink:href="lib/build-static/index.js" xlink:title="index.js"><path d="m478.83-3097.88h-42.16c-2.96 0-5.92 2.96-5.92 5.92v5.92c0 2.96 2.96 5.92 5.92 5.92h42.16c2.96 0 5.92-2.96 5.92-5.92v-5.92c0-2.96-2.96-5.92-5.92-5.92" fill="#ffc" stroke="#000"/><text font-family="Helvetica,sans-Serif" font-size="9" text-anchor="middle" x="457.75" y="-3085.32">index.js</text></a><path d="m269.18-2600.29c3.31-42.12 19.85-218.99 72.2-352.71 23.33-59.62 24.7-83.37 75-123 1.95-1.54 4.09-2.9 6.33-4.1" fill="none" stroke="#000" stroke-opacity=".2" stroke-width="2"/><path d="m421.51-3081.86 6.34-.51-4.64 4.35z" fill-opacity=".2" stroke="#000" stroke-opacity=".2" stroke-width="2"/><a xlink:href="lib/builder.js" xlink:title="builder.js"><path d="m397.46-2765.88h-42.17c-2.96 0-5.91 2.96-5.91 5.92v5.92c0 2.96 2.95 5.92 5.91 5.92h42.17c2.96 0 5.92-2.96 5.92-5.92v-5.92c0-2.96-2.96-5.92-5.92-5.92" fill="#ffc" stroke="#000"/><text font-family="Helvetica,sans-Serif" font-size="9" x="357.62" y="-2753.32">builder.js</text></a><path d="m274.25-2599.92c17.18-26.69 68.33-106.15 90.59-140.71" fill="none" stroke="#000" stroke-opacity=".2" stroke-width="2"/><path d="m362.95-2741.58 5.01-3.91-1.48 6.19z" fill-opacity=".2" stroke="#000" stroke-opacity=".2" stroke-width="2"/><path d="m379.23-2747.83c3.82 16.19 14.17 49.55 37.15 64.83 50.57 33.63 75.39 12 136.12 12h98.12 174.84" fill="none" stroke="#000" stroke-dasharray="5 2" stroke-opacity=".2"/><path d="m825.28-2673.1 6 2.1-6 2.1z" fill-opacity=".2" stroke="#000" stroke-opacity=".2"/><path d="m378.65-2766.02c3.92-27.92 16.06-115.36 24.73-187.98 3.22-27.07-4.21-100.85 13-122 1.81-2.23 4-4.08 6.43-5.62" fill="none" stroke="#000" stroke-opacity=".2" stroke-width="2"/><path d="m421.54-3083.34 6.32-.7-4.5 4.49z" fill-opacity=".2" stroke="#000" stroke-opacity=".2" stroke-width="2"/><a xlink:href="lib/build-esbuild/index.js" xlink:title="index.js"><path d="m478.83-2711.88h-42.16c-2.96 0-5.92 2.96-5.92 5.92v5.92c0 2.96 2.96 5.92 5.92 5.92h42.16c2.96 0 5.92-2.96 5.92-5.92v-5.92c0-2.96-2.96-5.92-5.92-5.92" fill="#ffc" stroke="#000"/><text font-family="Helvetica,sans-Serif" font-size="9" text-anchor="middle" x="457.75" y="-2699.32">index.js</text></a><path d="m390.84-2747.84c12.32 8.38 30.73 20.91 44.96 30.59" fill="none" stroke="#000" stroke-opacity=".2" stroke-width="2"/><path d="m436.94-2719.02 3.78 5.11-6.15-1.64z" fill-opacity=".2" stroke="#000" stroke-opacity=".2" stroke-width="2"/><a xlink:href="lib/build-pages/index.js" xlink:title="index.js"><path d="m478.83-2819.88h-42.16c-2.96 0-5.92 2.96-5.92 5.92v5.92c0 2.96 2.96 5.92 5.92 5.92h42.16c2.96 0 5.92-2.96 5.92-5.92v-5.92c0-2.96-2.96-5.92-5.92-5.92" fill="#ffc" stroke="#000"/><text font-family="Helvetica,sans-Serif" font-size="9" text-anchor="middle" x="457.75" y="-2807.32">index.js</text></a><path d="m390.84-2766.16c12.32-8.38 30.73-20.91 44.96-30.59" fill="none" stroke="#000" stroke-opacity=".2" stroke-width="2"/><path d="m434.57-2798.45 6.15-1.64-3.78 5.11z" fill-opacity=".2" stroke="#000" stroke-opacity=".2" stroke-width="2"/><a xlink:href="lib/identify-pages.js" xlink:title="identify&#45;pages.js"><path d="m493.21-3063.88h-70.92c-2.96 0-5.91 2.96-5.91 5.92v5.92c0 2.96 2.95 5.92 5.91 5.92h70.92c2.96 0 5.91-2.96 5.91-5.92v-5.92c0-2.96-2.95-5.92-5.91-5.92" fill="#ffc" stroke="#000"/><text font-family="Helvetica,sans-Serif" font-size="9" x="424.38" y="-3051.32">identify-pages.js</text></a><path d="m378.59-2766.35c5.72-43.92 29.95-229.19 40.15-271.18" fill="none" stroke="#000" stroke-opacity=".2" stroke-width="2"/><path d="m416.67-3037.95 3.92-5 .05 6.35z" fill-opacity=".2" stroke="#000" stroke-opacity=".2" stroke-width="2"/><a xlink:href="lib/build-pages/resolve-vars.js" xlink:title="resolve&#45;vars.js"><path d="m681.33-2771.88h-63.41c-2.96 0-5.92 2.96-5.92 5.92v5.92c0 2.96 2.96 5.92 5.92 5.92h63.41c2.96 0 5.92-2.96 5.92-5.92v-5.92c0-2.96-2.96-5.92-5.92-5.92" fill="#ffc" stroke="#000"/><text font-family="Helvetica,sans-Serif" font-size="9" x="620" y="-2759.32">resolve-vars.js</text></a><path d="m485.15-2711.34c32.55-10.29 88.1-27.84 125.3-39.6" fill="none" stroke="#000" stroke-opacity=".2" stroke-width="2"/><path d="m609.78-2752.93 6.35.2-5.09 3.81z" fill-opacity=".2" stroke="#000" stroke-opacity=".2" stroke-width="2"/><path d="m474.59-2801.75c10.36 5.65 24.37 12.58 37.53 16.75 29.51 9.34 63.92 14.85 90.8 18.02" fill="none" stroke="#000" stroke-opacity=".2" stroke-width="2"/><path d="m603-2769.08 5.73 2.75-6.2 1.42z" fill-opacity=".2" stroke="#000" stroke-opacity=".2" stroke-width="2"/><a xlink:href="lib/build-pages/page-builders/index.js" xlink:title="index.js"><path d="m670.71-2836.88h-42.17c-2.96 0-5.92 2.96-5.92 5.92v5.92c0 2.96 2.96 5.92 5.92 5.92h42.17c2.96 0 5.91-2.96 5.91-5.92v-5.92c0-2.96-2.95-5.92-5.91-5.92" fill="#ffc" stroke="#000"/><text font-family="Helvetica,sans-Serif" font-size="9" text-anchor="middle" x="649.62" y="-2824.32">index.js</text></a><path d="m485.15-2813.36c33.35-2.99 90.86-8.14 128.01-11.46" fill="none" stroke="#000" stroke-opacity=".2" stroke-width="2"/><path d="m612.96-2826.92 6.17 1.56-5.79 2.63z" fill-opacity=".2" stroke="#000" stroke-opacity=".2" stroke-width="2"/><a xlink:href="lib/build-pages/page-builders/page-builder.js" xlink:title="page&#45;builder.js"><path d="m682.46-2930.88h-65.67c-2.96 0-5.91 2.96-5.91 5.92v5.92c0 2.96 2.95 5.92 5.91 5.92h65.67c2.96 0 5.92-2.96 5.92-5.92v-5.92c0-2.96-2.96-5.92-5.92-5.92" fill="#ffc" stroke="#000"/><text font-family="Helvetica,sans-Serif" font-size="9" x="618.88" y="-2918.32">page-builder.js</text></a><path d="m485.09-2816.94c38.92-8.81 107.5-24.49 109.79-26.06 22.44-15.42 38.2-43.55 46.62-61.74" fill="none" stroke="#000" stroke-opacity=".2" stroke-width="2"/><path d="m639.48-2905.36 4.34-4.65-.5 6.34z" fill-opacity=".2" stroke="#000" stroke-opacity=".2" stroke-width="2"/><a xlink:href="lib/build-pages/page-data.js" xlink:title="page&#45;data.js"><path d="m581.08-2808.88h-55.16c-2.96 0-5.92 2.96-5.92 5.92v5.92c0 2.96 2.96 5.92 5.92 5.92h55.16c2.96 0 5.92-2.96 5.92-5.92v-5.92c0-2.96-2.96-5.92-5.92-5.92" fill="#ffc" stroke="#000"/><text font-family="Helvetica,sans-Serif" font-size="9" x="528" y="-2796.32">page-data.js</text></a><path d="m484.86-2807.94c8.13.96 17.3 2.03 26.21 3.08" fill="none" stroke="#000" stroke-opacity=".2" stroke-width="2"/><path d="m511.11-2806.97 5.72 2.78-6.21 1.39z" fill-opacity=".2" stroke="#000" stroke-opacity=".2" stroke-width="2"/><a xlink:href="lib/build-pages/resolve-layout.js" xlink:title="resolve&#45;layout.js"><path d="m588.96-2866.88h-70.92c-2.96 0-5.92 2.96-5.92 5.92v5.92c0 2.96 2.96 5.92 5.92 5.92h70.92c2.96 0 5.92-2.96 5.92-5.92v-5.92c0-2.96-2.96-5.92-5.92-5.92" fill="#ffc" stroke="#000"/><text font-family="Helvetica,sans-Serif" font-size="9" x="520.12" y="-2854.32">resolve-layout.js</text></a><path d="m484.98-2817.01c4.94-1.79 9.89-4.08 14.14-6.99 7.57-5.17 5.73-10.43 13-16 2.2-1.68 4.57-3.24 7.03-4.69" fill="none" stroke="#000" stroke-opacity=".2" stroke-width="2"/><path d="m517.74-2846.32 6.29-.95-4.32 4.66z" fill-opacity=".2" stroke="#000" stroke-opacity=".2" stroke-width="2"/><a xlink:href="lib/build-pages/page-builders/html/index.js" xlink:title="index.js"><path d="m768.33-2959.88h-42.16c-2.96 0-5.92 2.96-5.92 5.92v5.92c0 2.96 2.96 5.92 5.92 5.92h42.16c2.96 0 5.92-2.96 5.92-5.92v-5.92c0-2.96-2.96-5.92-5.92-5.92" fill="#ffc" stroke="#000"/><text font-family="Helvetica,sans-Serif" font-size="9" text-anchor="middle" x="747.25" y="-2947.32">index.js</text></a><path d="m654.85-2837.24c10.86-23.58 39.34-84.65 46.53-91.76 3.23-3.2 7.01-6.01 11-8.46" fill="none" stroke="#000" stroke-opacity=".2" stroke-width="2"/><path d="m711.25-2939.24 6.27-1.03-4.25 4.72z" fill-opacity=".2" stroke="#000" stroke-opacity=".2" stroke-width="2"/><a xlink:href="lib/build-pages/page-builders/js/index.js" xlink:title="index.js"><path d="m768.33-2839.88h-42.16c-2.96 0-5.92 2.96-5.92 5.92v5.92c0 2.96 2.96 5.92 5.92 5.92h42.16c2.96 0 5.92-2.96 5.92-5.92v-5.92c0-2.96-2.96-5.92-5.92-5.92" fill="#ffc" stroke="#000"/><text font-family="Helvetica,sans-Serif" font-size="9" text-anchor="middle" x="747.25" y="-2827.32">index.js</text></a><path d="m677.01-2828.83c10.55-.33 22.87-.72 34.16-1.07" fill="none" stroke="#000" stroke-opacity=".2" stroke-width="2"/><path d="m710.86-2831.99 6.07 1.91-5.93 2.29z" fill-opacity=".2" stroke="#000" stroke-opacity=".2" stroke-width="2"/><a xlink:href="lib/build-pages/page-builders/md/index.js" xlink:title="index.js"><path d="m768.33-2899.88h-42.16c-2.96 0-5.92 2.96-5.92 5.92v5.92c0 2.96 2.96 5.92 5.92 5.92h42.16c2.96 0 5.92-2.96 5.92-5.92v-5.92c0-2.96-2.96-5.92-5.92-5.92" fill="#ffc" stroke="#000"/><text font-family="Helvetica,sans-Serif" font-size="9" text-anchor="middle" x="747.25" y="-2887.32">index.js</text></a><path d="m660.61-2837.19c9.88-8.83 25.68-22.19 40.77-31.81 4.8-3.06 10.08-6 15.29-8.68" fill="none" stroke="#000" stroke-opacity=".2" stroke-width="2"/><path d="m715.69-2879.53 6.31-.78-4.45 4.54z" fill-opacity=".2" stroke="#000" stroke-opacity=".2" stroke-width="2"/><a xlink:href="lib/build-pages/page-builders/template-builder.js" xlink:title="template&#45;builder.js"><path d="m787.21-2805.88h-79.92c-2.96 0-5.91 2.96-5.91 5.92v5.92c0 2.96 2.95 5.92 5.91 5.92h79.92c2.96 0 5.91-2.96 5.91-5.92v-5.92c0-2.96-2.95-5.92-5.91-5.92" fill="#ffc" stroke="#000"/><text font-family="Helvetica,sans-Serif" font-size="9" x="709.38" y="-2793.32">template-builder.js</text></a><g stroke="#000" stroke-opacity=".2"><path d="m676.93-2819.07c7.85 2.63 16.49 5.5 24.45 8.07 2.1.68 4.27 1.38 6.45 2.07" fill="none" stroke-width="2"/><path d="m708.32-2810.98 5.08 3.82-6.35.19z" fill-opacity=".2" stroke-width="2"/><path d="m684.01-2931.15c1.59-1.14 3.06-2.41 4.37-3.85 16.6-18.27-6.4-38.72 13-54 20.2-15.92 96.4-16.96 115.74 0 22.95 20.11 37.39 238.85 41.07 301.39" fill="none" stroke-dasharray="5 2"/><path d="m860.28-2687.79-1.75 6.11-2.44-5.86z" fill-opacity=".2"/><path d="m572.14-2790.84c9.05 4.49 20.33 9.8 30.74 13.84 1.56.61 3.17 1.21 4.8 1.8" fill="none" stroke-width="2"/><path d="m608.08-2777.28 4.99 3.93-6.36.04z" fill-opacity=".2" stroke-width="2"/><path d="m584.14-2809.31c6.18-1.91 12.67-3.89 18.74-5.69 3.56-1.06 7.28-2.15 11-3.22" fill="none" stroke-width="2"/><path d="m613.21-2820.21 6.35.36-5.19 3.67z" fill-opacity=".2" stroke-width="2"/><path d="m774.48-2949.18c14.67 2.43 32.07 7.92 42.64 20.18 31.51 36.54 39.65 190.36 41.51 241.44" fill="none" stroke-dasharray="5 2"/><path d="m860.72-2687.86-1.9 6.07-2.3-5.93z" fill-opacity=".2"/><path d="m774.6-2888.94c14.53 2.52 31.75 8.02 42.52 19.94 24.37 26.93 36.77 139.43 40.64 181.78" fill="none" stroke-dasharray="5 2"/><path d="m859.83-2687.61-1.56 6.16-2.62-5.79z" fill-opacity=".2"/><path d="m756.22-2787.94c18.93 21.51 66.71 75.81 89.89 102.15" fill="none" stroke-dasharray="5 2"/><path d="m847.54-2687.35 2.38 5.89-5.54-3.11z" fill-opacity=".2"/><path d="m497.33-3064.35c73.53-15.28 234.03-35.98 319.79 49.35 23.52 23.4 37.69 261.84 41.17 327.4" fill="none" stroke-dasharray="5 2"/><path d="m860.38-2687.78-1.79 6.1-2.41-5.88z" fill-opacity=".2"/></g><a xlink:href="test-cases/build-errors/index.test.js" xlink:title="index.test.js"><path d="m140.83-1857.88h-52.16c-2.96 0-5.92 2.96-5.92 5.92v5.92c0 2.96 2.96 5.92 5.92 5.92h52.16c2.96 0 5.92-2.96 5.92-5.92v-5.92c0-2.96-2.96-5.92-5.92-5.92" fill="#ffc" stroke="#000"/><text font-family="Helvetica,sans-Serif" font-size="9" x="90.75" y="-1845.33">index.test.js</text></a><path d="m147.22-1844.98c19.61.6 43.77-2.44 58.28-18.02 49.93-53.61 59.42-603.45 60.8-710.13" fill="none" stroke="#000" stroke-opacity=".2" stroke-width="2"/><path d="m264.2-2573.03 2.17-5.98 2.03 6.03z" fill-opacity=".2" stroke="#000" stroke-opacity=".2" stroke-width="2"/><path d="m146.82-1841.22c20.5 6.92 45.86 19.27 58.68 40.22 42.68 69.77-5.37 1396.89 27 1472 35.19 81.64 53.97 140 142.88 140h275.24c131.75 0 201.63-2249.98 208.02-2465.47" fill="none" stroke="#000" stroke-dasharray="5 2" stroke-opacity=".2"/><path d="m856.54-2654.32 2.27-5.93 1.93 6.06z" fill-opacity=".2" stroke="#000" stroke-opacity=".2"/><a xlink:href="test-cases/build-errors/src/another-broken-page/page.js" xlink:title="page.js"><path d="m135.83-1925.88h-42.16c-2.96 0-5.92 2.96-5.92 5.92v5.92c0 2.96 2.96 5.92 5.92 5.92h42.16c2.96 0 5.92-2.96 5.92-5.92v-5.92c0-2.96-2.96-5.92-5.92-5.92" fill="#cfc" stroke="#000"/><text font-family="Helvetica,sans-Serif" font-size="9" x="99.75" y="-1913.33">page.js</text></a><a xlink:href="test-cases/build-errors/src/client.js" xlink:title="client.js"><path d="m135.83-1891.88h-42.16c-2.96 0-5.92 2.96-5.92 5.92v5.92c0 2.96 2.96 5.92 5.92 5.92h42.16c2.96 0 5.92-2.96 5.92-5.92v-5.92c0-2.96-2.96-5.92-5.92-5.92" fill="#cfc" stroke="#000"/><text font-family="Helvetica,sans-Serif" font-size="9" x="99.38" y="-1879.33">client.js</text></a><a xlink:href="test-cases/conflict-pages/index.test.js" xlink:title="index.test.js"><path d="m140.83-1707.88h-52.16c-2.96 0-5.92 2.96-5.92 5.92v5.92c0 2.96 2.96 5.92 5.92 5.92h52.16c2.96 0 5.92-2.96 5.92-5.92v-5.92c0-2.96-2.96-5.92-5.92-5.92" fill="#ffc" stroke="#000"/><text font-family="Helvetica,sans-Serif" font-size="9" x="90.75" y="-1695.33">index.test.js</text></a><path d="m146.86-1694.93c19.71.69 44.14-2.27 58.64-18.07 60.24-65.62 61.35-740.23 61.07-859.9" fill="none" stroke="#000" stroke-opacity=".2" stroke-width="2"/><path d="m264.47-2572.62 2.08-6 2.12 5.99z" fill-opacity=".2" stroke="#000" stroke-opacity=".2" stroke-width="2"/><path d="m146.82-1691.21c20.5 6.91 45.86 19.26 58.68 40.21 42.28 69.1-24.64 1395.58 27 1458 41.36 49.99 77.99 30 142.88 30h275.24c84.03 0 145.73-104.08 166.5-156 46.12-115.23 42.53-2133.04 42.05-2335.64" fill="none" stroke="#000" stroke-dasharray="5 2" stroke-opacity=".2"/><path d="m857.07-2654.49 2.08-6 2.12 5.99z" fill-opacity=".2" stroke="#000" stroke-opacity=".2"/><a xlink:href="test-cases/conflict-pages/src/page.js" xlink:title="page.js"><path d="m135.83-1771.88h-42.16c-2.96 0-5.92 2.96-5.92 5.92v5.92c0 2.96 2.96 5.92 5.92 5.92h42.16c2.96 0 5.92-2.96 5.92-5.92v-5.92c0-2.96-2.96-5.92-5.92-5.92" fill="#cfc" stroke="#000"/><text font-family="Helvetica,sans-Serif" font-size="9" x="99.75" y="-1759.33">page.js</text></a><a xlink:href="test-cases/conflict-pages/src/page.vars.js" xlink:title="page.vars.js"><path d="m141.58-1741.88h-53.66c-2.96 0-5.92 2.96-5.92 5.92v5.92c0 2.96 2.96 5.92 5.92 5.92h53.66c2.96 0 5.92-2.96 5.92-5.92v-5.92c0-2.96-2.96-5.92-5.92-5.92" fill="#cfc" stroke="#000"/><text font-family="Helvetica,sans-Serif" font-size="9" x="90" y="-1729.33">page.vars.js</text></a><a xlink:href="test-cases/default-layout/index.test.js" xlink:title="index.test.js"><path d="m140.83-1587.88h-52.16c-2.96 0-5.92 2.96-5.92 5.92v5.92c0 2.96 2.96 5.92 5.92 5.92h52.16c2.96 0 5.92-2.96 5.92-5.92v-5.92c0-2.96-2.96-5.92-5.92-5.92" fill="#ffc" stroke="#000"/><text font-family="Helvetica,sans-Serif" font-size="9" x="90.75" y="-1575.33">index.test.js</text></a><path d="m146.91-1574.89c19.72.71 44.15-2.25 58.59-18.11 34.35-37.73 57.06-848.03 60.53-979.93" fill="none" stroke="#000" stroke-opacity=".2" stroke-width="2"/><path d="m263.93-2572.86 2.26-5.94 1.94 6.05z" fill-opacity=".2" stroke="#000" stroke-opacity=".2" stroke-width="2"/><path d="m134.65-1569.81c21.63 11.68 55.98 34.09 70.85 64.81 32.62 67.43-22.72 1291.98 27 1348 42.56 47.96 78.76 20 142.88 20h275.24c75.81 0 118.58 21.73 166.5-37 41.74-51.15 42.08-2266.23 42.01-2480.4" fill="none" stroke="#000" stroke-dasharray="5 2" stroke-opacity=".2"/><path d="m857.03-2654.14 2.1-6 2.1 5.99z" fill-opacity=".2" stroke="#000" stroke-opacity=".2"/><a xlink:href="test-cases/default-layout/src/global.vars.js" xlink:title="global.vars.js"><path d="m143.83-1621.88h-58.16c-2.96 0-5.92 2.96-5.92 5.92v5.92c0 2.96 2.96 5.92 5.92 5.92h58.16c2.96 0 5.92-2.96 5.92-5.92v-5.92c0-2.96-2.96-5.92-5.92-5.92" fill="#cfc" stroke="#000"/><text font-family="Helvetica,sans-Serif" font-size="9" x="87.75" y="-1609.33">global.vars.js</text></a><a xlink:href="test-cases/general-features/index.test.js" xlink:title="index.test.js"><path d="m140.83-1197.88h-52.16c-2.96 0-5.92 2.96-5.92 5.92v5.92c0 2.96 2.96 5.92 5.92 5.92h52.16c2.96 0 5.92-2.96 5.92-5.92v-5.92c0-2.96-2.96-5.92-5.92-5.92" fill="#ffc" stroke="#000"/><text font-family="Helvetica,sans-Serif" font-size="9" x="90.75" y="-1185.33">index.test.js</text></a><path d="m147-1184.81c19.76.74 44.2-2.21 58.5-18.19 47.95-53.59 59.5-1212.11 60.86-1370.19" fill="none" stroke="#000" stroke-opacity=".2" stroke-width="2"/><path d="m264.25-2572.78 2.15-5.98 2.05 6.02z" fill-opacity=".2" stroke="#000" stroke-opacity=".2" stroke-width="2"/><path d="m129.94-1179.76c21.05 14.64 59.73 45.36 75.56 82.76 21.04 49.7-9.67 931.4 27 971 43.38 46.85 79.03 15 142.88 15h275.24c74.54 0 116.59 35.35 166.5-20 45-49.89 42.39-2307.34 42.03-2523.43" fill="none" stroke="#000" stroke-dasharray="5 2" stroke-opacity=".2"/><path d="m857.06-2654.22 2.09-6.01 2.11 6z" fill-opacity=".2" stroke="#000" stroke-opacity=".2"/><a xlink:href="test-cases/general-features/public/client-XA44T36G.js" xlink:title="client&#45;XA44T36G.js"><path d="m156.21-1261.88h-82.92c-2.96 0-5.91 2.96-5.91 5.92v5.92c0 2.96 2.95 5.92 5.91 5.92h82.92c2.96 0 5.91-2.96 5.91-5.92v-5.92c0-2.96-2.95-5.92-5.91-5.92" fill="#cfc" stroke="#000"/><text font-family="Helvetica,sans-Serif" font-size="9" x="75.38" y="-1249.33">client-XA44T36G.js</text></a><a xlink:href="test-cases/general-features/public/global.client-HGEKZZSE.js" xlink:title="global.client&#45;HGEKZZSE.js"><path d="m171.58-1231.88h-113.66c-2.96 0-5.92 2.96-5.92 5.92v5.92c0 2.96 2.96 5.92 5.92 5.92h113.66c2.96 0 5.92-2.96 5.92-5.92v-5.92c0-2.96-2.96-5.92-5.92-5.92" fill="#cfc" stroke="#000"/><text font-family="Helvetica,sans-Serif" font-size="9" x="60" y="-1219.33">global.client-HGEKZZSE.js</text></a><a xlink:href="test-cases/general-features/public/html-page/client-P33YF4QG.js" xlink:title="client&#45;P33YF4QG.js"><path d="m156.96-1475.88h-84.42c-2.96 0-5.92 2.96-5.92 5.92v5.92c0 2.96 2.96 5.92 5.92 5.92h84.42c2.96 0 5.92-2.96 5.92-5.92v-5.92c0-2.96-2.96-5.92-5.92-5.92" fill="#cfc" stroke="#000"/><text font-family="Helvetica,sans-Serif" font-size="9" x="74.62" y="-1463.33">client-P33YF4QG.js</text></a><a xlink:href="test-cases/general-features/public/js-page/client-GDCZFMOL.js" xlink:title="client&#45;GDCZFMOL.js"><path d="m158.83-1415.88h-88.16c-2.96 0-5.92 2.96-5.92 5.92v5.92c0 2.96 2.96 5.92 5.92 5.92h88.16c2.96 0 5.92-2.96 5.92-5.92v-5.92c0-2.96-2.96-5.92-5.92-5.92" fill="#cfc" stroke="#000"/><text font-family="Helvetica,sans-Serif" font-size="9" x="72.75" y="-1403.33">client-GDCZFMOL.js</text></a><a xlink:href="test-cases/general-features/public/layouts/blog.layout.client-GHS6BWW7.js" xlink:title="blog.layout.client&#45;GHS6BWW7.js"><path d="m183.58-1355.88h-137.66c-2.96 0-5.92 2.96-5.92 5.92v5.92c0 2.96 2.96 5.92 5.92 5.92h137.66c2.96 0 5.92-2.96 5.92-5.92v-5.92c0-2.96-2.96-5.92-5.92-5.92" fill="#cfc" stroke="#000"/><text font-family="Helvetica,sans-Serif" font-size="9" x="48" y="-1343.33">blog.layout.client-GHS6BWW7.js</text></a><a xlink:href="test-cases/general-features/public/md-page/client-R4ZZXMTO.js" xlink:title="client&#45;R4ZZXMTO.js"><path d="m157.71-1295.88h-85.92c-2.96 0-5.91 2.96-5.91 5.92v5.92c0 2.96 2.95 5.92 5.91 5.92h85.92c2.96 0 5.91-2.96 5.91-5.92v-5.92c0-2.96-2.95-5.92-5.91-5.92" fill="#cfc" stroke="#000"/><text font-family="Helvetica,sans-Serif" font-size="9" x="73.88" y="-1283.33">client-R4ZZXMTO.js</text></a><a xlink:href="test-cases/general-features/src/blog/2023/the-first-blog-post-from-2023/page.vars.js" xlink:title="page.vars.js"><path d="m141.58-1067.88h-53.66c-2.96 0-5.92 2.96-5.92 5.92v5.92c0 2.96 2.96 5.92 5.92 5.92h53.66c2.96 0 5.92-2.96 5.92-5.92v-5.92c0-2.96-2.96-5.92-5.92-5.92" fill="#cfc" stroke="#000"/><text font-family="Helvetica,sans-Serif" font-size="9" x="90" y="-1055.33">page.vars.js</text></a><a xlink:href="test-cases/general-features/src/client.js" xlink:title="client.js"><path d="m135.83-357.88h-42.16c-2.96 0-5.92 2.96-5.92 5.92v5.92c0 2.96 2.96 5.92 5.92 5.92h42.16c2.96 0 5.92-2.96 5.92-5.92v-5.92c0-2.96-2.96-5.92-5.92-5.92" fill="#ffc" stroke="#000"/><text font-family="Helvetica,sans-Serif" font-size="9" x="99.38" y="-345.32">client.js</text></a><a xlink:href="test-cases/general-features/src/libs/a-lib.js" xlink:title="a&#45;lib.js"><path d="m288.58-357.88h-42.16c-2.96 0-5.92 2.96-5.92 5.92v5.92c0 2.96 2.96 5.92 5.92 5.92h42.16c2.96 0 5.92-2.96 5.92-5.92v-5.92c0-2.96-2.96-5.92-5.92-5.92" fill="#ffc" stroke="#000"/><text font-family="Helvetica,sans-Serif" font-size="9" x="254" y="-345.32">a-lib.js</text></a><path d="m142.01-349h89.18" fill="none" stroke="#000" stroke-opacity=".2" stroke-width="2"/><path d="m231.01-351.1 6 2.1-6 2.1z" fill-opacity=".2" stroke="#000" stroke-opacity=".2" stroke-width="2"/><a xlink:href="test-cases/general-features/src/feeds.template.js" xlink:title="feeds.template.js"><path d="m151.33-327.88h-73.16c-2.96 0-5.92 2.96-5.92 5.92v5.92c0 2.96 2.96 5.92 5.92 5.92h73.16c2.96 0 5.92-2.96 5.92-5.92v-5.92c0-2.96-2.96-5.92-5.92-5.92" fill="#cfc" stroke="#000"/><text font-family="Helvetica,sans-Serif" font-size="9" x="80.25" y="-315.32">feeds.template.js</text></a><a xlink:href="test-cases/general-features/src/global.client.js" xlink:title="global.client.js"><path d="m146.08-297.88h-62.66c-2.96 0-5.92 2.96-5.92 5.92v5.92c0 2.96 2.96 5.92 5.92 5.92h62.66c2.96 0 5.92-2.96 5.92-5.92v-5.92c0-2.96-2.96-5.92-5.92-5.92" fill="#cfc" stroke="#000"/><text font-family="Helvetica,sans-Serif" font-size="9" x="85.5" y="-285.32">global.client.js</text></a><a xlink:href="test-cases/general-features/src/global.vars.js" xlink:title="global.vars.js"><path d="m143.83-267.88h-58.16c-2.96 0-5.92 2.96-5.92 5.92v5.92c0 2.96 2.96 5.92 5.92 5.92h58.16c2.96 0 5.92-2.96 5.92-5.92v-5.92c0-2.96-2.96-5.92-5.92-5.92" fill="#cfc" stroke="#000"/><text font-family="Helvetica,sans-Serif" font-size="9" x="87.75" y="-255.32">global.vars.js</text></a><a xlink:href="test-cases/general-features/src/html-page/client.js" xlink:title="client.js"><path d="m135.83-991.88h-42.16c-2.96 0-5.92 2.96-5.92 5.92v5.92c0 2.96 2.96 5.92 5.92 5.92h42.16c2.96 0 5.92-2.96 5.92-5.92v-5.92c0-2.96-2.96-5.92-5.92-5.92" fill="#cfc" stroke="#000"/><text font-family="Helvetica,sans-Serif" font-size="9" x="99.38" y="-979.33">client.js</text></a><a xlink:href="test-cases/general-features/src/html-page/page.vars.js" xlink:title="page.vars.js"><path d="m141.58-961.88h-53.66c-2.96 0-5.92 2.96-5.92 5.92v5.92c0 2.96 2.96 5.92 5.92 5.92h53.66c2.96 0 5.92-2.96 5.92-5.92v-5.92c0-2.96-2.96-5.92-5.92-5.92" fill="#cfc" stroke="#000"/><text font-family="Helvetica,sans-Serif" font-size="9" x="90" y="-949.33">page.vars.js</text></a><a xlink:href="test-cases/general-features/src/js-page/client.js" xlink:title="client.js"><path d="m135.83-781.88h-42.16c-2.96 0-5.92 2.96-5.92 5.92v5.92c0 2.96 2.96 5.92 5.92 5.92h42.16c2.96 0 5.92-2.96 5.92-5.92v-5.92c0-2.96-2.96-5.92-5.92-5.92" fill="#cfc" stroke="#000"/><text font-family="Helvetica,sans-Serif" font-size="9" x="99.38" y="-769.33">client.js</text></a><a xlink:href="test-cases/general-features/src/js-page/js-no-async-export/page.js" xlink:title="page.js"><path d="m135.83-875.88h-42.16c-2.96 0-5.92 2.96-5.92 5.92v5.92c0 2.96 2.96 5.92 5.92 5.92h42.16c2.96 0 5.92-2.96 5.92-5.92v-5.92c0-2.96-2.96-5.92-5.92-5.92" fill="#cfc" stroke="#000"/><text font-family="Helvetica,sans-Serif" font-size="9" x="99.75" y="-863.33">page.js</text></a><a xlink:href="test-cases/general-features/src/js-page/js-no-style-client/page.js" xlink:title="page.js"><path d="m135.83-815.88h-42.16c-2.96 0-5.92 2.96-5.92 5.92v5.92c0 2.96 2.96 5.92 5.92 5.92h42.16c2.96 0 5.92-2.96 5.92-5.92v-5.92c0-2.96-2.96-5.92-5.92-5.92" fill="#cfc" stroke="#000"/><text font-family="Helvetica,sans-Serif" font-size="9" x="99.75" y="-803.33">page.js</text></a><a xlink:href="test-cases/general-features/src/js-page/page.js" xlink:title="page.js"><path d="m135.83-751.88h-42.16c-2.96 0-5.92 2.96-5.92 5.92v5.92c0 2.96 2.96 5.92 5.92 5.92h42.16c2.96 0 5.92-2.96 5.92-5.92v-5.92c0-2.96-2.96-5.92-5.92-5.92" fill="#cfc" stroke="#000"/><text font-family="Helvetica,sans-Serif" font-size="9" x="99.75" y="-739.33">page.js</text></a><a xlink:href="test-cases/general-features/src/js-page/page.vars.js" xlink:title="page.vars.js"><path d="m141.58-721.88h-53.66c-2.96 0-5.92 2.96-5.92 5.92v5.92c0 2.96 2.96 5.92 5.92 5.92h53.66c2.96 0 5.92-2.96 5.92-5.92v-5.92c0-2.96-2.96-5.92-5.92-5.92" fill="#cfc" stroke="#000"/><text font-family="Helvetica,sans-Serif" font-size="9" x="90" y="-709.33">page.vars.js</text></a><a xlink:href="test-cases/general-features/src/layouts/blog.layout.client.js" xlink:title="blog.layout.client.js"><path d="m155.83-661.88h-82.16c-2.96 0-5.92 2.96-5.92 5.92v5.92c0 2.96 2.96 5.92 5.92 5.92h82.16c2.96 0 5.92-2.96 5.92-5.92v-5.92c0-2.96-2.96-5.92-5.92-5.92" fill="#cfc" stroke="#000"/><text font-family="Helvetica,sans-Serif" font-size="9" x="75.75" y="-649.33">blog.layout.client.js</text></a><a xlink:href="test-cases/general-features/src/layouts/blog.layout.js" xlink:title="blog.layout.js"><path d="m143.83-631.88h-58.16c-2.96 0-5.92 2.96-5.92 5.92v5.92c0 2.96 2.96 5.92 5.92 5.92h58.16c2.96 0 5.92-2.96 5.92-5.92v-5.92c0-2.96-2.96-5.92-5.92-5.92" fill="#ffc" stroke="#000"/><text font-family="Helvetica,sans-Serif" font-size="9" x="87.75" y="-619.33">blog.layout.js</text></a><a xlink:href="test-cases/general-features/src/layouts/root.layout.js" xlink:title="root.layout.js"><path d="m295.46-631.88h-55.92c-2.96 0-5.92 2.96-5.92 5.92v5.92c0 2.96 2.96 5.92 5.92 5.92h55.92c2.96 0 5.92-2.96 5.92-5.92v-5.92c0-2.96-2.96-5.92-5.92-5.92" fill="#ffc" stroke="#000"/><text font-family="Helvetica,sans-Serif" font-size="9" x="241.62" y="-619.33">root.layout.js</text></a><path d="m149.96-623h74.53" fill="none" stroke="#000" stroke-opacity=".2" stroke-width="2"/><path d="m224.18-625.1 6 2.1-6 2.1z" fill-opacity=".2" stroke="#000" stroke-opacity=".2" stroke-width="2"/><a xlink:href="test-cases/general-features/src/md-page/client.js" xlink:title="client.js"><path d="m135.83-571.88h-42.16c-2.96 0-5.92 2.96-5.92 5.92v5.92c0 2.96 2.96 5.92 5.92 5.92h42.16c2.96 0 5.92-2.96 5.92-5.92v-5.92c0-2.96-2.96-5.92-5.92-5.92" fill="#cfc" stroke="#000"/><text font-family="Helvetica,sans-Serif" font-size="9" x="99.38" y="-559.33">client.js</text></a><a xlink:href="test-cases/general-features/src/md-page/page.vars.js" xlink:title="page.vars.js"><path d="m141.58-541.88h-53.66c-2.96 0-5.92 2.96-5.92 5.92v5.92c0 2.96 2.96 5.92 5.92 5.92h53.66c2.96 0 5.92-2.96 5.92-5.92v-5.92c0-2.96-2.96-5.92-5.92-5.92" fill="#cfc" stroke="#000"/><text font-family="Helvetica,sans-Serif" font-size="9" x="90" y="-529.33">page.vars.js</text></a><a xlink:href="test-cases/general-features/src/page.vars.js" xlink:title="page.vars.js"><path d="m141.58-237.88h-53.66c-2.96 0-5.92 2.96-5.92 5.92v5.92c0 2.96 2.96 5.92 5.92 5.92h53.66c2.96 0 5.92-2.96 5.92-5.92v-5.92c0-2.96-2.96-5.92-5.92-5.92" fill="#cfc" stroke="#000"/><text font-family="Helvetica,sans-Serif" font-size="9" x="90" y="-225.32">page.vars.js</text></a><a xlink:href="test-cases/general-features/src/templates/async-iterator.template.js" xlink:title="async&#45;iterator.template.js"><path d="m167.83-481.88h-106.16c-2.96 0-5.92 2.96-5.92 5.92v5.92c0 2.96 2.96 5.92 5.92 5.92h106.16c2.96 0 5.92-2.96 5.92-5.92v-5.92c0-2.96-2.96-5.92-5.92-5.92" fill="#cfc" stroke="#000"/><text font-family="Helvetica,sans-Serif" font-size="9" x="63.75" y="-469.32">async-iterator.template.js</text></a><a xlink:href="test-cases/general-features/src/templates/object-array.template.js" xlink:title="object&#45;array.template.js"><path d="m164.46-451.88h-99.42c-2.96 0-5.92 2.96-5.92 5.92v5.92c0 2.96 2.96 5.92 5.92 5.92h99.42c2.96 0 5.92-2.96 5.92-5.92v-5.92c0-2.96-2.96-5.92-5.92-5.92" fill="#cfc" stroke="#000"/><text font-family="Helvetica,sans-Serif" font-size="9" x="67.12" y="-439.32">object-array.template.js</text></a><a xlink:href="test-cases/general-features/src/templates/simple.txt.template.js" xlink:title="simple.txt.template.js"><path d="m159.21-421.88h-88.92c-2.96 0-5.91 2.96-5.91 5.92v5.92c0 2.96 2.95 5.92 5.91 5.92h88.92c2.96 0 5.91-2.96 5.91-5.92v-5.92c0-2.96-2.95-5.92-5.91-5.92" fill="#cfc" stroke="#000"/><text font-family="Helvetica,sans-Serif" font-size="9" x="72.38" y="-409.32">simple.txt.template.js</text></a><a xlink:href="test-cases/general-features/src/templates/single-object.template.js" xlink:title="single&#45;object.template.js"><path d="m166.33-391.88h-103.16c-2.96 0-5.92 2.96-5.92 5.92v5.92c0 2.96 2.96 5.92 5.92 5.92h103.16c2.96 0 5.92-2.96 5.92-5.92v-5.92c0-2.96-2.96-5.92-5.92-5.92" fill="#cfc" stroke="#000"/><text font-family="Helvetica,sans-Serif" font-size="9" x="65.25" y="-379.32">single-object.template.js</text></a><a xlink:href="test-cases/nested-dest/global.vars.js" xlink:title="global.vars.js"><path d="m143.83-2337.88h-58.16c-2.96 0-5.92 2.96-5.92 5.92v5.92c0 2.96 2.96 5.92 5.92 5.92h58.16c2.96 0 5.92-2.96 5.92-5.92v-5.92c0-2.96-2.96-5.92-5.92-5.92" fill="#cfc" stroke="#000"/><text font-family="Helvetica,sans-Serif" font-size="9" x="87.75" y="-2325.32">global.vars.js</text></a><a xlink:href="test-cases/nested-dest/index.test.js" xlink:title="index.test.js"><path d="m140.83-2307.88h-52.16c-2.96 0-5.92 2.96-5.92 5.92v5.92c0 2.96 2.96 5.92 5.92 5.92h52.16c2.96 0 5.92-2.96 5.92-5.92v-5.92c0-2.96-2.96-5.92-5.92-5.92" fill="#ffc" stroke="#000"/><text font-family="Helvetica,sans-Serif" font-size="9" x="90.75" y="-2295.32">index.test.js</text></a><path d="m147.02-2296.04c19.26.05 43.13-3.38 58.48-17.96 37.97-36.08 54.96-203.47 59.62-259.02" fill="none" stroke="#000" stroke-opacity=".2" stroke-width="2"/><path d="m263-2572.94 2.58-5.81 1.61 6.15z" fill-opacity=".2" stroke="#000" stroke-opacity=".2" stroke-width="2"/><path d="m146.82-2295.39c19.69.42 44.11-2.82 58.68-18.61 47.65-51.63-22.03-264.68 27-315 44.59-45.77 78.98-16 142.88-16h275.24c62.16 0 133.95-11.52 175.01-19.22" fill="none" stroke="#000" stroke-dasharray="5 2" stroke-opacity=".2"/><path d="m825.15-2666.27 6.29.94-5.5 3.19z" fill-opacity=".2" stroke="#000" stroke-opacity=".2"/><a xlink:href="test-cases/nested-dest/md-page/client.js" xlink:title="client.js"><path d="m135.83-2401.88h-42.16c-2.96 0-5.92 2.96-5.92 5.92v5.92c0 2.96 2.96 5.92 5.92 5.92h42.16c2.96 0 5.92-2.96 5.92-5.92v-5.92c0-2.96-2.96-5.92-5.92-5.92" fill="#cfc" stroke="#000"/><text font-family="Helvetica,sans-Serif" font-size="9" x="99.38" y="-2389.32">client.js</text></a><a xlink:href="test-cases/nested-dest/md-page/page.vars.js" xlink:title="page.vars.js"><path d="m141.58-2371.88h-53.66c-2.96 0-5.92 2.96-5.92 5.92v5.92c0 2.96 2.96 5.92 5.92 5.92h53.66c2.96 0 5.92-2.96 5.92-5.92v-5.92c0-2.96-2.96-5.92-5.92-5.92" fill="#cfc" stroke="#000"/><text font-family="Helvetica,sans-Serif" font-size="9" x="90" y="-2359.32">page.vars.js</text></a><a xlink:href="test-cases/nested-dest/public/md-page/client-BI3TWBFA.js" xlink:title="client&#45;BI3TWBFA.js"><path d="m155.83-2469.88h-82.16c-2.96 0-5.92 2.96-5.92 5.92v5.92c0 2.96 2.96 5.92 5.92 5.92h82.16c2.96 0 5.92-2.96 5.92-5.92v-5.92c0-2.96-2.96-5.92-5.92-5.92" fill="#cfc" stroke="#000"/><text font-family="Helvetica,sans-Serif" font-size="9" x="75.75" y="-2457.32">client-BI3TWBFA.js</text></a><a xlink:href="test-cases/page-build-errors/index.test.js" xlink:title="index.test.js"><path d="m140.83-2037.88h-52.16c-2.96 0-5.92 2.96-5.92 5.92v5.92c0 2.96 2.96 5.92 5.92 5.92h52.16c2.96 0 5.92-2.96 5.92-5.92v-5.92c0-2.96-2.96-5.92-5.92-5.92" fill="#ffc" stroke="#000"/><text font-family="Helvetica,sans-Serif" font-size="9" x="90.75" y="-2025.33">index.test.js</text></a><path d="m147.08-2025.12c19.55.55 43.7-2.5 58.42-17.88 37.56-39.25 56.47-439.74 60.27-530" fill="none" stroke="#000" stroke-opacity=".2" stroke-width="2"/><path d="m263.67-2572.87 2.34-5.91 1.85 6.08z" fill-opacity=".2" stroke="#000" stroke-opacity=".2" stroke-width="2"/><path d="m146.97-2024.83c19.76.74 44.2-2.22 58.53-18.17 41.86-46.59-16.33-517.78 27-563 22.06-23.02 110.99-13 142.88-13h275.24c74.83 0 96.48 1.37 166.5-25 8.75-3.29 17.58-8.6 24.87-13.64" fill="none" stroke="#000" stroke-dasharray="5 2" stroke-opacity=".2"/><path d="m840.39-2659.08 6.1-1.8-3.64 5.21z" fill-opacity=".2" stroke="#000" stroke-opacity=".2"/><a xlink:href="test-cases/page-build-errors/public/client-MPACHZ4G.js" xlink:title="client&#45;MPACHZ4G.js"><path d="m158.83-2221.88h-88.16c-2.96 0-5.92 2.96-5.92 5.92v5.92c0 2.96 2.96 5.92 5.92 5.92h88.16c2.96 0 5.92-2.96 5.92-5.92v-5.92c0-2.96-2.96-5.92-5.92-5.92" fill="#cfc" stroke="#000"/><text font-family="Helvetica,sans-Serif" font-size="9" x="72.75" y="-2209.32">client-MPACHZ4G.js</text></a><a xlink:href="test-cases/page-build-errors/src/another-broken-page/page.js" xlink:title="page.js"><path d="m135.83-2135.88h-42.16c-2.96 0-5.92 2.96-5.92 5.92v5.92c0 2.96 2.96 5.92 5.92 5.92h42.16c2.96 0 5.92-2.96 5.92-5.92v-5.92c0-2.96-2.96-5.92-5.92-5.92" fill="#cfc" stroke="#000"/><text font-family="Helvetica,sans-Serif" font-size="9" x="99.75" y="-2123.32">page.js</text></a><a xlink:href="test-cases/page-build-errors/src/client.js" xlink:title="client.js"><path d="m135.83-2101.88h-42.16c-2.96 0-5.92 2.96-5.92 5.92v5.92c0 2.96 2.96 5.92 5.92 5.92h42.16c2.96 0 5.92-2.96 5.92-5.92v-5.92c0-2.96-2.96-5.92-5.92-5.92" fill="#cfc" stroke="#000"/><text font-family="Helvetica,sans-Serif" font-size="9" x="99.38" y="-2089.32">client.js</text></a><a xlink:href="test-cases/page-build-errors/src/page.js" xlink:title="page.js"><path d="m135.83-2071.88h-42.16c-2.96 0-5.92 2.96-5.92 5.92v5.92c0 2.96 2.96 5.92 5.92 5.92h42.16c2.96 0 5.92-2.96 5.92-5.92v-5.92c0-2.96-2.96-5.92-5.92-5.92" fill="#cfc" stroke="#000"/><text font-family="Helvetica,sans-Serif" font-size="9" x="99.75" y="-2059.32">page.js</text></a></g></svg>