<?xml version="1.0" encoding="UTF-8" standalone="no"?>
<!DOCTYPE svg PUBLIC "-//W3C//DTD SVG 1.1//EN"
 "http://www.w3.org/Graphics/SVG/1.1/DTD/svg11.dtd">
<!-- Generated by graphviz version 2.48.0 (20210717.1556)
 -->
<!-- Title: dependency&#45;cruiser output Pages: 1 -->
<svg width="656pt" height="1616pt"
 viewBox="0.00 0.00 655.50 1616.46" xmlns="http://www.w3.org/2000/svg" xmlns:xlink="http://www.w3.org/1999/xlink">
<g id="graph0" class="graph" transform="scale(1 1) rotate(0) translate(4 1612.46)">
<title>dependency&#45;cruiser output</title>
<polygon fill="white" stroke="transparent" points="-4,4 -4,-1612.46 651.5,-1612.46 651.5,4 -4,4"/>
<g id="clust1" class="cluster">
<title>cluster_fs</title>
<path fill="#ffffff" stroke="black" stroke-width="2" d="M500,-53.46C500,-53.46 546,-53.46 546,-53.46 552,-53.46 558,-59.46 558,-65.46 558,-65.46 558,-93.46 558,-93.46 558,-99.46 552,-105.46 546,-105.46 546,-105.46 500,-105.46 500,-105.46 494,-105.46 488,-99.46 488,-93.46 488,-93.46 488,-65.46 488,-65.46 488,-59.46 494,-53.46 500,-53.46"/>
<text text-anchor="middle" x="523" y="-94.26" font-family="Helvetica,sans-Serif" font-weight="bold" font-size="9.00">fs</text>
</g>
<g id="clust2" class="cluster">
<title>cluster_lib</title>
<path fill="#ffffff" stroke="black" stroke-width="2" d="M21.5,-113.46C21.5,-113.46 573.5,-113.46 573.5,-113.46 579.5,-113.46 585.5,-119.46 585.5,-125.46 585.5,-125.46 585.5,-673.46 585.5,-673.46 585.5,-679.46 579.5,-685.46 573.5,-685.46 573.5,-685.46 21.5,-685.46 21.5,-685.46 15.5,-685.46 9.5,-679.46 9.5,-673.46 9.5,-673.46 9.5,-125.46 9.5,-125.46 9.5,-119.46 15.5,-113.46 21.5,-113.46"/>
<text text-anchor="middle" x="297.5" y="-674.26" font-family="Helvetica,sans-Serif" font-weight="bold" font-size="9.00">lib</text>
</g>
<g id="clust3" class="cluster">
<title>cluster_lib/build&#45;css</title>
<path fill="#ffffff" stroke="black" stroke-width="2" d="M160,-487.46C160,-487.46 206,-487.46 206,-487.46 212,-487.46 218,-493.46 218,-499.46 218,-499.46 218,-527.46 218,-527.46 218,-533.46 212,-539.46 206,-539.46 206,-539.46 160,-539.46 160,-539.46 154,-539.46 148,-533.46 148,-527.46 148,-527.46 148,-499.46 148,-499.46 148,-493.46 154,-487.46 160,-487.46"/>
<text text-anchor="middle" x="183" y="-528.26" font-family="Helvetica,sans-Serif" font-weight="bold" font-size="9.00">build&#45;css</text>
</g>
<g id="clust4" class="cluster">
<title>cluster_lib/build&#45;js</title>
<path fill="#ffffff" stroke="black" stroke-width="2" d="M160,-607.46C160,-607.46 206,-607.46 206,-607.46 212,-607.46 218,-613.46 218,-619.46 218,-619.46 218,-647.46 218,-647.46 218,-653.46 212,-659.46 206,-659.46 206,-659.46 160,-659.46 160,-659.46 154,-659.46 148,-653.46 148,-647.46 148,-647.46 148,-619.46 148,-619.46 148,-613.46 154,-607.46 160,-607.46"/>
<text text-anchor="middle" x="183" y="-648.26" font-family="Helvetica,sans-Serif" font-weight="bold" font-size="9.00">build&#45;js</text>
</g>
<g id="clust5" class="cluster">
<title>cluster_lib/build&#45;pages</title>
<path fill="#ffffff" stroke="black" stroke-width="2" d="M160,-121.46C160,-121.46 565.5,-121.46 565.5,-121.46 571.5,-121.46 577.5,-127.46 577.5,-133.46 577.5,-133.46 577.5,-441.46 577.5,-441.46 577.5,-447.46 571.5,-453.46 565.5,-453.46 565.5,-453.46 160,-453.46 160,-453.46 154,-453.46 148,-447.46 148,-441.46 148,-441.46 148,-133.46 148,-133.46 148,-127.46 154,-121.46 160,-121.46"/>
<text text-anchor="middle" x="362.75" y="-442.26" font-family="Helvetica,sans-Serif" font-weight="bold" font-size="9.00">build&#45;pages</text>
</g>
<g id="clust6" class="cluster">
<title>cluster_lib/build&#45;pages/page&#45;builders</title>
<path fill="#ffffff" stroke="black" stroke-width="2" d="M272.5,-129.46C272.5,-129.46 557.5,-129.46 557.5,-129.46 563.5,-129.46 569.5,-135.46 569.5,-141.46 569.5,-141.46 569.5,-375.46 569.5,-375.46 569.5,-381.46 563.5,-387.46 557.5,-387.46 557.5,-387.46 272.5,-387.46 272.5,-387.46 266.5,-387.46 260.5,-381.46 260.5,-375.46 260.5,-375.46 260.5,-141.46 260.5,-141.46 260.5,-135.46 266.5,-129.46 272.5,-129.46"/>
<text text-anchor="middle" x="415" y="-376.26" font-family="Helvetica,sans-Serif" font-weight="bold" font-size="9.00">page&#45;builders</text>
</g>
<g id="clust7" class="cluster">
<title>cluster_lib/build&#45;pages/page&#45;builders/html</title>
<path fill="#ffffff" stroke="black" stroke-width="2" d="M397,-197.46C397,-197.46 443,-197.46 443,-197.46 449,-197.46 455,-203.46 455,-209.46 455,-209.46 455,-237.46 455,-237.46 455,-243.46 449,-249.46 443,-249.46 443,-249.46 397,-249.46 397,-249.46 391,-249.46 385,-243.46 385,-237.46 385,-237.46 385,-209.46 385,-209.46 385,-203.46 391,-197.46 397,-197.46"/>
<text text-anchor="middle" x="420" y="-238.26" font-family="Helvetica,sans-Serif" font-weight="bold" font-size="9.00">html</text>
</g>
<g id="clust9" class="cluster">
<title>cluster_lib/build&#45;pages/page&#45;builders/md</title>
<path fill="#ffffff" stroke="black" stroke-width="2" d="M397,-137.46C397,-137.46 443,-137.46 443,-137.46 449,-137.46 455,-143.46 455,-149.46 455,-149.46 455,-177.46 455,-177.46 455,-183.46 449,-189.46 443,-189.46 443,-189.46 397,-189.46 397,-189.46 391,-189.46 385,-183.46 385,-177.46 385,-177.46 385,-149.46 385,-149.46 385,-143.46 391,-137.46 397,-137.46"/>
<text text-anchor="middle" x="420" y="-178.26" font-family="Helvetica,sans-Serif" font-weight="bold" font-size="9.00">md</text>
</g>
<g id="clust8" class="cluster">
<title>cluster_lib/build&#45;pages/page&#45;builders/js</title>
<path fill="#ffffff" stroke="black" stroke-width="2" d="M397,-283.46C397,-283.46 443,-283.46 443,-283.46 449,-283.46 455,-289.46 455,-295.46 455,-295.46 455,-323.46 455,-323.46 455,-329.46 449,-335.46 443,-335.46 443,-335.46 397,-335.46 397,-335.46 391,-335.46 385,-329.46 385,-323.46 385,-323.46 385,-295.46 385,-295.46 385,-289.46 391,-283.46 397,-283.46"/>
<text text-anchor="middle" x="420" y="-324.26" font-family="Helvetica,sans-Serif" font-weight="bold" font-size="9.00">js</text>
</g>
<g id="clust10" class="cluster">
<title>cluster_lib/build&#45;static</title>
<path fill="#ffffff" stroke="black" stroke-width="2" d="M160,-547.46C160,-547.46 206,-547.46 206,-547.46 212,-547.46 218,-553.46 218,-559.46 218,-559.46 218,-587.46 218,-587.46 218,-593.46 212,-599.46 206,-599.46 206,-599.46 160,-599.46 160,-599.46 154,-599.46 148,-593.46 148,-587.46 148,-587.46 148,-559.46 148,-559.46 148,-553.46 154,-547.46 160,-547.46"/>
<text text-anchor="middle" x="183" y="-588.26" font-family="Helvetica,sans-Serif" font-weight="bold" font-size="9.00">build&#45;static</text>
</g>
<g id="clust11" class="cluster">
<title>cluster_test&#45;project</title>
<path fill="#ffffff" stroke="black" stroke-width="2" d="M20,-804.46C20,-804.46 348.5,-804.46 348.5,-804.46 354.5,-804.46 360.5,-810.46 360.5,-816.46 360.5,-816.46 360.5,-1588.46 360.5,-1588.46 360.5,-1594.46 354.5,-1600.46 348.5,-1600.46 348.5,-1600.46 20,-1600.46 20,-1600.46 14,-1600.46 8,-1594.46 8,-1588.46 8,-1588.46 8,-816.46 8,-816.46 8,-810.46 14,-804.46 20,-804.46"/>
<text text-anchor="middle" x="184.25" y="-1589.26" font-family="Helvetica,sans-Serif" font-weight="bold" font-size="9.00">test&#45;project</text>
</g>
<g id="clust12" class="cluster">
<title>cluster_test&#45;project/public</title>
<path fill="#ffffff" stroke="black" stroke-width="2" d="M28,-1348.46C28,-1348.46 340.5,-1348.46 340.5,-1348.46 346.5,-1348.46 352.5,-1354.46 352.5,-1360.46 352.5,-1360.46 352.5,-1562.46 352.5,-1562.46 352.5,-1568.46 346.5,-1574.46 340.5,-1574.46 340.5,-1574.46 28,-1574.46 28,-1574.46 22,-1574.46 16,-1568.46 16,-1562.46 16,-1562.46 16,-1360.46 16,-1360.46 16,-1354.46 22,-1348.46 28,-1348.46"/>
<text text-anchor="middle" x="184.25" y="-1563.26" font-family="Helvetica,sans-Serif" font-weight="bold" font-size="9.00">public</text>
</g>
<g id="clust13" class="cluster">
<title>cluster_test&#45;project/public/a&#45;page</title>
<path fill="#ffffff" stroke="black" stroke-width="2" d="M36,-1436.46C36,-1436.46 98,-1436.46 98,-1436.46 104,-1436.46 110,-1442.46 110,-1448.46 110,-1448.46 110,-1536.46 110,-1536.46 110,-1542.46 104,-1548.46 98,-1548.46 98,-1548.46 36,-1548.46 36,-1548.46 30,-1548.46 24,-1542.46 24,-1536.46 24,-1536.46 24,-1448.46 24,-1448.46 24,-1442.46 30,-1436.46 36,-1436.46"/>
<text text-anchor="middle" x="67" y="-1537.26" font-family="Helvetica,sans-Serif" font-weight="bold" font-size="9.00">a&#45;page</text>
</g>
<g id="clust14" class="cluster">
<title>cluster_test&#45;project/public/a&#45;page/nested&#45;page</title>
<path fill="#ffffff" stroke="black" stroke-width="2" d="M44,-1470.46C44,-1470.46 90,-1470.46 90,-1470.46 96,-1470.46 102,-1476.46 102,-1482.46 102,-1482.46 102,-1510.46 102,-1510.46 102,-1516.46 96,-1522.46 90,-1522.46 90,-1522.46 44,-1522.46 44,-1522.46 38,-1522.46 32,-1516.46 32,-1510.46 32,-1510.46 32,-1482.46 32,-1482.46 32,-1476.46 38,-1470.46 44,-1470.46"/>
<text text-anchor="middle" x="67" y="-1511.26" font-family="Helvetica,sans-Serif" font-weight="bold" font-size="9.00">nested&#45;page</text>
</g>
<g id="clust15" class="cluster">
<title>cluster_test&#45;project/public/html&#45;page</title>
<path fill="#ffffff" stroke="black" stroke-width="2" d="M160,-1442.46C160,-1442.46 206,-1442.46 206,-1442.46 212,-1442.46 218,-1448.46 218,-1454.46 218,-1454.46 218,-1482.46 218,-1482.46 218,-1488.46 212,-1494.46 206,-1494.46 206,-1494.46 160,-1494.46 160,-1494.46 154,-1494.46 148,-1488.46 148,-1482.46 148,-1482.46 148,-1454.46 148,-1454.46 148,-1448.46 154,-1442.46 160,-1442.46"/>
<text text-anchor="middle" x="183" y="-1483.26" font-family="Helvetica,sans-Serif" font-weight="bold" font-size="9.00">html&#45;page</text>
</g>
<g id="clust16" class="cluster">
<title>cluster_test&#45;project/public/md&#45;page</title>
<path fill="#ffffff" stroke="black" stroke-width="2" d="M160,-1382.46C160,-1382.46 206,-1382.46 206,-1382.46 212,-1382.46 218,-1388.46 218,-1394.46 218,-1394.46 218,-1422.46 218,-1422.46 218,-1428.46 212,-1434.46 206,-1434.46 206,-1434.46 160,-1434.46 160,-1434.46 154,-1434.46 148,-1428.46 148,-1422.46 148,-1422.46 148,-1394.46 148,-1394.46 148,-1388.46 154,-1382.46 160,-1382.46"/>
<text text-anchor="middle" x="183" y="-1423.26" font-family="Helvetica,sans-Serif" font-weight="bold" font-size="9.00">md&#45;page</text>
</g>
<g id="clust17" class="cluster">
<title>cluster_test&#45;project/src</title>
<path fill="#ffffff" stroke="black" stroke-width="2" d="M28,-812.46C28,-812.46 222,-812.46 222,-812.46 228,-812.46 234,-818.46 234,-824.46 234,-824.46 234,-1328.46 234,-1328.46 234,-1334.46 228,-1340.46 222,-1340.46 222,-1340.46 28,-1340.46 28,-1340.46 22,-1340.46 16,-1334.46 16,-1328.46 16,-1328.46 16,-824.46 16,-824.46 16,-818.46 22,-812.46 28,-812.46"/>
<text text-anchor="middle" x="125" y="-1329.26" font-family="Helvetica,sans-Serif" font-weight="bold" font-size="9.00">src</text>
</g>
<g id="clust18" class="cluster">
<title>cluster_test&#45;project/src/a&#45;page</title>
<path fill="#ffffff" stroke="black" stroke-width="2" d="M36,-1146.46C36,-1146.46 214,-1146.46 214,-1146.46 220,-1146.46 226,-1152.46 226,-1158.46 226,-1158.46 226,-1302.46 226,-1302.46 226,-1308.46 220,-1314.46 214,-1314.46 214,-1314.46 36,-1314.46 36,-1314.46 30,-1314.46 24,-1308.46 24,-1302.46 24,-1302.46 24,-1158.46 24,-1158.46 24,-1152.46 30,-1146.46 36,-1146.46"/>
<text text-anchor="middle" x="125" y="-1303.26" font-family="Helvetica,sans-Serif" font-weight="bold" font-size="9.00">a&#45;page</text>
</g>
<g id="clust19" class="cluster">
<title>cluster_test&#45;project/src/a&#45;page/libs</title>
<path fill="#ffffff" stroke="black" stroke-width="2" d="M160,-1210.46C160,-1210.46 206,-1210.46 206,-1210.46 212,-1210.46 218,-1216.46 218,-1222.46 218,-1222.46 218,-1250.46 218,-1250.46 218,-1256.46 212,-1262.46 206,-1262.46 206,-1262.46 160,-1262.46 160,-1262.46 154,-1262.46 148,-1256.46 148,-1250.46 148,-1250.46 148,-1222.46 148,-1222.46 148,-1216.46 154,-1210.46 160,-1210.46"/>
<text text-anchor="middle" x="183" y="-1251.26" font-family="Helvetica,sans-Serif" font-weight="bold" font-size="9.00">libs</text>
</g>
<g id="clust20" class="cluster">
<title>cluster_test&#45;project/src/a&#45;page/nested&#45;page</title>
<path fill="#ffffff" stroke="black" stroke-width="2" d="M44,-1180.46C44,-1180.46 90,-1180.46 90,-1180.46 96,-1180.46 102,-1186.46 102,-1192.46 102,-1192.46 102,-1250.46 102,-1250.46 102,-1256.46 96,-1262.46 90,-1262.46 90,-1262.46 44,-1262.46 44,-1262.46 38,-1262.46 32,-1256.46 32,-1250.46 32,-1250.46 32,-1192.46 32,-1192.46 32,-1186.46 38,-1180.46 44,-1180.46"/>
<text text-anchor="middle" x="67" y="-1251.26" font-family="Helvetica,sans-Serif" font-weight="bold" font-size="9.00">nested&#45;page</text>
</g>
<g id="clust21" class="cluster">
<title>cluster_test&#45;project/src/conflict&#45;page</title>
<path fill="#ffffff" stroke="black" stroke-width="2" d="M43,-1086.46C43,-1086.46 92,-1086.46 92,-1086.46 98,-1086.46 104,-1092.46 104,-1098.46 104,-1098.46 104,-1126.46 104,-1126.46 104,-1132.46 98,-1138.46 92,-1138.46 92,-1138.46 43,-1138.46 43,-1138.46 37,-1138.46 31,-1132.46 31,-1126.46 31,-1126.46 31,-1098.46 31,-1098.46 31,-1092.46 37,-1086.46 43,-1086.46"/>
<text text-anchor="middle" x="67.5" y="-1127.26" font-family="Helvetica,sans-Serif" font-weight="bold" font-size="9.00">conflict&#45;page</text>
</g>
<g id="clust22" class="cluster">
<title>cluster_test&#45;project/src/html&#45;page</title>
<path fill="#ffffff" stroke="black" stroke-width="2" d="M38.5,-996.46C38.5,-996.46 95.5,-996.46 95.5,-996.46 101.5,-996.46 107.5,-1002.46 107.5,-1008.46 107.5,-1008.46 107.5,-1066.46 107.5,-1066.46 107.5,-1072.46 101.5,-1078.46 95.5,-1078.46 95.5,-1078.46 38.5,-1078.46 38.5,-1078.46 32.5,-1078.46 26.5,-1072.46 26.5,-1066.46 26.5,-1066.46 26.5,-1008.46 26.5,-1008.46 26.5,-1002.46 32.5,-996.46 38.5,-996.46"/>
<text text-anchor="middle" x="67" y="-1067.26" font-family="Helvetica,sans-Serif" font-weight="bold" font-size="9.00">html&#45;page</text>
</g>
<g id="clust23" class="cluster">
<title>cluster_test&#45;project/src/md&#45;page</title>
<path fill="#ffffff" stroke="black" stroke-width="2" d="M44,-936.46C44,-936.46 90,-936.46 90,-936.46 96,-936.46 102,-942.46 102,-948.46 102,-948.46 102,-976.46 102,-976.46 102,-982.46 96,-988.46 90,-988.46 90,-988.46 44,-988.46 44,-988.46 38,-988.46 32,-982.46 32,-976.46 32,-976.46 32,-948.46 32,-948.46 32,-942.46 38,-936.46 44,-936.46"/>
<text text-anchor="middle" x="67" y="-977.26" font-family="Helvetica,sans-Serif" font-weight="bold" font-size="9.00">md&#45;page</text>
</g>
<!-- fs/promises -->
<g id="node1" class="node">
<title>fs/promises</title>
<path fill="#ffffcc" stroke="grey" d="M544,-79.46C544,-79.46 502,-79.46 502,-79.46 499,-79.46 496,-76.46 496,-73.46 496,-73.46 496,-67.46 496,-67.46 496,-64.46 499,-61.46 502,-61.46 502,-61.46 544,-61.46 544,-61.46 547,-61.46 550,-64.46 550,-67.46 550,-67.46 550,-73.46 550,-73.46 550,-76.46 547,-79.46 544,-79.46"/>
<text text-anchor="middle" x="523" y="-68.26" font-family="Helvetica,sans-Serif" font-size="9.00" fill="grey">promises</text>
</g>
<!-- lib/build&#45;css/index.js -->
<g id="node2" class="node">
<title>lib/build&#45;css/index.js</title>
<g id="a_node2"><a xlink:href="lib/build-css/index.js" xlink:title="index.js">
<path fill="#ffffcc" stroke="black" d="M204,-513.46C204,-513.46 162,-513.46 162,-513.46 159,-513.46 156,-510.46 156,-507.46 156,-507.46 156,-501.46 156,-501.46 156,-498.46 159,-495.46 162,-495.46 162,-495.46 204,-495.46 204,-495.46 207,-495.46 210,-498.46 210,-501.46 210,-501.46 210,-507.46 210,-507.46 210,-510.46 207,-513.46 204,-513.46"/>
<text text-anchor="middle" x="183" y="-502.26" font-family="Helvetica,sans-Serif" font-size="9.00">index.js</text>
</a>
</g>
</g>
<!-- lib/build&#45;css/index.js&#45;&gt;fs/promises -->
<g id="edge1" class="edge">
<title>lib/build&#45;css/index.js&#45;&gt;fs/promises</title>
<path fill="none" stroke="#000000" stroke-dasharray="5,2" stroke-opacity="0.200000" d="M210.04,-503.81C219,-502.19 228.22,-498.67 234,-491.46 259.37,-459.79 220.17,-157.34 246.5,-126.46 312.6,-48.92 371.91,-104.02 471.5,-82.46 477.45,-81.18 483.77,-79.73 489.85,-78.31"/>
<polygon fill="#000000" fill-opacity="0.200000" stroke="#000000" stroke-opacity="0.200000" points="490.48,-80.32 495.84,-76.89 489.51,-76.23 490.48,-80.32"/>
</g>
<!-- path -->
<g id="node3" class="node">
<title>path</title>
<path fill="#ffffcc" stroke="grey" d="M641.5,-441.46C641.5,-441.46 599.5,-441.46 599.5,-441.46 596.5,-441.46 593.5,-438.46 593.5,-435.46 593.5,-435.46 593.5,-429.46 593.5,-429.46 593.5,-426.46 596.5,-423.46 599.5,-423.46 599.5,-423.46 641.5,-423.46 641.5,-423.46 644.5,-423.46 647.5,-426.46 647.5,-429.46 647.5,-429.46 647.5,-435.46 647.5,-435.46 647.5,-438.46 644.5,-441.46 641.5,-441.46"/>
<text text-anchor="middle" x="620.5" y="-430.26" font-family="Helvetica,sans-Serif" font-size="9.00" fill="grey">path</text>
</g>
<!-- lib/build&#45;css/index.js&#45;&gt;path -->
<g id="edge2" class="edge">
<title>lib/build&#45;css/index.js&#45;&gt;path</title>
<path fill="none" stroke="#000000" stroke-dasharray="5,2" stroke-opacity="0.200000" d="M195.41,-513.47C249.24,-555.96 475.7,-734.45 484.5,-737.46 526.97,-752 552.05,-767.39 585.5,-737.46 607.34,-717.92 616.75,-506.68 618.97,-447.69"/>
<polygon fill="#000000" fill-opacity="0.200000" stroke="#000000" stroke-opacity="0.200000" points="621.07,-447.64 619.19,-441.56 616.87,-447.48 621.07,-447.64"/>
</g>
<!-- lib/build&#45;js/index.js -->
<g id="node4" class="node">
<title>lib/build&#45;js/index.js</title>
<g id="a_node4"><a xlink:href="lib/build-js/index.js" xlink:title="index.js">
<path fill="#ffffcc" stroke="black" d="M204,-633.46C204,-633.46 162,-633.46 162,-633.46 159,-633.46 156,-630.46 156,-627.46 156,-627.46 156,-621.46 156,-621.46 156,-618.46 159,-615.46 162,-615.46 162,-615.46 204,-615.46 204,-615.46 207,-615.46 210,-618.46 210,-621.46 210,-621.46 210,-627.46 210,-627.46 210,-630.46 207,-633.46 204,-633.46"/>
<text text-anchor="middle" x="183" y="-622.26" font-family="Helvetica,sans-Serif" font-size="9.00">index.js</text>
</a>
</g>
</g>
<!-- lib/build&#45;js/index.js&#45;&gt;path -->
<g id="edge3" class="edge">
<title>lib/build&#45;js/index.js&#45;&gt;path</title>
<path fill="none" stroke="#000000" stroke-dasharray="5,2" stroke-opacity="0.200000" d="M184.48,-633.8C186.46,-661.42 196.49,-742.95 246.5,-776.46 301.53,-813.34 544.64,-795.85 585.5,-755.46 607.65,-733.57 616.89,-508.86 619.01,-447.74"/>
<polygon fill="#000000" fill-opacity="0.200000" stroke="#000000" stroke-opacity="0.200000" points="621.11,-447.79 619.21,-441.73 616.91,-447.65 621.11,-447.79"/>
</g>
<!-- lib/build&#45;pages/index.js -->
<g id="node5" class="node">
<title>lib/build&#45;pages/index.js</title>
<g id="a_node5"><a xlink:href="lib/build-pages/index.js" xlink:title="index.js">
<path fill="#ffffcc" stroke="black" d="M204,-416.46C204,-416.46 162,-416.46 162,-416.46 159,-416.46 156,-413.46 156,-410.46 156,-410.46 156,-404.46 156,-404.46 156,-401.46 159,-398.46 162,-398.46 162,-398.46 204,-398.46 204,-398.46 207,-398.46 210,-401.46 210,-404.46 210,-404.46 210,-410.46 210,-410.46 210,-413.46 207,-416.46 204,-416.46"/>
<text text-anchor="middle" x="183" y="-405.26" font-family="Helvetica,sans-Serif" font-size="9.00">index.js</text>
</a>
</g>
</g>
<!-- lib/build&#45;pages/page&#45;builders/index.js -->
<g id="node6" class="node">
<title>lib/build&#45;pages/page&#45;builders/index.js</title>
<g id="a_node6"><a xlink:href="lib/build-pages/page-builders/index.js" xlink:title="index.js">
<path fill="#ffffcc" stroke="black" d="M316.5,-275.46C316.5,-275.46 274.5,-275.46 274.5,-275.46 271.5,-275.46 268.5,-272.46 268.5,-269.46 268.5,-269.46 268.5,-263.46 268.5,-263.46 268.5,-260.46 271.5,-257.46 274.5,-257.46 274.5,-257.46 316.5,-257.46 316.5,-257.46 319.5,-257.46 322.5,-260.46 322.5,-263.46 322.5,-263.46 322.5,-269.46 322.5,-269.46 322.5,-272.46 319.5,-275.46 316.5,-275.46"/>
<text text-anchor="middle" x="295.5" y="-264.26" font-family="Helvetica,sans-Serif" font-size="9.00">index.js</text>
</a>
</g>
</g>
<!-- lib/build&#45;pages/index.js&#45;&gt;lib/build&#45;pages/page&#45;builders/index.js -->
<g id="edge4" class="edge">
<title>lib/build&#45;pages/index.js&#45;&gt;lib/build&#45;pages/page&#45;builders/index.js</title>
<path fill="none" stroke="#000000" stroke-width="2" stroke-opacity="0.200000" d="M185.73,-398.44C190.69,-375.02 207.23,-311.91 246.5,-279.46 251,-275.75 256.46,-273.09 262.07,-271.19"/>
<polygon fill="#000000" fill-opacity="0.200000" stroke="#000000" stroke-width="2" stroke-opacity="0.200000" points="263.01,-273.1 268.18,-269.4 261.83,-269.07 263.01,-273.1"/>
</g>
<!-- lib/build&#45;pages/resolve&#45;layout.js -->
<g id="node7" class="node">
<title>lib/build&#45;pages/resolve&#45;layout.js</title>
<g id="a_node7"><a xlink:href="lib/build-pages/resolve-layout.js" xlink:title="resolve&#45;layout.js">
<path fill="#ffffcc" stroke="black" d="M330.5,-427.46C330.5,-427.46 260.5,-427.46 260.5,-427.46 257.5,-427.46 254.5,-424.46 254.5,-421.46 254.5,-421.46 254.5,-415.46 254.5,-415.46 254.5,-412.46 257.5,-409.46 260.5,-409.46 260.5,-409.46 330.5,-409.46 330.5,-409.46 333.5,-409.46 336.5,-412.46 336.5,-415.46 336.5,-415.46 336.5,-421.46 336.5,-421.46 336.5,-424.46 333.5,-427.46 330.5,-427.46"/>
<text text-anchor="middle" x="295.5" y="-416.26" font-family="Helvetica,sans-Serif" font-size="9.00">resolve&#45;layout.js</text>
</a>
</g>
</g>
<!-- lib/build&#45;pages/index.js&#45;&gt;lib/build&#45;pages/resolve&#45;layout.js -->
<g id="edge5" class="edge">
<title>lib/build&#45;pages/index.js&#45;&gt;lib/build&#45;pages/resolve&#45;layout.js</title>
<path fill="none" stroke="#000000" stroke-width="2" stroke-opacity="0.200000" d="M210.19,-410.07C221.49,-411.19 235.05,-412.55 247.96,-413.83"/>
<polygon fill="#000000" fill-opacity="0.200000" stroke="#000000" stroke-width="2" stroke-opacity="0.200000" points="248.06,-415.95 254.24,-414.46 248.48,-411.77 248.06,-415.95"/>
</g>
<!-- lib/build&#45;pages/resolve&#45;vars.js -->
<g id="node8" class="node">
<title>lib/build&#45;pages/resolve&#45;vars.js</title>
<g id="a_node8"><a xlink:href="lib/build-pages/resolve-vars.js" xlink:title="resolve&#45;vars.js">
<path fill="#ffffcc" stroke="black" d="M554.5,-413.46C554.5,-413.46 491.5,-413.46 491.5,-413.46 488.5,-413.46 485.5,-410.46 485.5,-407.46 485.5,-407.46 485.5,-401.46 485.5,-401.46 485.5,-398.46 488.5,-395.46 491.5,-395.46 491.5,-395.46 554.5,-395.46 554.5,-395.46 557.5,-395.46 560.5,-398.46 560.5,-401.46 560.5,-401.46 560.5,-407.46 560.5,-407.46 560.5,-410.46 557.5,-413.46 554.5,-413.46"/>
<text text-anchor="middle" x="523" y="-402.26" font-family="Helvetica,sans-Serif" font-size="9.00">resolve&#45;vars.js</text>
</a>
</g>
</g>
<!-- lib/build&#45;pages/index.js&#45;&gt;lib/build&#45;pages/resolve&#45;vars.js -->
<g id="edge6" class="edge">
<title>lib/build&#45;pages/index.js&#45;&gt;lib/build&#45;pages/resolve&#45;vars.js</title>
<path fill="none" stroke="#000000" stroke-width="2" stroke-opacity="0.200000" d="M210.13,-405.42C221.33,-404.64 234.55,-403.85 246.5,-403.46 328.9,-400.83 425.23,-402.2 479.38,-403.37"/>
<polygon fill="#000000" fill-opacity="0.200000" stroke="#000000" stroke-width="2" stroke-opacity="0.200000" points="479.4,-405.47 485.45,-403.5 479.49,-401.27 479.4,-405.47"/>
</g>
<!-- lib/build&#45;pages/page&#45;builders/create&#45;page&#45;builder.js -->
<g id="node9" class="node">
<title>lib/build&#45;pages/page&#45;builders/create&#45;page&#45;builder.js</title>
<g id="a_node9"><a xlink:href="lib/build-pages/page-builders/create-page-builder.js" xlink:title="create&#45;page&#45;builder.js">
<path fill="#ffffcc" stroke="black" d="M465.5,-275.46C465.5,-275.46 374.5,-275.46 374.5,-275.46 371.5,-275.46 368.5,-272.46 368.5,-269.46 368.5,-269.46 368.5,-263.46 368.5,-263.46 368.5,-260.46 371.5,-257.46 374.5,-257.46 374.5,-257.46 465.5,-257.46 465.5,-257.46 468.5,-257.46 471.5,-260.46 471.5,-263.46 471.5,-263.46 471.5,-269.46 471.5,-269.46 471.5,-272.46 468.5,-275.46 465.5,-275.46"/>
<text text-anchor="middle" x="420" y="-264.26" font-family="Helvetica,sans-Serif" font-size="9.00">create&#45;page&#45;builder.js</text>
</a>
</g>
</g>
<!-- lib/build&#45;pages/page&#45;builders/index.js&#45;&gt;lib/build&#45;pages/page&#45;builders/create&#45;page&#45;builder.js -->
<g id="edge15" class="edge">
<title>lib/build&#45;pages/page&#45;builders/index.js&#45;&gt;lib/build&#45;pages/page&#45;builders/create&#45;page&#45;builder.js</title>
<path fill="none" stroke="#000000" stroke-width="2" stroke-opacity="0.200000" d="M322.78,-266.46C334.24,-266.46 348.16,-266.46 361.81,-266.46"/>
<polygon fill="#000000" fill-opacity="0.200000" stroke="#000000" stroke-width="2" stroke-opacity="0.200000" points="362.05,-268.56 368.05,-266.46 362.05,-264.36 362.05,-268.56"/>
</g>
<!-- lib/build&#45;pages/page&#45;builders/html/index.js -->
<g id="node13" class="node">
<title>lib/build&#45;pages/page&#45;builders/html/index.js</title>
<g id="a_node13"><a xlink:href="lib/build-pages/page-builders/html/index.js" xlink:title="index.js">
<path fill="#ffffcc" stroke="black" d="M441,-223.46C441,-223.46 399,-223.46 399,-223.46 396,-223.46 393,-220.46 393,-217.46 393,-217.46 393,-211.46 393,-211.46 393,-208.46 396,-205.46 399,-205.46 399,-205.46 441,-205.46 441,-205.46 444,-205.46 447,-208.46 447,-211.46 447,-211.46 447,-217.46 447,-217.46 447,-220.46 444,-223.46 441,-223.46"/>
<text text-anchor="middle" x="420" y="-212.26" font-family="Helvetica,sans-Serif" font-size="9.00">index.js</text>
</a>
</g>
</g>
<!-- lib/build&#45;pages/page&#45;builders/index.js&#45;&gt;lib/build&#45;pages/page&#45;builders/html/index.js -->
<g id="edge16" class="edge">
<title>lib/build&#45;pages/page&#45;builders/index.js&#45;&gt;lib/build&#45;pages/page&#45;builders/html/index.js</title>
<path fill="none" stroke="#000000" stroke-width="2" stroke-opacity="0.200000" d="M310.88,-257.3C325.07,-248.6 347.59,-235.67 368.5,-227.46 374.31,-225.18 380.66,-223.18 386.84,-221.48"/>
<polygon fill="#000000" fill-opacity="0.200000" stroke="#000000" stroke-width="2" stroke-opacity="0.200000" points="387.65,-223.44 392.92,-219.88 386.59,-219.38 387.65,-223.44"/>
</g>
<!-- lib/build&#45;pages/page&#45;builders/js/index.js -->
<g id="node14" class="node">
<title>lib/build&#45;pages/page&#45;builders/js/index.js</title>
<g id="a_node14"><a xlink:href="lib/build-pages/page-builders/js/index.js" xlink:title="index.js">
<path fill="#ffffcc" stroke="black" d="M441,-309.46C441,-309.46 399,-309.46 399,-309.46 396,-309.46 393,-306.46 393,-303.46 393,-303.46 393,-297.46 393,-297.46 393,-294.46 396,-291.46 399,-291.46 399,-291.46 441,-291.46 441,-291.46 444,-291.46 447,-294.46 447,-297.46 447,-297.46 447,-303.46 447,-303.46 447,-306.46 444,-309.46 441,-309.46"/>
<text text-anchor="middle" x="420" y="-298.26" font-family="Helvetica,sans-Serif" font-size="9.00">index.js</text>
</a>
</g>
</g>
<!-- lib/build&#45;pages/page&#45;builders/index.js&#45;&gt;lib/build&#45;pages/page&#45;builders/js/index.js -->
<g id="edge17" class="edge">
<title>lib/build&#45;pages/page&#45;builders/index.js&#45;&gt;lib/build&#45;pages/page&#45;builders/js/index.js</title>
<path fill="none" stroke="#000000" stroke-width="2" stroke-opacity="0.200000" d="M322.59,-268.29C334.69,-269.99 348.91,-273.24 360.5,-279.46 364.93,-281.84 364.13,-284.97 368.5,-287.46 374.16,-290.69 380.63,-293.13 387,-294.98"/>
<polygon fill="#000000" fill-opacity="0.200000" stroke="#000000" stroke-width="2" stroke-opacity="0.200000" points="386.47,-297.01 392.8,-296.5 387.54,-292.94 386.47,-297.01"/>
</g>
<!-- lib/build&#45;pages/page&#45;builders/md/index.js -->
<g id="node15" class="node">
<title>lib/build&#45;pages/page&#45;builders/md/index.js</title>
<g id="a_node15"><a xlink:href="lib/build-pages/page-builders/md/index.js" xlink:title="index.js">
<path fill="#ffffcc" stroke="black" d="M441,-163.46C441,-163.46 399,-163.46 399,-163.46 396,-163.46 393,-160.46 393,-157.46 393,-157.46 393,-151.46 393,-151.46 393,-148.46 396,-145.46 399,-145.46 399,-145.46 441,-145.46 441,-145.46 444,-145.46 447,-148.46 447,-151.46 447,-151.46 447,-157.46 447,-157.46 447,-160.46 444,-163.46 441,-163.46"/>
<text text-anchor="middle" x="420" y="-152.26" font-family="Helvetica,sans-Serif" font-size="9.00">index.js</text>
</a>
</g>
</g>
<!-- lib/build&#45;pages/page&#45;builders/index.js&#45;&gt;lib/build&#45;pages/page&#45;builders/md/index.js -->
<g id="edge18" class="edge">
<title>lib/build&#45;pages/page&#45;builders/index.js&#45;&gt;lib/build&#45;pages/page&#45;builders/md/index.js</title>
<path fill="none" stroke="#000000" stroke-width="2" stroke-opacity="0.200000" d="M305.05,-257.26C318.22,-243.23 344.47,-215.86 368.5,-194.46 379.17,-184.96 391.76,-174.98 401.71,-167.37"/>
<polygon fill="#000000" fill-opacity="0.200000" stroke="#000000" stroke-width="2" stroke-opacity="0.200000" points="403.13,-168.92 406.64,-163.62 400.59,-165.58 403.13,-168.92"/>
</g>
<!-- lib/build&#45;pages/page&#45;builders/create&#45;page&#45;builder.js&#45;&gt;fs/promises -->
<g id="edge9" class="edge">
<title>lib/build&#45;pages/page&#45;builders/create&#45;page&#45;builder.js&#45;&gt;fs/promises</title>
<path fill="none" stroke="#000000" stroke-dasharray="5,2" stroke-opacity="0.200000" d="M466.35,-257.24C468.24,-255.85 469.97,-254.27 471.5,-252.46 489.67,-230.96 474.94,-152.94 484.5,-126.46 490.17,-110.76 501.16,-95.17 509.79,-84.44"/>
<polygon fill="#000000" fill-opacity="0.200000" stroke="#000000" stroke-opacity="0.200000" points="511.6,-85.55 513.8,-79.59 508.36,-82.88 511.6,-85.55"/>
</g>
<!-- lib/build&#45;pages/page&#45;builders/create&#45;page&#45;builder.js&#45;&gt;path -->
<g id="edge10" class="edge">
<title>lib/build&#45;pages/page&#45;builders/create&#45;page&#45;builder.js&#45;&gt;path</title>
<path fill="none" stroke="#000000" stroke-dasharray="5,2" stroke-opacity="0.200000" d="M466.37,-275.66C468.25,-277.06 469.98,-278.65 471.5,-280.46 491.68,-304.61 462.13,-399.33 484.5,-421.46 511.06,-447.74 556.66,-445.64 587.44,-440.26"/>
<polygon fill="#000000" fill-opacity="0.200000" stroke="#000000" stroke-opacity="0.200000" points="587.87,-442.31 593.38,-439.15 587.1,-438.18 587.87,-442.31"/>
</g>
<!-- lib/build&#45;pages/page&#45;builders/create&#45;page&#45;builder.js&#45;&gt;lib/build&#45;pages/resolve&#45;vars.js -->
<g id="edge7" class="edge">
<title>lib/build&#45;pages/page&#45;builders/create&#45;page&#45;builder.js&#45;&gt;lib/build&#45;pages/resolve&#45;vars.js</title>
<path fill="none" stroke="#000000" stroke-width="2" stroke-opacity="0.200000" d="M466.31,-275.71C468.21,-277.09 469.96,-278.67 471.5,-280.46 503.55,-317.83 454.1,-351.74 484.5,-390.46 484.68,-390.7 484.87,-390.92 485.06,-391.15"/>
<polygon fill="#000000" fill-opacity="0.200000" stroke="#000000" stroke-width="2" stroke-opacity="0.200000" points="483.76,-392.81 489.6,-395.33 486.61,-389.72 483.76,-392.81"/>
</g>
<!-- lib/build&#45;pages/page&#45;builders/fs&#45;path&#45;to&#45;url.js -->
<g id="node10" class="node">
<title>lib/build&#45;pages/page&#45;builders/fs&#45;path&#45;to&#45;url.js</title>
<g id="a_node10"><a xlink:href="lib/build-pages/page-builders/fs-path-to-url.js" xlink:title="fs&#45;path&#45;to&#45;url.js">
<path fill="#ffffcc" stroke="black" d="M555.5,-361.46C555.5,-361.46 490.5,-361.46 490.5,-361.46 487.5,-361.46 484.5,-358.46 484.5,-355.46 484.5,-355.46 484.5,-349.46 484.5,-349.46 484.5,-346.46 487.5,-343.46 490.5,-343.46 490.5,-343.46 555.5,-343.46 555.5,-343.46 558.5,-343.46 561.5,-346.46 561.5,-349.46 561.5,-349.46 561.5,-355.46 561.5,-355.46 561.5,-358.46 558.5,-361.46 555.5,-361.46"/>
<text text-anchor="middle" x="523" y="-350.26" font-family="Helvetica,sans-Serif" font-size="9.00">fs&#45;path&#45;to&#45;url.js</text>
</a>
</g>
</g>
<!-- lib/build&#45;pages/page&#45;builders/create&#45;page&#45;builder.js&#45;&gt;lib/build&#45;pages/page&#45;builders/fs&#45;path&#45;to&#45;url.js -->
<g id="edge8" class="edge">
<title>lib/build&#45;pages/page&#45;builders/create&#45;page&#45;builder.js&#45;&gt;lib/build&#45;pages/page&#45;builders/fs&#45;path&#45;to&#45;url.js</title>
<path fill="none" stroke="#000000" stroke-width="2" stroke-opacity="0.200000" d="M462.86,-275.52C465.9,-276.94 468.82,-278.57 471.5,-280.46 492.38,-295.21 507.55,-321.47 515.55,-337.87"/>
<polygon fill="#000000" fill-opacity="0.200000" stroke="#000000" stroke-width="2" stroke-opacity="0.200000" points="513.71,-338.89 518.17,-343.43 517.51,-337.1 513.71,-338.89"/>
</g>
<!-- lib/build&#45;pages/page&#45;builders/fs&#45;path&#45;to&#45;url.js&#45;&gt;path -->
<g id="edge11" class="edge">
<title>lib/build&#45;pages/page&#45;builders/fs&#45;path&#45;to&#45;url.js&#45;&gt;path</title>
<path fill="none" stroke="#000000" stroke-dasharray="5,2" stroke-opacity="0.200000" d="M561.74,-354.98C570.19,-356.97 578.66,-360.21 585.5,-365.46 602.16,-378.25 611.31,-401.45 615.81,-416.91"/>
<polygon fill="#000000" fill-opacity="0.200000" stroke="#000000" stroke-opacity="0.200000" points="613.87,-417.77 617.46,-423.01 617.92,-416.67 613.87,-417.77"/>
</g>
<!-- lib/build&#45;pages/page&#45;builders/fs&#45;path&#45;to&#45;url.test.js -->
<g id="node11" class="node">
<title>lib/build&#45;pages/page&#45;builders/fs&#45;path&#45;to&#45;url.test.js</title>
<g id="a_node11"><a xlink:href="lib/build-pages/page-builders/fs-path-to-url.test.js" xlink:title="fs&#45;path&#45;to&#45;url.test.js">
<path fill="#ffffcc" stroke="black" d="M461,-361.46C461,-361.46 379,-361.46 379,-361.46 376,-361.46 373,-358.46 373,-355.46 373,-355.46 373,-349.46 373,-349.46 373,-346.46 376,-343.46 379,-343.46 379,-343.46 461,-343.46 461,-343.46 464,-343.46 467,-346.46 467,-349.46 467,-349.46 467,-355.46 467,-355.46 467,-358.46 464,-361.46 461,-361.46"/>
<text text-anchor="middle" x="420" y="-350.26" font-family="Helvetica,sans-Serif" font-size="9.00">fs&#45;path&#45;to&#45;url.test.js</text>
</a>
</g>
</g>
<!-- lib/build&#45;pages/page&#45;builders/fs&#45;path&#45;to&#45;url.test.js&#45;&gt;lib/build&#45;pages/page&#45;builders/fs&#45;path&#45;to&#45;url.js -->
<g id="edge12" class="edge">
<title>lib/build&#45;pages/page&#45;builders/fs&#45;path&#45;to&#45;url.test.js&#45;&gt;lib/build&#45;pages/page&#45;builders/fs&#45;path&#45;to&#45;url.js</title>
<path fill="none" stroke="#000000" stroke-width="2" stroke-opacity="0.200000" d="M467.07,-352.46C470.8,-352.46 474.57,-352.46 478.28,-352.46"/>
<polygon fill="#000000" fill-opacity="0.200000" stroke="#000000" stroke-width="2" stroke-opacity="0.200000" points="478.47,-354.56 484.47,-352.46 478.47,-350.36 478.47,-354.56"/>
</g>
<!-- process -->
<g id="node12" class="node">
<title>process</title>
<path fill="#ffffcc" stroke="grey" d="M544,-711.46C544,-711.46 502,-711.46 502,-711.46 499,-711.46 496,-708.46 496,-705.46 496,-705.46 496,-699.46 496,-699.46 496,-696.46 499,-693.46 502,-693.46 502,-693.46 544,-693.46 544,-693.46 547,-693.46 550,-696.46 550,-699.46 550,-699.46 550,-705.46 550,-705.46 550,-708.46 547,-711.46 544,-711.46"/>
<text text-anchor="middle" x="523" y="-700.26" font-family="Helvetica,sans-Serif" font-size="9.00" fill="grey">process</text>
</g>
<!-- lib/build&#45;pages/page&#45;builders/fs&#45;path&#45;to&#45;url.test.js&#45;&gt;process -->
<g id="edge13" class="edge">
<title>lib/build&#45;pages/page&#45;builders/fs&#45;path&#45;to&#45;url.test.js&#45;&gt;process</title>
<path fill="none" stroke="#000000" stroke-dasharray="5,2" stroke-opacity="0.200000" d="M467.1,-361.48C468.69,-362.66 470.17,-363.98 471.5,-365.46 474.26,-368.52 510.48,-621.62 519.82,-687.12"/>
<polygon fill="#000000" fill-opacity="0.200000" stroke="#000000" stroke-opacity="0.200000" points="517.76,-687.55 520.68,-693.19 521.91,-686.96 517.76,-687.55"/>
</g>
<!-- lib/build&#45;pages/page&#45;builders/html/index.js&#45;&gt;fs/promises -->
<g id="edge14" class="edge">
<title>lib/build&#45;pages/page&#45;builders/html/index.js&#45;&gt;fs/promises</title>
<path fill="none" stroke="#000000" stroke-dasharray="5,2" stroke-opacity="0.200000" d="M447.2,-208.41C456.13,-205.1 465.39,-200.06 471.5,-192.46 490.23,-169.16 473.07,-154.09 484.5,-126.46 490.88,-111.04 501.8,-95.42 510.21,-84.6"/>
<polygon fill="#000000" fill-opacity="0.200000" stroke="#000000" stroke-opacity="0.200000" points="512.01,-85.71 514.11,-79.71 508.73,-83.09 512.01,-85.71"/>
</g>
<!-- lib/build&#45;pages/page&#45;builders/md/index.js&#45;&gt;fs/promises -->
<g id="edge19" class="edge">
<title>lib/build&#45;pages/page&#45;builders/md/index.js&#45;&gt;fs/promises</title>
<path fill="none" stroke="#000000" stroke-dasharray="5,2" stroke-opacity="0.200000" d="M432.29,-145.42C442.57,-137.16 458.13,-124.58 471.5,-113.46 483.37,-103.59 496.66,-92.27 506.62,-83.72"/>
<polygon fill="#000000" fill-opacity="0.200000" stroke="#000000" stroke-opacity="0.200000" points="508.04,-85.27 511.23,-79.76 505.31,-82.08 508.04,-85.27"/>
</g>
<!-- lib/build&#45;pages/resolve&#45;vars.test.js -->
<g id="node16" class="node">
<title>lib/build&#45;pages/resolve&#45;vars.test.js</title>
<g id="a_node16"><a xlink:href="lib/build-pages/resolve-vars.test.js" xlink:title="resolve&#45;vars.test.js">
<path fill="#ffffcc" stroke="black" d="M460,-427.46C460,-427.46 380,-427.46 380,-427.46 377,-427.46 374,-424.46 374,-421.46 374,-421.46 374,-415.46 374,-415.46 374,-412.46 377,-409.46 380,-409.46 380,-409.46 460,-409.46 460,-409.46 463,-409.46 466,-412.46 466,-415.46 466,-415.46 466,-421.46 466,-421.46 466,-424.46 463,-427.46 460,-427.46"/>
<text text-anchor="middle" x="420" y="-416.26" font-family="Helvetica,sans-Serif" font-size="9.00">resolve&#45;vars.test.js</text>
</a>
</g>
</g>
<!-- lib/build&#45;pages/resolve&#45;vars.test.js&#45;&gt;path -->
<g id="edge21" class="edge">
<title>lib/build&#45;pages/resolve&#45;vars.test.js&#45;&gt;path</title>
<path fill="none" stroke="#000000" stroke-dasharray="5,2" stroke-opacity="0.200000" d="M421.46,-427.65C423.97,-473.78 437.69,-679.55 484.5,-717.46 519.38,-745.72 551.93,-747.27 585.5,-717.46 605.87,-699.38 616.24,-504.35 618.84,-447.77"/>
<polygon fill="#000000" fill-opacity="0.200000" stroke="#000000" stroke-opacity="0.200000" points="620.95,-447.66 619.12,-441.57 616.75,-447.47 620.95,-447.66"/>
</g>
<!-- lib/build&#45;pages/resolve&#45;vars.test.js&#45;&gt;lib/build&#45;pages/resolve&#45;vars.js -->
<g id="edge20" class="edge">
<title>lib/build&#45;pages/resolve&#45;vars.test.js&#45;&gt;lib/build&#45;pages/resolve&#45;vars.js</title>
<path fill="none" stroke="#000000" stroke-width="2" stroke-opacity="0.200000" d="M466.18,-412.2C470.49,-411.6 474.85,-411 479.13,-410.41"/>
<polygon fill="#000000" fill-opacity="0.200000" stroke="#000000" stroke-width="2" stroke-opacity="0.200000" points="479.68,-412.45 485.33,-409.55 479.1,-408.29 479.68,-412.45"/>
</g>
<!-- lib/build&#45;static/index.js -->
<g id="node17" class="node">
<title>lib/build&#45;static/index.js</title>
<g id="a_node17"><a xlink:href="lib/build-static/index.js" xlink:title="index.js">
<path fill="#ffffcc" stroke="black" d="M204,-573.46C204,-573.46 162,-573.46 162,-573.46 159,-573.46 156,-570.46 156,-567.46 156,-567.46 156,-561.46 156,-561.46 156,-558.46 159,-555.46 162,-555.46 162,-555.46 204,-555.46 204,-555.46 207,-555.46 210,-558.46 210,-561.46 210,-561.46 210,-567.46 210,-567.46 210,-570.46 207,-573.46 204,-573.46"/>
<text text-anchor="middle" x="183" y="-562.26" font-family="Helvetica,sans-Serif" font-size="9.00">index.js</text>
</a>
</g>
</g>
<!-- util -->
<g id="node18" class="node">
<title>util</title>
<path fill="#ffffcc" stroke="grey" d="M316.5,-770.46C316.5,-770.46 274.5,-770.46 274.5,-770.46 271.5,-770.46 268.5,-767.46 268.5,-764.46 268.5,-764.46 268.5,-758.46 268.5,-758.46 268.5,-755.46 271.5,-752.46 274.5,-752.46 274.5,-752.46 316.5,-752.46 316.5,-752.46 319.5,-752.46 322.5,-755.46 322.5,-758.46 322.5,-758.46 322.5,-764.46 322.5,-764.46 322.5,-767.46 319.5,-770.46 316.5,-770.46"/>
<text text-anchor="middle" x="295.5" y="-759.26" font-family="Helvetica,sans-Serif" font-size="9.00" fill="grey">util</text>
</g>
<!-- lib/build&#45;static/index.js&#45;&gt;util -->
<g id="edge22" class="edge">
<title>lib/build&#45;static/index.js&#45;&gt;util</title>
<path fill="none" stroke="#000000" stroke-dasharray="5,2" stroke-opacity="0.200000" d="M201.45,-573.51C212.78,-580.38 226.74,-590.95 234,-604.46 248.67,-631.79 227.71,-718.79 246.5,-743.46 250.55,-748.78 256.34,-752.52 262.52,-755.16"/>
<polygon fill="#000000" fill-opacity="0.200000" stroke="#000000" stroke-opacity="0.200000" points="261.9,-757.17 268.26,-757.29 263.36,-753.23 261.9,-757.17"/>
</g>
<!-- lib/builder.js -->
<g id="node19" class="node">
<title>lib/builder.js</title>
<g id="a_node19"><a xlink:href="lib/builder.js" xlink:title="builder.js">
<path fill="#ffffcc" stroke="black" d="M88,-479.46C88,-479.46 46,-479.46 46,-479.46 43,-479.46 40,-476.46 40,-473.46 40,-473.46 40,-467.46 40,-467.46 40,-464.46 43,-461.46 46,-461.46 46,-461.46 88,-461.46 88,-461.46 91,-461.46 94,-464.46 94,-467.46 94,-467.46 94,-473.46 94,-473.46 94,-476.46 91,-479.46 88,-479.46"/>
<text text-anchor="middle" x="67" y="-468.26" font-family="Helvetica,sans-Serif" font-size="9.00">builder.js</text>
</a>
</g>
</g>
<!-- lib/builder.js&#45;&gt;fs/promises -->
<g id="edge28" class="edge">
<title>lib/builder.js&#45;&gt;fs/promises</title>
<path fill="none" stroke="#000000" stroke-dasharray="5,2" stroke-opacity="0.200000" d="M81.86,-461.27C93.41,-452.73 109.13,-438.89 116.5,-422.46 130.34,-391.6 111.69,-145.13 132.5,-118.46 175.95,-62.79 404.46,-65.81 489.81,-68.97"/>
<polygon fill="#000000" fill-opacity="0.200000" stroke="#000000" stroke-opacity="0.200000" points="489.86,-71.07 495.94,-69.21 490.03,-66.88 489.86,-71.07"/>
</g>
<!-- lib/builder.js&#45;&gt;lib/build&#45;css/index.js -->
<g id="edge23" class="edge">
<title>lib/builder.js&#45;&gt;lib/build&#45;css/index.js</title>
<path fill="none" stroke="#000000" stroke-width="2" stroke-opacity="0.200000" d="M94.25,-479.39C105.92,-483.26 119.85,-487.74 132.5,-491.46 138.19,-493.14 144.28,-494.82 150.17,-496.39"/>
<polygon fill="#000000" fill-opacity="0.200000" stroke="#000000" stroke-width="2" stroke-opacity="0.200000" points="149.64,-498.43 155.97,-497.93 150.71,-494.37 149.64,-498.43"/>
</g>
<!-- lib/builder.js&#45;&gt;path -->
<g id="edge29" class="edge">
<title>lib/builder.js&#45;&gt;path</title>
<path fill="none" stroke="#000000" stroke-dasharray="5,2" stroke-opacity="0.200000" d="M81.89,-461.28C93.46,-452.75 109.18,-438.92 116.5,-422.46 132.09,-387.4 108.06,-107.05 132.5,-77.46 179.67,-20.37 220.44,-38.46 294.5,-38.46 294.5,-38.46 294.5,-38.46 421,-38.46 457.65,-38.46 559.38,-24.75 585.5,-50.46 612.05,-76.6 618.16,-349.02 619.28,-417.11"/>
<polygon fill="#000000" fill-opacity="0.200000" stroke="#000000" stroke-opacity="0.200000" points="617.19,-417.41 619.38,-423.38 621.39,-417.35 617.19,-417.41"/>
</g>
<!-- lib/builder.js&#45;&gt;lib/build&#45;js/index.js -->
<g id="edge24" class="edge">
<title>lib/builder.js&#45;&gt;lib/build&#45;js/index.js</title>
<path fill="none" stroke="#000000" stroke-width="2" stroke-opacity="0.200000" d="M70.18,-479.77C76.14,-503.36 94.86,-566.17 132.5,-602.46 137.48,-607.26 143.67,-611.12 149.98,-614.18"/>
<polygon fill="#000000" fill-opacity="0.200000" stroke="#000000" stroke-width="2" stroke-opacity="0.200000" points="149.44,-616.24 155.78,-616.77 151.16,-612.4 149.44,-616.24"/>
</g>
<!-- lib/builder.js&#45;&gt;lib/build&#45;pages/index.js -->
<g id="edge25" class="edge">
<title>lib/builder.js&#45;&gt;lib/build&#45;pages/index.js</title>
<path fill="none" stroke="#000000" stroke-width="2" stroke-opacity="0.200000" d="M77.22,-461.33C89.04,-450.11 110.64,-431.24 132.5,-420.46 137.94,-417.78 144,-415.61 149.96,-413.86"/>
<polygon fill="#000000" fill-opacity="0.200000" stroke="#000000" stroke-width="2" stroke-opacity="0.200000" points="150.62,-415.85 155.86,-412.25 149.51,-411.8 150.62,-415.85"/>
</g>
<!-- lib/builder.js&#45;&gt;lib/build&#45;static/index.js -->
<g id="edge26" class="edge">
<title>lib/builder.js&#45;&gt;lib/build&#45;static/index.js</title>
<path fill="none" stroke="#000000" stroke-width="2" stroke-opacity="0.200000" d="M74.17,-479.55C84.65,-494.41 107.26,-524.09 132.5,-542.46 137.97,-546.45 144.28,-549.93 150.52,-552.88"/>
<polygon fill="#000000" fill-opacity="0.200000" stroke="#000000" stroke-width="2" stroke-opacity="0.200000" points="149.87,-554.89 156.21,-555.43 151.6,-551.06 149.87,-554.89"/>
</g>
<!-- lib/identify&#45;pages.js -->
<g id="node20" class="node">
<title>lib/identify&#45;pages.js</title>
<g id="a_node20"><a xlink:href="lib/identify-pages.js" xlink:title="identify&#45;pages.js">
<path fill="#ffffcc" stroke="black" d="M218,-479.46C218,-479.46 148,-479.46 148,-479.46 145,-479.46 142,-476.46 142,-473.46 142,-473.46 142,-467.46 142,-467.46 142,-464.46 145,-461.46 148,-461.46 148,-461.46 218,-461.46 218,-461.46 221,-461.46 224,-464.46 224,-467.46 224,-467.46 224,-473.46 224,-473.46 224,-476.46 221,-479.46 218,-479.46"/>
<text text-anchor="middle" x="183" y="-468.26" font-family="Helvetica,sans-Serif" font-size="9.00">identify&#45;pages.js</text>
</a>
</g>
</g>
<!-- lib/builder.js&#45;&gt;lib/identify&#45;pages.js -->
<g id="edge27" class="edge">
<title>lib/builder.js&#45;&gt;lib/identify&#45;pages.js</title>
<path fill="none" stroke="#000000" stroke-width="2" stroke-opacity="0.200000" d="M94.15,-470.46C106.35,-470.46 121.25,-470.46 135.29,-470.46"/>
<polygon fill="#000000" fill-opacity="0.200000" stroke="#000000" stroke-width="2" stroke-opacity="0.200000" points="135.66,-472.56 141.66,-470.46 135.66,-468.36 135.66,-472.56"/>
</g>
<!-- lib/identify&#45;pages.test.js -->
<g id="node21" class="node">
<title>lib/identify&#45;pages.test.js</title>
<g id="a_node21"><a xlink:href="lib/identify-pages.test.js" xlink:title="identify&#45;pages.test.js">
<path fill="#ffffcc" stroke="black" d="M110.5,-416.46C110.5,-416.46 23.5,-416.46 23.5,-416.46 20.5,-416.46 17.5,-413.46 17.5,-410.46 17.5,-410.46 17.5,-404.46 17.5,-404.46 17.5,-401.46 20.5,-398.46 23.5,-398.46 23.5,-398.46 110.5,-398.46 110.5,-398.46 113.5,-398.46 116.5,-401.46 116.5,-404.46 116.5,-404.46 116.5,-410.46 116.5,-410.46 116.5,-413.46 113.5,-416.46 110.5,-416.46"/>
<text text-anchor="middle" x="67" y="-405.26" font-family="Helvetica,sans-Serif" font-size="9.00">identify&#45;pages.test.js</text>
</a>
</g>
</g>
<!-- lib/identify&#45;pages.test.js&#45;&gt;path -->
<g id="edge32" class="edge">
<title>lib/identify&#45;pages.test.js&#45;&gt;path</title>
<path fill="none" stroke="#000000" stroke-dasharray="5,2" stroke-opacity="0.200000" d="M68.12,-398.15C69.03,-345.02 76.36,-80.8 132.5,-28.46 185.42,20.87 222.15,-12.46 294.5,-12.46 294.5,-12.46 294.5,-12.46 421,-12.46 494.46,-12.46 533.9,23.81 585.5,-28.46 613.28,-56.61 618.49,-346.72 619.35,-417.13"/>
<polygon fill="#000000" fill-opacity="0.200000" stroke="#000000" stroke-opacity="0.200000" points="617.25,-417.27 619.42,-423.24 621.45,-417.22 617.25,-417.27"/>
</g>
<!-- lib/identify&#45;pages.test.js&#45;&gt;lib/build&#45;pages/index.js -->
<g id="edge30" class="edge">
<title>lib/identify&#45;pages.test.js&#45;&gt;lib/build&#45;pages/index.js</title>
<path fill="none" stroke="#000000" stroke-width="2" stroke-opacity="0.200000" d="M116.68,-407.46C127.8,-407.46 139.36,-407.46 149.61,-407.46"/>
<polygon fill="#000000" fill-opacity="0.200000" stroke="#000000" stroke-width="2" stroke-opacity="0.200000" points="149.8,-409.56 155.8,-407.46 149.8,-405.36 149.8,-409.56"/>
</g>
<!-- lib/identify&#45;pages.test.js&#45;&gt;lib/identify&#45;pages.js -->
<g id="edge31" class="edge">
<title>lib/identify&#45;pages.test.js&#45;&gt;lib/identify&#45;pages.js</title>
<path fill="none" stroke="#000000" stroke-width="2" stroke-opacity="0.200000" d="M77.7,-416.72C89.68,-427.69 111.11,-445.79 132.5,-456.46 134.5,-457.46 136.57,-458.39 138.7,-459.27"/>
<polygon fill="#000000" fill-opacity="0.200000" stroke="#000000" stroke-width="2" stroke-opacity="0.200000" points="138.05,-461.27 144.4,-461.45 139.55,-457.35 138.05,-461.27"/>
</g>
<!-- test&#45;project/public/a&#45;page/client.js -->
<g id="node22" class="node">
<title>test&#45;project/public/a&#45;page/client.js</title>
<g id="a_node22"><a xlink:href="test-project/public/a-page/client.js" xlink:title="client.js">
<path fill="#ffffcc" stroke="black" d="M88,-1462.46C88,-1462.46 46,-1462.46 46,-1462.46 43,-1462.46 40,-1459.46 40,-1456.46 40,-1456.46 40,-1450.46 40,-1450.46 40,-1447.46 43,-1444.46 46,-1444.46 46,-1444.46 88,-1444.46 88,-1444.46 91,-1444.46 94,-1447.46 94,-1450.46 94,-1450.46 94,-1456.46 94,-1456.46 94,-1459.46 91,-1462.46 88,-1462.46"/>
<text text-anchor="middle" x="67" y="-1451.26" font-family="Helvetica,sans-Serif" font-size="9.00">client.js</text>
</a>
</g>
</g>
<!-- test&#45;project/public/chunk&#45;OFR2H3GI.js -->
<g id="node23" class="node">
<title>test&#45;project/public/chunk&#45;OFR2H3GI.js</title>
<g id="a_node23"><a xlink:href="test-project/public/chunk-OFR2H3GI.js" xlink:title="chunk&#45;OFR2H3GI.js">
<path fill="#ffffcc" stroke="black" d="M338.5,-1490.46C338.5,-1490.46 252.5,-1490.46 252.5,-1490.46 249.5,-1490.46 246.5,-1487.46 246.5,-1484.46 246.5,-1484.46 246.5,-1478.46 246.5,-1478.46 246.5,-1475.46 249.5,-1472.46 252.5,-1472.46 252.5,-1472.46 338.5,-1472.46 338.5,-1472.46 341.5,-1472.46 344.5,-1475.46 344.5,-1478.46 344.5,-1478.46 344.5,-1484.46 344.5,-1484.46 344.5,-1487.46 341.5,-1490.46 338.5,-1490.46"/>
<text text-anchor="middle" x="295.5" y="-1479.26" font-family="Helvetica,sans-Serif" font-size="9.00">chunk&#45;OFR2H3GI.js</text>
</a>
</g>
</g>
<!-- test&#45;project/public/a&#45;page/client.js&#45;&gt;test&#45;project/public/chunk&#45;OFR2H3GI.js -->
<g id="edge33" class="edge">
<title>test&#45;project/public/a&#45;page/client.js&#45;&gt;test&#45;project/public/chunk&#45;OFR2H3GI.js</title>
<path fill="none" stroke="#000000" stroke-width="2" stroke-opacity="0.200000" d="M94.25,-1457.02C102.03,-1459.08 110.17,-1462.33 116.5,-1467.46 128.24,-1476.98 119.54,-1489.69 132.5,-1497.46 171.18,-1520.67 189.27,-1503.28 234,-1497.46 242.75,-1496.33 252.05,-1494.3 260.65,-1492.06"/>
<polygon fill="#000000" fill-opacity="0.200000" stroke="#000000" stroke-width="2" stroke-opacity="0.200000" points="261.24,-1494.08 266.48,-1490.49 260.14,-1490.02 261.24,-1494.08"/>
</g>
<!-- test&#45;project/public/chunk&#45;OWLKZ7N7.js -->
<g id="node24" class="node">
<title>test&#45;project/public/chunk&#45;OWLKZ7N7.js</title>
<g id="a_node24"><a xlink:href="test-project/public/chunk-OWLKZ7N7.js" xlink:title="chunk&#45;OWLKZ7N7.js">
<path fill="#ffffcc" stroke="black" d="M227.5,-1534.46C227.5,-1534.46 138.5,-1534.46 138.5,-1534.46 135.5,-1534.46 132.5,-1531.46 132.5,-1528.46 132.5,-1528.46 132.5,-1522.46 132.5,-1522.46 132.5,-1519.46 135.5,-1516.46 138.5,-1516.46 138.5,-1516.46 227.5,-1516.46 227.5,-1516.46 230.5,-1516.46 233.5,-1519.46 233.5,-1522.46 233.5,-1522.46 233.5,-1528.46 233.5,-1528.46 233.5,-1531.46 230.5,-1534.46 227.5,-1534.46"/>
<text text-anchor="middle" x="183" y="-1523.26" font-family="Helvetica,sans-Serif" font-size="9.00">chunk&#45;OWLKZ7N7.js</text>
</a>
</g>
</g>
<!-- test&#45;project/public/a&#45;page/client.js&#45;&gt;test&#45;project/public/chunk&#45;OWLKZ7N7.js -->
<g id="edge34" class="edge">
<title>test&#45;project/public/a&#45;page/client.js&#45;&gt;test&#45;project/public/chunk&#45;OWLKZ7N7.js</title>
<path fill="none" stroke="#000000" stroke-width="2" stroke-opacity="0.200000" d="M94.1,-1456.48C102.06,-1458.51 110.33,-1461.88 116.5,-1467.46 130.7,-1480.31 118.75,-1494.14 132.5,-1507.46 134.88,-1509.77 137.58,-1511.78 140.46,-1513.54"/>
<polygon fill="#000000" fill-opacity="0.200000" stroke="#000000" stroke-width="2" stroke-opacity="0.200000" points="139.53,-1515.43 145.81,-1516.44 141.53,-1511.73 139.53,-1515.43"/>
</g>
<!-- test&#45;project/public/chunk&#45;OWLKZ7N7.js&#45;&gt;test&#45;project/public/chunk&#45;OFR2H3GI.js -->
<g id="edge37" class="edge">
<title>test&#45;project/public/chunk&#45;OWLKZ7N7.js&#45;&gt;test&#45;project/public/chunk&#45;OFR2H3GI.js</title>
<path fill="none" stroke="#000000" stroke-width="2" stroke-opacity="0.200000" d="M210.06,-1516.42C217.8,-1513.64 226.28,-1510.51 234,-1507.46 245.4,-1502.97 257.85,-1497.68 268.48,-1493.05"/>
<polygon fill="#000000" fill-opacity="0.200000" stroke="#000000" stroke-width="2" stroke-opacity="0.200000" points="269.53,-1494.89 274.18,-1490.56 267.85,-1491.04 269.53,-1494.89"/>
</g>
<!-- test&#45;project/public/a&#45;page/nested&#45;page/client.js -->
<g id="node25" class="node">
<title>test&#45;project/public/a&#45;page/nested&#45;page/client.js</title>
<g id="a_node25"><a xlink:href="test-project/public/a-page/nested-page/client.js" xlink:title="client.js">
<path fill="#ffffcc" stroke="black" d="M88,-1496.46C88,-1496.46 46,-1496.46 46,-1496.46 43,-1496.46 40,-1493.46 40,-1490.46 40,-1490.46 40,-1484.46 40,-1484.46 40,-1481.46 43,-1478.46 46,-1478.46 46,-1478.46 88,-1478.46 88,-1478.46 91,-1478.46 94,-1481.46 94,-1484.46 94,-1484.46 94,-1490.46 94,-1490.46 94,-1493.46 91,-1496.46 88,-1496.46"/>
<text text-anchor="middle" x="67" y="-1485.26" font-family="Helvetica,sans-Serif" font-size="9.00">client.js</text>
</a>
</g>
</g>
<!-- test&#45;project/public/a&#45;page/nested&#45;page/client.js&#45;&gt;test&#45;project/public/chunk&#45;OFR2H3GI.js -->
<g id="edge35" class="edge">
<title>test&#45;project/public/a&#45;page/nested&#45;page/client.js&#45;&gt;test&#45;project/public/chunk&#45;OFR2H3GI.js</title>
<path fill="none" stroke="#000000" stroke-width="2" stroke-opacity="0.200000" d="M75.55,-1496.8C86.52,-1509.54 108.21,-1531.76 132.5,-1540.46 174.97,-1555.67 192.22,-1557.46 234,-1540.46 256.03,-1531.5 274.42,-1510.23 284.94,-1495.84"/>
<polygon fill="#000000" fill-opacity="0.200000" stroke="#000000" stroke-width="2" stroke-opacity="0.200000" points="286.7,-1496.99 288.46,-1490.88 283.27,-1494.56 286.7,-1496.99"/>
</g>
<!-- test&#45;project/public/a&#45;page/nested&#45;page/client.js&#45;&gt;test&#45;project/public/chunk&#45;OWLKZ7N7.js -->
<g id="edge36" class="edge">
<title>test&#45;project/public/a&#45;page/nested&#45;page/client.js&#45;&gt;test&#45;project/public/chunk&#45;OWLKZ7N7.js</title>
<path fill="none" stroke="#000000" stroke-width="2" stroke-opacity="0.200000" d="M94.15,-1496.18C110.45,-1501.61 131.57,-1508.65 149.02,-1514.47"/>
<polygon fill="#000000" fill-opacity="0.200000" stroke="#000000" stroke-width="2" stroke-opacity="0.200000" points="148.42,-1516.48 154.78,-1516.39 149.75,-1512.5 148.42,-1516.48"/>
</g>
<!-- test&#45;project/public/client.js -->
<g id="node26" class="node">
<title>test&#45;project/public/client.js</title>
<g id="a_node26"><a xlink:href="test-project/public/client.js" xlink:title="client.js">
<path fill="#ffffcc" stroke="black" d="M204,-1374.46C204,-1374.46 162,-1374.46 162,-1374.46 159,-1374.46 156,-1371.46 156,-1368.46 156,-1368.46 156,-1362.46 156,-1362.46 156,-1359.46 159,-1356.46 162,-1356.46 162,-1356.46 204,-1356.46 204,-1356.46 207,-1356.46 210,-1359.46 210,-1362.46 210,-1362.46 210,-1368.46 210,-1368.46 210,-1371.46 207,-1374.46 204,-1374.46"/>
<text text-anchor="middle" x="183" y="-1363.26" font-family="Helvetica,sans-Serif" font-size="9.00">client.js</text>
</a>
</g>
</g>
<!-- test&#45;project/public/client.js&#45;&gt;test&#45;project/public/chunk&#45;OFR2H3GI.js -->
<g id="edge38" class="edge">
<title>test&#45;project/public/client.js&#45;&gt;test&#45;project/public/chunk&#45;OFR2H3GI.js</title>
<path fill="none" stroke="#000000" stroke-width="2" stroke-opacity="0.200000" d="M210.13,-1368.86C218.39,-1370.91 227.13,-1374.2 234,-1379.46 263.72,-1402.25 281.75,-1444.15 289.7,-1466.5"/>
<polygon fill="#000000" fill-opacity="0.200000" stroke="#000000" stroke-width="2" stroke-opacity="0.200000" points="287.74,-1467.26 291.67,-1472.25 291.71,-1465.9 287.74,-1467.26"/>
</g>
<!-- test&#45;project/public/html&#45;page/client.js -->
<g id="node27" class="node">
<title>test&#45;project/public/html&#45;page/client.js</title>
<g id="a_node27"><a xlink:href="test-project/public/html-page/client.js" xlink:title="client.js">
<path fill="#ffffcc" stroke="black" d="M204,-1468.46C204,-1468.46 162,-1468.46 162,-1468.46 159,-1468.46 156,-1465.46 156,-1462.46 156,-1462.46 156,-1456.46 156,-1456.46 156,-1453.46 159,-1450.46 162,-1450.46 162,-1450.46 204,-1450.46 204,-1450.46 207,-1450.46 210,-1453.46 210,-1456.46 210,-1456.46 210,-1462.46 210,-1462.46 210,-1465.46 207,-1468.46 204,-1468.46"/>
<text text-anchor="middle" x="183" y="-1457.26" font-family="Helvetica,sans-Serif" font-size="9.00">client.js</text>
</a>
</g>
</g>
<!-- test&#45;project/public/html&#45;page/client.js&#45;&gt;test&#45;project/public/chunk&#45;OFR2H3GI.js -->
<g id="edge39" class="edge">
<title>test&#45;project/public/html&#45;page/client.js&#45;&gt;test&#45;project/public/chunk&#45;OFR2H3GI.js</title>
<path fill="none" stroke="#000000" stroke-width="2" stroke-opacity="0.200000" d="M210.19,-1464.68C220.08,-1466.65 231.71,-1468.96 243.11,-1471.23"/>
<polygon fill="#000000" fill-opacity="0.200000" stroke="#000000" stroke-width="2" stroke-opacity="0.200000" points="242.76,-1473.3 249.05,-1472.41 243.58,-1469.18 242.76,-1473.3"/>
</g>
<!-- test&#45;project/public/md&#45;page/client.js -->
<g id="node28" class="node">
<title>test&#45;project/public/md&#45;page/client.js</title>
<g id="a_node28"><a xlink:href="test-project/public/md-page/client.js" xlink:title="client.js">
<path fill="#ffffcc" stroke="black" d="M204,-1408.46C204,-1408.46 162,-1408.46 162,-1408.46 159,-1408.46 156,-1405.46 156,-1402.46 156,-1402.46 156,-1396.46 156,-1396.46 156,-1393.46 159,-1390.46 162,-1390.46 162,-1390.46 204,-1390.46 204,-1390.46 207,-1390.46 210,-1393.46 210,-1396.46 210,-1396.46 210,-1402.46 210,-1402.46 210,-1405.46 207,-1408.46 204,-1408.46"/>
<text text-anchor="middle" x="183" y="-1397.26" font-family="Helvetica,sans-Serif" font-size="9.00">client.js</text>
</a>
</g>
</g>
<!-- test&#45;project/public/md&#45;page/client.js&#45;&gt;test&#45;project/public/chunk&#45;OFR2H3GI.js -->
<g id="edge40" class="edge">
<title>test&#45;project/public/md&#45;page/client.js&#45;&gt;test&#45;project/public/chunk&#45;OFR2H3GI.js</title>
<path fill="none" stroke="#000000" stroke-width="2" stroke-opacity="0.200000" d="M196.25,-1408.55C215.91,-1423.14 254.59,-1451.85 277.11,-1468.56"/>
<polygon fill="#000000" fill-opacity="0.200000" stroke="#000000" stroke-width="2" stroke-opacity="0.200000" points="276.13,-1470.44 282.2,-1472.33 278.63,-1467.07 276.13,-1470.44"/>
</g>
<!-- test&#45;project/src/a&#45;page/client.js -->
<g id="node29" class="node">
<title>test&#45;project/src/a&#45;page/client.js</title>
<g id="a_node29"><a xlink:href="test-project/src/a-page/client.js" xlink:title="client.js">
<path fill="#ffffcc" stroke="black" d="M88,-1288.46C88,-1288.46 46,-1288.46 46,-1288.46 43,-1288.46 40,-1285.46 40,-1282.46 40,-1282.46 40,-1276.46 40,-1276.46 40,-1273.46 43,-1270.46 46,-1270.46 46,-1270.46 88,-1270.46 88,-1270.46 91,-1270.46 94,-1273.46 94,-1276.46 94,-1276.46 94,-1282.46 94,-1282.46 94,-1285.46 91,-1288.46 88,-1288.46"/>
<text text-anchor="middle" x="67" y="-1277.26" font-family="Helvetica,sans-Serif" font-size="9.00">client.js</text>
</a>
</g>
</g>
<!-- test&#45;project/src/a&#45;page/libs/a&#45;lib.js -->
<g id="node30" class="node">
<title>test&#45;project/src/a&#45;page/libs/a&#45;lib.js</title>
<g id="a_node30"><a xlink:href="test-project/src/a-page/libs/a-lib.js" xlink:title="a&#45;lib.js">
<path fill="#ffffcc" stroke="black" d="M204,-1236.46C204,-1236.46 162,-1236.46 162,-1236.46 159,-1236.46 156,-1233.46 156,-1230.46 156,-1230.46 156,-1224.46 156,-1224.46 156,-1221.46 159,-1218.46 162,-1218.46 162,-1218.46 204,-1218.46 204,-1218.46 207,-1218.46 210,-1221.46 210,-1224.46 210,-1224.46 210,-1230.46 210,-1230.46 210,-1233.46 207,-1236.46 204,-1236.46"/>
<text text-anchor="middle" x="183" y="-1225.26" font-family="Helvetica,sans-Serif" font-size="9.00">a&#45;lib.js</text>
</a>
</g>
</g>
<!-- test&#45;project/src/a&#45;page/client.js&#45;&gt;test&#45;project/src/a&#45;page/libs/a&#45;lib.js -->
<g id="edge41" class="edge">
<title>test&#45;project/src/a&#45;page/client.js&#45;&gt;test&#45;project/src/a&#45;page/libs/a&#45;lib.js</title>
<path fill="none" stroke="#000000" stroke-width="2" stroke-opacity="0.200000" d="M94.08,-1273.2C101.46,-1271.09 109.41,-1268.49 116.5,-1265.46 133.01,-1258.42 150.53,-1248.08 163.3,-1239.97"/>
<polygon fill="#000000" fill-opacity="0.200000" stroke="#000000" stroke-width="2" stroke-opacity="0.200000" points="164.55,-1241.66 168.46,-1236.64 162.28,-1238.13 164.55,-1241.66"/>
</g>
<!-- test&#45;project/src/a&#45;page/nested&#45;page/client.js -->
<g id="node31" class="node">
<title>test&#45;project/src/a&#45;page/nested&#45;page/client.js</title>
<g id="a_node31"><a xlink:href="test-project/src/a-page/nested-page/client.js" xlink:title="client.js">
<path fill="#ffffcc" stroke="black" d="M88,-1236.46C88,-1236.46 46,-1236.46 46,-1236.46 43,-1236.46 40,-1233.46 40,-1230.46 40,-1230.46 40,-1224.46 40,-1224.46 40,-1221.46 43,-1218.46 46,-1218.46 46,-1218.46 88,-1218.46 88,-1218.46 91,-1218.46 94,-1221.46 94,-1224.46 94,-1224.46 94,-1230.46 94,-1230.46 94,-1233.46 91,-1236.46 88,-1236.46"/>
<text text-anchor="middle" x="67" y="-1225.26" font-family="Helvetica,sans-Serif" font-size="9.00">client.js</text>
</a>
</g>
</g>
<!-- test&#45;project/src/a&#45;page/nested&#45;page/client.js&#45;&gt;test&#45;project/src/a&#45;page/libs/a&#45;lib.js -->
<g id="edge42" class="edge">
<title>test&#45;project/src/a&#45;page/nested&#45;page/client.js&#45;&gt;test&#45;project/src/a&#45;page/libs/a&#45;lib.js</title>
<path fill="none" stroke="#000000" stroke-width="2" stroke-opacity="0.200000" d="M94.15,-1227.46C110.66,-1227.46 132.11,-1227.46 149.69,-1227.46"/>
<polygon fill="#000000" fill-opacity="0.200000" stroke="#000000" stroke-width="2" stroke-opacity="0.200000" points="149.97,-1229.56 155.97,-1227.46 149.97,-1225.36 149.97,-1229.56"/>
</g>
<!-- test&#45;project/src/a&#45;page/nested&#45;page/page.js -->
<g id="node32" class="node">
<title>test&#45;project/src/a&#45;page/nested&#45;page/page.js</title>
<g id="a_node32"><a xlink:href="test-project/src/a-page/nested-page/page.js" xlink:title="page.js">
<path fill="#ffffcc" stroke="black" d="M88,-1206.46C88,-1206.46 46,-1206.46 46,-1206.46 43,-1206.46 40,-1203.46 40,-1200.46 40,-1200.46 40,-1194.46 40,-1194.46 40,-1191.46 43,-1188.46 46,-1188.46 46,-1188.46 88,-1188.46 88,-1188.46 91,-1188.46 94,-1191.46 94,-1194.46 94,-1194.46 94,-1200.46 94,-1200.46 94,-1203.46 91,-1206.46 88,-1206.46"/>
<text text-anchor="middle" x="67" y="-1195.26" font-family="Helvetica,sans-Serif" font-size="9.00">page.js</text>
</a>
</g>
</g>
<!-- test&#45;project/src/nav.js -->
<g id="node33" class="node">
<title>test&#45;project/src/nav.js</title>
<g id="a_node33"><a xlink:href="test-project/src/nav.js" xlink:title="nav.js">
<path fill="#ffffcc" stroke="black" d="M204,-1138.46C204,-1138.46 162,-1138.46 162,-1138.46 159,-1138.46 156,-1135.46 156,-1132.46 156,-1132.46 156,-1126.46 156,-1126.46 156,-1123.46 159,-1120.46 162,-1120.46 162,-1120.46 204,-1120.46 204,-1120.46 207,-1120.46 210,-1123.46 210,-1126.46 210,-1126.46 210,-1132.46 210,-1132.46 210,-1135.46 207,-1138.46 204,-1138.46"/>
<text text-anchor="middle" x="183" y="-1127.26" font-family="Helvetica,sans-Serif" font-size="9.00">nav.js</text>
</a>
</g>
</g>
<!-- test&#45;project/src/a&#45;page/nested&#45;page/page.js&#45;&gt;test&#45;project/src/nav.js -->
<g id="edge43" class="edge">
<title>test&#45;project/src/a&#45;page/nested&#45;page/page.js&#45;&gt;test&#45;project/src/nav.js</title>
<path fill="none" stroke="#000000" stroke-width="2" stroke-opacity="0.200000" d="M94.21,-1192.66C101.66,-1190.71 109.62,-1188.05 116.5,-1184.46 137.14,-1173.71 157.06,-1155.51 169.41,-1143.01"/>
<polygon fill="#000000" fill-opacity="0.200000" stroke="#000000" stroke-width="2" stroke-opacity="0.200000" points="170.93,-1144.45 173.6,-1138.68 167.91,-1141.53 170.93,-1144.45"/>
</g>
<!-- test&#45;project/src/a&#45;page/page.js -->
<g id="node34" class="node">
<title>test&#45;project/src/a&#45;page/page.js</title>
<g id="a_node34"><a xlink:href="test-project/src/a-page/page.js" xlink:title="page.js">
<path fill="#ffffcc" stroke="black" d="M88,-1172.46C88,-1172.46 46,-1172.46 46,-1172.46 43,-1172.46 40,-1169.46 40,-1166.46 40,-1166.46 40,-1160.46 40,-1160.46 40,-1157.46 43,-1154.46 46,-1154.46 46,-1154.46 88,-1154.46 88,-1154.46 91,-1154.46 94,-1157.46 94,-1160.46 94,-1160.46 94,-1166.46 94,-1166.46 94,-1169.46 91,-1172.46 88,-1172.46"/>
<text text-anchor="middle" x="67" y="-1161.26" font-family="Helvetica,sans-Serif" font-size="9.00">page.js</text>
</a>
</g>
</g>
<!-- test&#45;project/src/a&#45;page/page.js&#45;&gt;test&#45;project/src/a&#45;page/libs/a&#45;lib.js -->
<g id="edge45" class="edge">
<title>test&#45;project/src/a&#45;page/page.js&#45;&gt;test&#45;project/src/a&#45;page/libs/a&#45;lib.js</title>
<path fill="none" stroke="#000000" stroke-width="2" stroke-opacity="0.200000" d="M94,-1166.58C101.96,-1168.62 110.25,-1171.96 116.5,-1177.46 129.95,-1189.3 118.91,-1202.79 132.5,-1214.46 137.35,-1218.63 143.39,-1221.48 149.56,-1223.43"/>
<polygon fill="#000000" fill-opacity="0.200000" stroke="#000000" stroke-width="2" stroke-opacity="0.200000" points="149.4,-1225.56 155.74,-1225.09 150.49,-1221.51 149.4,-1225.56"/>
</g>
<!-- test&#45;project/src/a&#45;page/page.js&#45;&gt;test&#45;project/src/nav.js -->
<g id="edge44" class="edge">
<title>test&#45;project/src/a&#45;page/page.js&#45;&gt;test&#45;project/src/nav.js</title>
<path fill="none" stroke="#000000" stroke-width="2" stroke-opacity="0.200000" d="M94.15,-1155.66C110.81,-1150.7 132.49,-1144.23 150.15,-1138.96"/>
<polygon fill="#000000" fill-opacity="0.200000" stroke="#000000" stroke-width="2" stroke-opacity="0.200000" points="150.82,-1140.95 155.97,-1137.23 149.62,-1136.93 150.82,-1140.95"/>
</g>
<!-- test&#45;project/src/client.js -->
<g id="node35" class="node">
<title>test&#45;project/src/client.js</title>
<g id="a_node35"><a xlink:href="test-project/src/client.js" xlink:title="client.js">
<path fill="#ccffcc" stroke="black" d="M88,-928.46C88,-928.46 46,-928.46 46,-928.46 43,-928.46 40,-925.46 40,-922.46 40,-922.46 40,-916.46 40,-916.46 40,-913.46 43,-910.46 46,-910.46 46,-910.46 88,-910.46 88,-910.46 91,-910.46 94,-913.46 94,-916.46 94,-916.46 94,-922.46 94,-922.46 94,-925.46 91,-928.46 88,-928.46"/>
<text text-anchor="middle" x="67" y="-917.26" font-family="Helvetica,sans-Serif" font-size="9.00">client.js</text>
</a>
</g>
</g>
<!-- test&#45;project/src/conflict&#45;page/page.js -->
<g id="node36" class="node">
<title>test&#45;project/src/conflict&#45;page/page.js</title>
<g id="a_node36"><a xlink:href="test-project/src/conflict-page/page.js" xlink:title="page.js">
<path fill="#ccffcc" stroke="black" d="M88,-1112.46C88,-1112.46 46,-1112.46 46,-1112.46 43,-1112.46 40,-1109.46 40,-1106.46 40,-1106.46 40,-1100.46 40,-1100.46 40,-1097.46 43,-1094.46 46,-1094.46 46,-1094.46 88,-1094.46 88,-1094.46 91,-1094.46 94,-1097.46 94,-1100.46 94,-1100.46 94,-1106.46 94,-1106.46 94,-1109.46 91,-1112.46 88,-1112.46"/>
<text text-anchor="middle" x="67" y="-1101.26" font-family="Helvetica,sans-Serif" font-size="9.00">page.js</text>
</a>
</g>
</g>
<!-- test&#45;project/src/global.vars.js -->
<g id="node37" class="node">
<title>test&#45;project/src/global.vars.js</title>
<g id="a_node37"><a xlink:href="test-project/src/global.vars.js" xlink:title="global.vars.js">
<path fill="#ccffcc" stroke="black" d="M95.5,-898.46C95.5,-898.46 38.5,-898.46 38.5,-898.46 35.5,-898.46 32.5,-895.46 32.5,-892.46 32.5,-892.46 32.5,-886.46 32.5,-886.46 32.5,-883.46 35.5,-880.46 38.5,-880.46 38.5,-880.46 95.5,-880.46 95.5,-880.46 98.5,-880.46 101.5,-883.46 101.5,-886.46 101.5,-886.46 101.5,-892.46 101.5,-892.46 101.5,-895.46 98.5,-898.46 95.5,-898.46"/>
<text text-anchor="middle" x="67" y="-887.26" font-family="Helvetica,sans-Serif" font-size="9.00">global.vars.js</text>
</a>
</g>
</g>
<!-- test&#45;project/src/html&#45;page/client.js -->
<g id="node38" class="node">
<title>test&#45;project/src/html&#45;page/client.js</title>
<g id="a_node38"><a xlink:href="test-project/src/html-page/client.js" xlink:title="client.js">
<path fill="#ccffcc" stroke="black" d="M88,-1052.46C88,-1052.46 46,-1052.46 46,-1052.46 43,-1052.46 40,-1049.46 40,-1046.46 40,-1046.46 40,-1040.46 40,-1040.46 40,-1037.46 43,-1034.46 46,-1034.46 46,-1034.46 88,-1034.46 88,-1034.46 91,-1034.46 94,-1037.46 94,-1040.46 94,-1040.46 94,-1046.46 94,-1046.46 94,-1049.46 91,-1052.46 88,-1052.46"/>
<text text-anchor="middle" x="67" y="-1041.26" font-family="Helvetica,sans-Serif" font-size="9.00">client.js</text>
</a>
</g>
</g>
<!-- test&#45;project/src/html&#45;page/page.vars.js -->
<g id="node39" class="node">
<title>test&#45;project/src/html&#45;page/page.vars.js</title>
<g id="a_node39"><a xlink:href="test-project/src/html-page/page.vars.js" xlink:title="page.vars.js">
<path fill="#ccffcc" stroke="black" d="M93.5,-1022.46C93.5,-1022.46 40.5,-1022.46 40.5,-1022.46 37.5,-1022.46 34.5,-1019.46 34.5,-1016.46 34.5,-1016.46 34.5,-1010.46 34.5,-1010.46 34.5,-1007.46 37.5,-1004.46 40.5,-1004.46 40.5,-1004.46 93.5,-1004.46 93.5,-1004.46 96.5,-1004.46 99.5,-1007.46 99.5,-1010.46 99.5,-1010.46 99.5,-1016.46 99.5,-1016.46 99.5,-1019.46 96.5,-1022.46 93.5,-1022.46"/>
<text text-anchor="middle" x="67" y="-1011.26" font-family="Helvetica,sans-Serif" font-size="9.00">page.vars.js</text>
</a>
</g>
</g>
<!-- test&#45;project/src/md&#45;page/client.js -->
<g id="node40" class="node">
<title>test&#45;project/src/md&#45;page/client.js</title>
<g id="a_node40"><a xlink:href="test-project/src/md-page/client.js" xlink:title="client.js">
<path fill="#ccffcc" stroke="black" d="M88,-962.46C88,-962.46 46,-962.46 46,-962.46 43,-962.46 40,-959.46 40,-956.46 40,-956.46 40,-950.46 40,-950.46 40,-947.46 43,-944.46 46,-944.46 46,-944.46 88,-944.46 88,-944.46 91,-944.46 94,-947.46 94,-950.46 94,-950.46 94,-956.46 94,-956.46 94,-959.46 91,-962.46 88,-962.46"/>
<text text-anchor="middle" x="67" y="-951.26" font-family="Helvetica,sans-Serif" font-size="9.00">client.js</text>
</a>
</g>
</g>
<!-- test&#45;project/src/page.js -->
<g id="node41" class="node">
<title>test&#45;project/src/page.js</title>
<g id="a_node41"><a xlink:href="test-project/src/page.js" xlink:title="page.js">
<path fill="#ffffcc" stroke="black" d="M88,-868.46C88,-868.46 46,-868.46 46,-868.46 43,-868.46 40,-865.46 40,-862.46 40,-862.46 40,-856.46 40,-856.46 40,-853.46 43,-850.46 46,-850.46 46,-850.46 88,-850.46 88,-850.46 91,-850.46 94,-853.46 94,-856.46 94,-856.46 94,-862.46 94,-862.46 94,-865.46 91,-868.46 88,-868.46"/>
<text text-anchor="middle" x="67" y="-857.26" font-family="Helvetica,sans-Serif" font-size="9.00">page.js</text>
</a>
</g>
</g>
<!-- test&#45;project/src/page.js&#45;&gt;test&#45;project/src/nav.js -->
<g id="edge46" class="edge">
<title>test&#45;project/src/page.js&#45;&gt;test&#45;project/src/nav.js</title>
<path fill="none" stroke="#000000" stroke-width="2" stroke-opacity="0.200000" d="M94.06,-862.47C102.21,-864.62 110.6,-868.27 116.5,-874.46 150.29,-909.94 173.42,-1064.82 180.05,-1114.24"/>
<polygon fill="#000000" fill-opacity="0.200000" stroke="#000000" stroke-width="2" stroke-opacity="0.200000" points="177.97,-1114.57 180.84,-1120.24 182.14,-1114.02 177.97,-1114.57"/>
</g>
<!-- test&#45;project/src/root.layout.js -->
<g id="node42" class="node">
<title>test&#45;project/src/root.layout.js</title>
<g id="a_node42"><a xlink:href="test-project/src/root.layout.js" xlink:title="root.layout.js">
<path fill="#ccffcc" stroke="black" d="M95,-838.46C95,-838.46 39,-838.46 39,-838.46 36,-838.46 33,-835.46 33,-832.46 33,-832.46 33,-826.46 33,-826.46 33,-823.46 36,-820.46 39,-820.46 39,-820.46 95,-820.46 95,-820.46 98,-820.46 101,-823.46 101,-826.46 101,-826.46 101,-832.46 101,-832.46 101,-835.46 98,-838.46 95,-838.46"/>
<text text-anchor="middle" x="67" y="-827.26" font-family="Helvetica,sans-Serif" font-size="9.00">root.layout.js</text>
</a>
</g>
</g>
</g>
</svg>
