<svg height="2334pt" viewBox="0 0 818.12 2333.52" width="818pt" xmlns="http://www.w3.org/2000/svg" xmlns:xlink="http://www.w3.org/1999/xlink"><g transform="translate(4 2329.52)"><path d="m-4 4v-2333.52h818.12v2333.52z" fill="#fff"/><path d="m56.5-8h116.5c6 0 12-6 12-12v-156c0-6-6-12-12-12h-116.5c-6 0-12 6-12 12v156c0 6 6 12 12 12" fill="#fff" stroke="#000" stroke-width="2"/><text font-family="Helvetica,sans-Serif" font-size="9" font-weight="bold" text-anchor="middle" x="114.75" y="-175.45">.tap</text><path d="m64.5-16h100.5c6 0 12-6 12-12v-122c0-6-6-12-12-12h-100.5c-6 0-12 6-12 12v122c0 6 6 12 12 12" fill="#fff" stroke="#000" stroke-width="2"/><text font-family="Helvetica,sans-Serif" font-size="9" font-weight="bold" text-anchor="middle" x="114.75" y="-149.45">report</text><path d="m72.5-24h84.5c6 0 12-6 12-12v-88c0-6-6-12-12-12h-84.5c-6 0-12 6-12 12v88c0 6 6 12 12 12" fill="#fff" stroke="#000" stroke-width="2"/><text font-family="Helvetica,sans-Serif" font-size="9" font-weight="bold" text-anchor="middle" x="114.75" y="-123.45">lcov-report</text><path d="m725.5-972h46c6 0 12-6 12-12v-28c0-6-6-12-12-12h-46c-6 0-12 6-12 12v28c0 6 6 12 12 12" fill="#fff" stroke="#000" stroke-width="2"/><text font-family="Helvetica,sans-Serif" font-size="9" font-weight="bold" text-anchor="middle" x="748.5" y="-1011.45">fs</text><path d="m334.38-1288h455.74c6 0 12-6 12-12v-462c0-6-6-12-12-12h-455.74c-6 0-12 6-12 12v462c0 6 6 12 12 12" fill="#fff" stroke="#000" stroke-width="2"/><text font-family="Helvetica,sans-Serif" font-size="9" font-weight="bold" text-anchor="middle" x="562.25" y="-1761.45">lib</text><path d="m415.75-1322h366.37c6 0 12-6 12-12v-282c0-6-6-12-12-12h-366.37c-6 0-12 6-12 12v282c0 6 6 12 12 12" fill="#fff" stroke="#000" stroke-width="2"/><text font-family="Helvetica,sans-Serif" font-size="9" font-weight="bold" text-anchor="middle" x="598.94" y="-1615.45">build-pages</text><path d="m511.5-1330h179.38c6 0 12-6 12-12v-208c0-6-6-12-12-12h-179.38c-6 0-12 6-12 12v208c0 6 6 12 12 12" fill="#fff" stroke="#000" stroke-width="2"/><text font-family="Helvetica,sans-Serif" font-size="9" font-weight="bold" text-anchor="middle" x="601.19" y="-1549.45">page-builders</text><path d="m618.88-1424h46c6 0 12-6 12-12v-28c0-6-6-12-12-12h-46c-6 0-12 6-12 12v28c0 6 6 12 12 12" fill="#fff" stroke="#000" stroke-width="2"/><text font-family="Helvetica,sans-Serif" font-size="9" font-weight="bold" text-anchor="middle" x="641.88" y="-1463.45">js</text><path d="m618.88-1484h46c6 0 12-6 12-12v-28c0-6-6-12-12-12h-46c-6 0-12 6-12 12v28c0 6 6 12 12 12" fill="#fff" stroke="#000" stroke-width="2"/><text font-family="Helvetica,sans-Serif" font-size="9" font-weight="bold" text-anchor="middle" x="641.88" y="-1523.45">md</text><path d="m618.88-1338h46c6 0 12-6 12-12v-28c0-6-6-12-12-12h-46c-6 0-12 6-12 12v28c0 6 6 12 12 12" fill="#fff" stroke="#000" stroke-width="2"/><text font-family="Helvetica,sans-Serif" font-size="9" font-weight="bold" text-anchor="middle" x="641.88" y="-1377.45">html</text><path d="m415.75-1696h46c6 0 12-6 12-12v-28c0-6-6-12-12-12h-46c-6 0-12 6-12 12v28c0 6 6 12 12 12" fill="#fff" stroke="#000" stroke-width="2"/><text font-family="Helvetica,sans-Serif" font-size="9" font-weight="bold" text-anchor="middle" x="438.75" y="-1735.45">build-static</text><path d="m415.75-1636h46c6 0 12-6 12-12v-28c0-6-6-12-12-12h-46c-6 0-12 6-12 12v28c0 6 6 12 12 12" fill="#fff" stroke="#000" stroke-width="2"/><text font-family="Helvetica,sans-Serif" font-size="9" font-weight="bold" text-anchor="middle" x="438.75" y="-1675.45">build-esbuild</text><path d="m20-196h282.38c6 0 12-6 12-12v-2046c0-6-6-12-12-12h-282.38c-6 0-12 6-12 12v2046c0 6 6 12 12 12" fill="#fff" stroke="#000" stroke-width="2"/><text font-family="Helvetica,sans-Serif" font-size="9" font-weight="bold" text-anchor="middle" x="161.19" y="-2253.45">test-cases</text><path d="m78-1918h73.5c6 0 12-6 12-12v-118c0-6-6-12-12-12h-73.5c-6 0-12 6-12 12v118c0 6 6 12 12 12" fill="#fff" stroke="#000" stroke-width="2"/><text font-family="Helvetica,sans-Serif" font-size="9" font-weight="bold" text-anchor="middle" x="114.75" y="-2047.45">conflict-pages</text><path d="m86-1952h57.5c6 0 12-6 12-12v-58c0-6-6-12-12-12h-57.5c-6 0-12 6-12 12v58c0 6 6 12 12 12" fill="#fff" stroke="#000" stroke-width="2"/><text font-family="Helvetica,sans-Serif" font-size="9" font-weight="bold" text-anchor="middle" x="114.75" y="-2021.45">src</text><path d="m75.75-1798h78c6 0 12-6 12-12v-88c0-6-6-12-12-12h-78c-6 0-12 6-12 12v88c0 6 6 12 12 12" fill="#fff" stroke="#000" stroke-width="2"/><text font-family="Helvetica,sans-Serif" font-size="9" font-weight="bold" text-anchor="middle" x="114.75" y="-1897.45">default-layout</text><path d="m83.75-1832h62c6 0 12-6 12-12v-28c0-6-6-12-12-12h-62c-6 0-12 6-12 12v28c0 6 6 12 12 12" fill="#fff" stroke="#000" stroke-width="2"/><text font-family="Helvetica,sans-Serif" font-size="9" font-weight="bold" text-anchor="middle" x="114.75" y="-1871.45">src</text><path d="m28-748h266.38c6 0 12-6 12-12v-1018c0-6-6-12-12-12h-266.38c-6 0-12 6-12 12v1018c0 6 6 12 12 12" fill="#fff" stroke="#000" stroke-width="2"/><text font-family="Helvetica,sans-Serif" font-size="9" font-weight="bold" text-anchor="middle" x="161.19" y="-1777.45">general-features</text><path d="m62.75-1112h223.63c6 0 12-6 12-12v-628c0-6-6-12-12-12h-223.63c-6 0-12 6-12 12v628c0 6 6 12 12 12" fill="#fff" stroke="#000" stroke-width="2"/><text font-family="Helvetica,sans-Serif" font-size="9" font-weight="bold" text-anchor="middle" x="174.56" y="-1751.45">src</text><path d="m86-1656h57.5c6 0 12-6 12-12v-58c0-6-6-12-12-12h-57.5c-6 0-12 6-12 12v58c0 6 6 12 12 12" fill="#fff" stroke="#000" stroke-width="2"/><text font-family="Helvetica,sans-Serif" font-size="9" font-weight="bold" text-anchor="middle" x="114.75" y="-1725.45">html-page</text><path d="m70.75-1416h89c6 0 12-6 12-12v-208c0-6-6-12-12-12h-89c-6 0-12 6-12 12v208c0 6 6 12 12 12" fill="#fff" stroke="#000" stroke-width="2"/><text font-family="Helvetica,sans-Serif" font-size="9" font-weight="bold" text-anchor="middle" x="115.25" y="-1635.45">js-page</text><path d="m78.75-1570h73c6 0 12-6 12-12v-28c0-6-6-12-12-12h-73c-6 0-12 6-12 12v28c0 6 6 12 12 12" fill="#fff" stroke="#000" stroke-width="2"/><text font-family="Helvetica,sans-Serif" font-size="9" font-weight="bold" text-anchor="middle" x="115.25" y="-1609.45">js-no-async-export</text><path d="m83.75-1510h63c6 0 12-6 12-12v-28c0-6-6-12-12-12h-63c-6 0-12 6-12 12v28c0 6 6 12 12 12" fill="#fff" stroke="#000" stroke-width="2"/><text font-family="Helvetica,sans-Serif" font-size="9" font-weight="bold" text-anchor="middle" x="115.25" y="-1549.45">js-no-style-client</text><path d="m71.75-1326h206.63c6 0 12-6 12-12v-58c0-6-6-12-12-12h-206.63c-6 0-12 6-12 12v58c0 6 6 12 12 12" fill="#fff" stroke="#000" stroke-width="2"/><text font-family="Helvetica,sans-Serif" font-size="9" font-weight="bold" text-anchor="middle" x="175.06" y="-1395.45">layouts</text><path d="m225.5-1202h46c6 0 12-6 12-12v-28c0-6-6-12-12-12h-46c-6 0-12 6-12 12v28c0 6 6 12 12 12" fill="#fff" stroke="#000" stroke-width="2"/><text font-family="Helvetica,sans-Serif" font-size="9" font-weight="bold" text-anchor="middle" x="248.5" y="-1241.45">libs</text><path d="m86-1236h57.5c6 0 12-6 12-12v-58c0-6-6-12-12-12h-57.5c-6 0-12 6-12 12v58c0 6 6 12 12 12" fill="#fff" stroke="#000" stroke-width="2"/><text font-family="Helvetica,sans-Serif" font-size="9" font-weight="bold" text-anchor="middle" x="114.75" y="-1305.45">md-page</text><path d="m36-782h157.5c6 0 12-6 12-12v-298c0-6-6-12-12-12h-157.5c-6 0-12 6-12 12v298c0 6 6 12 12 12" fill="#fff" stroke="#000" stroke-width="2"/><text font-family="Helvetica,sans-Serif" font-size="9" font-weight="bold" text-anchor="middle" x="114.75" y="-1091.45">public</text><path d="m70.62-1026h88.26c6 0 12-6 12-12v-28c0-6-6-12-12-12h-88.26c-6 0-12 6-12 12v28c0 6 6 12 12 12" fill="#fff" stroke="#000" stroke-width="2"/><text font-family="Helvetica,sans-Serif" font-size="9" font-weight="bold" text-anchor="middle" x="114.75" y="-1065.45">html-page</text><path d="m68.75-966h92c6 0 12-6 12-12v-28c0-6-6-12-12-12h-92c-6 0-12 6-12 12v28c0 6 6 12 12 12" fill="#fff" stroke="#000" stroke-width="2"/><text font-family="Helvetica,sans-Serif" font-size="9" font-weight="bold" text-anchor="middle" x="114.75" y="-1005.45">js-page</text><path d="m44-906h141.5c6 0 12-6 12-12v-28c0-6-6-12-12-12h-141.5c-6 0-12 6-12 12v28c0 6 6 12 12 12" fill="#fff" stroke="#000" stroke-width="2"/><text font-family="Helvetica,sans-Serif" font-size="9" font-weight="bold" text-anchor="middle" x="114.75" y="-945.45">layouts</text><path d="m69.88-846h89.74c6 0 12-6 12-12v-28c0-6-6-12-12-12h-89.74c-6 0-12 6-12 12v28c0 6 6 12 12 12" fill="#fff" stroke="#000" stroke-width="2"/><text font-family="Helvetica,sans-Serif" font-size="9" font-weight="bold" text-anchor="middle" x="114.75" y="-885.45">md-page</text><path d="m55.75-474h118c6 0 12-6 12-12v-242c0-6-6-12-12-12h-118c-6 0-12 6-12 12v242c0 6 6 12 12 12" fill="#fff" stroke="#000" stroke-width="2"/><text font-family="Helvetica,sans-Serif" font-size="9" font-weight="bold" text-anchor="middle" x="114.75" y="-727.45">nested-dest</text><path d="m86-632h57.5c6 0 12-6 12-12v-58c0-6-6-12-12-12h-57.5c-6 0-12 6-12 12v58c0 6 6 12 12 12" fill="#fff" stroke="#000" stroke-width="2"/><text font-family="Helvetica,sans-Serif" font-size="9" font-weight="bold" text-anchor="middle" x="114.75" y="-701.45">md-page</text><path d="m63.75-538h102c6 0 12-6 12-12v-62c0-6-6-12-12-12h-102c-6 0-12 6-12 12v62c0 6 6 12 12 12" fill="#fff" stroke="#000" stroke-width="2"/><text font-family="Helvetica,sans-Serif" font-size="9" font-weight="bold" text-anchor="middle" x="114.75" y="-611.45">public</text><path d="m71.75-546h86c6 0 12-6 12-12v-28c0-6-6-12-12-12h-86c-6 0-12 6-12 12v28c0 6 6 12 12 12" fill="#fff" stroke="#000" stroke-width="2"/><text font-family="Helvetica,sans-Serif" font-size="9" font-weight="bold" text-anchor="middle" x="114.75" y="-585.45">md-page</text><path d="m57.75-204h114c6 0 12-6 12-12v-238c0-6-6-12-12-12h-114c-6 0-12 6-12 12v238c0 6 6 12 12 12" fill="#fff" stroke="#000" stroke-width="2"/><text font-family="Helvetica,sans-Serif" font-size="9" font-weight="bold" text-anchor="middle" x="114.75" y="-453.45">page-build-errors</text><path d="m65.75-298h98c6 0 12-6 12-12v-118c0-6-6-12-12-12h-98c-6 0-12 6-12 12v118c0 6 6 12 12 12" fill="#fff" stroke="#000" stroke-width="2"/><text font-family="Helvetica,sans-Serif" font-size="9" font-weight="bold" text-anchor="middle" x="114.75" y="-427.45">src</text><path d="m73.75-362h82c6 0 12-6 12-12v-28c0-6-6-12-12-12h-82c-6 0-12 6-12 12v28c0 6 6 12 12 12" fill="#fff" stroke="#000" stroke-width="2"/><text font-family="Helvetica,sans-Serif" font-size="9" font-weight="bold" text-anchor="middle" x="114.75" y="-401.45">another-broken-page</text><path d="m68.75-238h92c6 0 12-6 12-12v-28c0-6-6-12-12-12h-92c-6 0-12 6-12 12v28c0 6 6 12 12 12" fill="#fff" stroke="#000" stroke-width="2"/><text font-family="Helvetica,sans-Serif" font-size="9" font-weight="bold" text-anchor="middle" x="114.75" y="-277.45">public</text><path d="m57.75-2068h114c6 0 12-6 12-12v-148c0-6-6-12-12-12h-114c-6 0-12 6-12 12v148c0 6 6 12 12 12" fill="#fff" stroke="#000" stroke-width="2"/><text font-family="Helvetica,sans-Serif" font-size="9" font-weight="bold" text-anchor="middle" x="114.75" y="-2227.45">build-errors</text><path d="m65.75-2102h98c6 0 12-6 12-12v-88c0-6-6-12-12-12h-98c-6 0-12 6-12 12v88c0 6 6 12 12 12" fill="#fff" stroke="#000" stroke-width="2"/><text font-family="Helvetica,sans-Serif" font-size="9" font-weight="bold" text-anchor="middle" x="114.75" y="-2201.45">src</text><path d="m73.75-2136h82c6 0 12-6 12-12v-28c0-6-6-12-12-12h-82c-6 0-12 6-12 12v28c0 6 6 12 12 12" fill="#fff" stroke="#000" stroke-width="2"/><text font-family="Helvetica,sans-Serif" font-size="9" font-weight="bold" text-anchor="middle" x="114.75" y="-2175.45">another-broken-page</text><a xlink:href=".tap/report/lcov-report/block-navigation.js" xlink:title="block&#45;navigation.js"><path d="m155.08-109.88h-80.66c-2.96 0-5.92 2.96-5.92 5.92v5.92c0 2.96 2.96 5.92 5.92 5.92h80.66c2.96 0 5.92-2.96 5.92-5.92v-5.92c0-2.96-2.96-5.92-5.92-5.92" fill="#cfc" stroke="#000"/><text font-family="Helvetica,sans-Serif" font-size="9" x="76.5" y="-97.33">block-navigation.js</text></a><a xlink:href=".tap/report/lcov-report/prettify.js" xlink:title="prettify.js"><path d="m135.83-79.88h-42.16c-2.96 0-5.92 2.96-5.92 5.92v5.92c0 2.96 2.96 5.92 5.92 5.92h42.16c2.96 0 5.92-2.96 5.92-5.92v-5.92c0-2.96-2.96-5.92-5.92-5.92" fill="#cfc" stroke="#000"/><text font-family="Helvetica,sans-Serif" font-size="9" x="96.75" y="-67.33">prettify.js</text></a><a xlink:href=".tap/report/lcov-report/sorter.js" xlink:title="sorter.js"><path d="m135.83-49.88h-42.16c-2.96 0-5.92 2.96-5.92 5.92v5.92c0 2.96 2.96 5.92 5.92 5.92h42.16c2.96 0 5.92-2.96 5.92-5.92v-5.92c0-2.96-2.96-5.92-5.92-5.92" fill="#cfc" stroke="#000"/><text font-family="Helvetica,sans-Serif" font-size="9" x="98.62" y="-37.33">sorter.js</text></a><a xlink:href="bin.js" xlink:title="bin.js"><path d="m135.83-2305.88h-42.16c-2.96 0-5.92 2.96-5.92 5.92v5.92c0 2.96 2.96 5.92 5.92 5.92h42.16c2.96 0 5.92-2.96 5.92-5.92v-5.92c0-2.96-2.96-5.92-5.92-5.92" fill="#ffc" stroke="#000"/><text font-family="Helvetica,sans-Serif" font-size="9" text-anchor="middle" x="114.75" y="-2293.32">bin.js</text></a><a xlink:href="index.js" xlink:title="index.js"><path d="m269.58-2291.88h-42.16c-2.96 0-5.92 2.96-5.92 5.92v5.92c0 2.96 2.96 5.92 5.92 5.92h42.16c2.96 0 5.92-2.96 5.92-5.92v-5.92c0-2.96-2.96-5.92-5.92-5.92" fill="#ffc" stroke="#000"/><text font-family="Helvetica,sans-Serif" font-size="9" text-anchor="middle" x="248.5" y="-2279.32">index.js</text></a><path d="m142.09-2294.2c20.2 2.15 48.26 5.13 70.36 7.48" fill="none" stroke="#000" stroke-opacity=".2" stroke-width="2"/><path d="m212.45-2288.84 5.74 2.73-6.19 1.45z" fill-opacity=".2" stroke="#000" stroke-opacity=".2" stroke-width="2"/><a xlink:title="promises"><path d="m769.58-997.88h-42.16c-2.96 0-5.92 2.96-5.92 5.92v5.92c0 2.96 2.96 5.92 5.92 5.92h42.16c2.96 0 5.92-2.96 5.92-5.92v-5.92c0-2.96-2.96-5.92-5.92-5.92" fill="#ffc" stroke="#808080"/><text fill="#808080" font-family="Helvetica,sans-Serif" font-size="9" x="729.75" y="-985.33">promises</text></a><path d="m139.27-2306.37c41.71-14.87 128.59-37.78 175.11 8.37 9.98 9.91 1.43 1000.55 8 1013 86.1 163.3 307.45 255.03 391.79 284.97" fill="none" stroke="#000" stroke-dasharray="5 2" stroke-opacity=".2"/><path d="m714.8-1002.03 4.97 3.96h-6.36z" fill-opacity=".2" stroke="#000" stroke-opacity=".2"/><a xlink:href="lib/build-static/index.js" xlink:title="index.js"><path d="m459.83-1721.88h-42.16c-2.96 0-5.92 2.96-5.92 5.92v5.92c0 2.96 2.96 5.92 5.92 5.92h42.16c2.96 0 5.92-2.96 5.92-5.92v-5.92c0-2.96-2.96-5.92-5.92-5.92" fill="#ffc" stroke="#000"/><text font-family="Helvetica,sans-Serif" font-size="9" text-anchor="middle" x="438.75" y="-1709.33">index.js</text></a><path d="m252.46-2274.05c21.21 64.23 150.2 454.8 179.41 543.25" fill="none" stroke="#000" stroke-opacity=".2" stroke-width="2"/><path d="m433.82-1731.59-.11 6.35-3.88-5.04z" fill-opacity=".2" stroke="#000" stroke-opacity=".2" stroke-width="2"/><a xlink:href="lib/builder.js" xlink:title="builder.js"><path d="m378.46-1626.88h-42.17c-2.96 0-5.91 2.96-5.91 5.92v5.92c0 2.96 2.95 5.92 5.91 5.92h42.17c2.96 0 5.92-2.96 5.92-5.92v-5.92c0-2.96-2.96-5.92-5.92-5.92" fill="#ffc" stroke="#000"/><text font-family="Helvetica,sans-Serif" font-size="9" x="338.62" y="-1614.33">builder.js</text></a><path d="m250.93-2274.1c11.35 70.63 86.85 540.43 102.58 638.27" fill="none" stroke="#000" stroke-opacity=".2" stroke-width="2"/><path d="m355.55-1636.34-1.12 6.25-3.02-5.59z" fill-opacity=".2" stroke="#000" stroke-opacity=".2" stroke-width="2"/><path d="m358.79-1608.92c2.37 50.55 15.05 295.93 38.59 318.92 48.78 47.65 255.66-17.55 305.5 29 37.5 35.03 43.48 202.3 44.44 255.63" fill="none" stroke="#000" stroke-dasharray="5 2" stroke-opacity=".2"/><path d="m749.41-1005.64-2 6.03-2.19-5.96z" fill-opacity=".2" stroke="#000" stroke-opacity=".2"/><path d="m361.31-1627.13c5.18-14.96 17.24-44.89 36.07-63.87 3-3.03 6.51-5.75 10.18-8.16" fill="none" stroke="#000" stroke-opacity=".2" stroke-width="2"/><path d="m406.38-1700.9 6.23-1.24-4.1 4.85z" fill-opacity=".2" stroke="#000" stroke-opacity=".2" stroke-width="2"/><a xlink:href="lib/build-esbuild/index.js" xlink:title="index.js"><path d="m459.83-1661.88h-42.16c-2.96 0-5.92 2.96-5.92 5.92v5.92c0 2.96 2.96 5.92 5.92 5.92h42.16c2.96 0 5.92-2.96 5.92-5.92v-5.92c0-2.96-2.96-5.92-5.92-5.92" fill="#ffc" stroke="#000"/><text font-family="Helvetica,sans-Serif" font-size="9" text-anchor="middle" x="438.75" y="-1649.33">index.js</text></a><path d="m379.23-1627.2c8.95-3.94 19.57-8.62 29.29-12.91" fill="none" stroke="#000" stroke-opacity=".2" stroke-width="2"/><path d="m407.65-1642.02 6.34-.5-4.64 4.34z" fill-opacity=".2" stroke="#000" stroke-opacity=".2" stroke-width="2"/><a xlink:href="lib/build-pages/index.js" xlink:title="index.js"><path d="m459.83-1590.88h-42.16c-2.96 0-5.92 2.96-5.92 5.92v5.92c0 2.96 2.96 5.92 5.92 5.92h42.16c2.96 0 5.92-2.96 5.92-5.92v-5.92c0-2.96-2.96-5.92-5.92-5.92" fill="#ffc" stroke="#000"/><text font-family="Helvetica,sans-Serif" font-size="9" text-anchor="middle" x="438.75" y="-1578.33">index.js</text></a><path d="m378.82-1608.73c9.18 4.17 20.19 9.16 30.18 13.69" fill="none" stroke="#000" stroke-opacity=".2" stroke-width="2"/><path d="m409.75-1597.01 4.6 4.4-6.34-.57z" fill-opacity=".2" stroke="#000" stroke-opacity=".2" stroke-width="2"/><a xlink:href="lib/identify-pages.js" xlink:title="identify&#45;pages.js"><path d="m474.21-1313.88h-70.92c-2.96 0-5.91 2.96-5.91 5.92v5.92c0 2.96 2.95 5.92 5.91 5.92h70.92c2.96 0 5.91-2.96 5.91-5.92v-5.92c0-2.96-2.95-5.92-5.91-5.92" fill="#ffc" stroke="#000"/><text font-family="Helvetica,sans-Serif" font-size="9" x="405.38" y="-1301.33">identify-pages.js</text></a><path d="m358.32-1608.84c-.1 43.33 1.48 227.83 39.19 287.69" fill="none" stroke="#000" stroke-opacity=".2" stroke-width="2"/><path d="m398.97-1322.72 1.81 6.1-5.22-3.64z" fill-opacity=".2" stroke="#000" stroke-opacity=".2" stroke-width="2"/><a xlink:href="lib/build-pages/resolve-vars.js" xlink:title="resolve&#45;vars.js"><path d="m780.21-1579.88h-63.42c-2.96 0-5.91 2.96-5.91 5.92v5.92c0 2.96 2.95 5.92 5.91 5.92h63.42c2.96 0 5.91-2.96 5.91-5.92v-5.92c0-2.96-2.95-5.92-5.91-5.92" fill="#ffc" stroke="#000"/><text font-family="Helvetica,sans-Serif" font-size="9" x="718.88" y="-1567.33">resolve-vars.js</text></a><path d="m465.99-1646.01c53 14.12 173.29 46.17 238.14 63.45" fill="none" stroke="#000" stroke-opacity=".2" stroke-width="2"/><path d="m704.34-1584.67 5.26 3.57-6.34.48z" fill-opacity=".2" stroke="#000" stroke-opacity=".2" stroke-width="2"/><path d="m466.07-1579.78c8.62.66 18.24 1.33 27.05 1.78 72.84 3.73 157.52 5.56 208.48 6.39" fill="none" stroke="#000" stroke-opacity=".2" stroke-width="2"/><path d="m701.41-1573.71 5.97 2.19-6.03 2.01z" fill-opacity=".2" stroke="#000" stroke-opacity=".2" stroke-width="2"/><a xlink:href="lib/build-pages/page-builders/index.js" xlink:title="index.js"><path d="m555.58-1449.88h-42.16c-2.96 0-5.92 2.96-5.92 5.92v5.92c0 2.96 2.96 5.92 5.92 5.92h42.16c2.96 0 5.92-2.96 5.92-5.92v-5.92c0-2.96-2.96-5.92-5.92-5.92" fill="#ffc" stroke="#000"/><text font-family="Helvetica,sans-Serif" font-size="9" text-anchor="middle" x="534.5" y="-1437.33">index.js</text></a><path d="m465.89-1578.33c5.43 1.94 10.6 4.89 14.23 9.33 32.58 39.8-19.57 75.2 13 115 1.82 2.22 4.03 4.07 6.45 5.6" fill="none" stroke="#000" stroke-opacity=".2" stroke-width="2"/><path d="m500.13-1450.46 4.5 4.49-6.32-.7z" fill-opacity=".2" stroke="#000" stroke-opacity=".2" stroke-width="2"/><a xlink:href="lib/build-pages/resolve-layout.js" xlink:title="resolve&#45;layout.js"><path d="m569.96-1601.88h-70.92c-2.96 0-5.92 2.96-5.92 5.92v5.92c0 2.96 2.96 5.92 5.92 5.92h70.92c2.96 0 5.92-2.96 5.92-5.92v-5.92c0-2.96-2.96-5.92-5.92-5.92" fill="#ffc" stroke="#000"/><text font-family="Helvetica,sans-Serif" font-size="9" x="501.12" y="-1589.33">resolve-layout.js</text></a><path d="m465.86-1585.06c5.74-.68 12-1.41 18.31-2.15" fill="none" stroke="#000" stroke-opacity=".2" stroke-width="2"/><path d="m483.57-1589.26 6.2 1.39-5.71 2.79z" fill-opacity=".2" stroke="#000" stroke-opacity=".2" stroke-width="2"/><a xlink:href="lib/build-pages/page-builders/create-page-builder.js" xlink:title="create&#45;page&#45;builder.js"><path d="m688.96-1415.88h-94.17c-2.96 0-5.91 2.96-5.91 5.92v5.92c0 2.96 2.95 5.92 5.91 5.92h94.17c2.96 0 5.92-2.96 5.92-5.92v-5.92c0-2.96-2.96-5.92-5.92-5.92" fill="#ffc" stroke="#000"/><text font-family="Helvetica,sans-Serif" font-size="9" x="596.88" y="-1403.33">create-page-builder.js</text></a><path d="m561.82-1433.29c4.73 1.6 9.58 3.39 14.06 5.29 6.03 2.57 6.9 4.58 13 7 1.59.63 3.23 1.25 4.89 1.85" fill="none" stroke="#000" stroke-opacity=".2" stroke-width="2"/><path d="m594.31-1421.19 5.03 3.9-6.36.09z" fill-opacity=".2" stroke="#000" stroke-opacity=".2" stroke-width="2"/><a xlink:href="lib/build-pages/page-builders/html/index.js" xlink:title="index.js"><path d="m662.96-1363.88h-42.17c-2.96 0-5.91 2.96-5.91 5.92v5.92c0 2.96 2.95 5.92 5.91 5.92h42.17c2.96 0 5.92-2.96 5.92-5.92v-5.92c0-2.96-2.96-5.92-5.92-5.92" fill="#ffc" stroke="#000"/><text font-family="Helvetica,sans-Serif" font-size="9" text-anchor="middle" x="641.88" y="-1351.33">index.js</text></a><path d="m561.74-1436.91c5.29 1.93 10.38 4.76 14.14 8.91 18.32 20.22-5.99 40.4 13 60 4.58 4.73 10.61 7.84 16.93 9.86" fill="none" stroke="#000" stroke-opacity=".2" stroke-width="2"/><path d="m606.24-1360.19 5.32 3.46-6.33.61z" fill-opacity=".2" stroke="#000" stroke-opacity=".2" stroke-width="2"/><a xlink:href="lib/build-pages/page-builders/js/index.js" xlink:title="index.js"><path d="m662.96-1449.88h-42.17c-2.96 0-5.91 2.96-5.91 5.92v5.92c0 2.96 2.95 5.92 5.91 5.92h42.17c2.96 0 5.92-2.96 5.92-5.92v-5.92c0-2.96-2.96-5.92-5.92-5.92" fill="#ffc" stroke="#000"/><text font-family="Helvetica,sans-Serif" font-size="9" text-anchor="middle" x="641.88" y="-1437.33">index.js</text></a><path d="m561.82-1441h44.06" fill="none" stroke="#000" stroke-opacity=".2" stroke-width="2"/><path d="m605.5-1443.1 6 2.1-6 2.1z" fill-opacity=".2" stroke="#000" stroke-opacity=".2" stroke-width="2"/><a xlink:href="lib/build-pages/page-builders/md/index.js" xlink:title="index.js"><path d="m662.96-1509.88h-42.17c-2.96 0-5.91 2.96-5.91 5.92v5.92c0 2.96 2.95 5.92 5.91 5.92h42.17c2.96 0 5.92-2.96 5.92-5.92v-5.92c0-2.96-2.96-5.92-5.92-5.92" fill="#ffc" stroke="#000"/><text font-family="Helvetica,sans-Serif" font-size="9" text-anchor="middle" x="641.88" y="-1497.33">index.js</text></a><g stroke="#000" stroke-opacity=".2"><path d="m561.81-1446.19c5.05-1.86 10.01-4.39 14.07-7.81 9.56-8.08 3.8-16.5 13-25 5.06-4.68 11.26-8.44 17.6-11.45" fill="none" stroke-width="2"/><path d="m605.37-1492.26 6.35-.41-4.71 4.28z" fill-opacity=".2" stroke-width="2"/><path d="m695.35-1399.32c2.78 1.75 5.33 3.84 7.53 6.32 10.96 12.38 6.19 57.56 8 74 13.17 120.25 29.36 265.11 34.76 313.42" fill="none" stroke-dasharray="5 2"/><path d="m747.72-1005.89-1.42 6.2-2.75-5.73z" fill-opacity=".2"/><path d="m695.13-1415.32c2.8-1.6 5.41-3.48 7.75-5.68 37.46-35.28 43.91-100.47 44.74-131.99" fill="none" stroke-width="2"/><path d="m745.51-1552.62 2.17-5.98 2.03 6.03z" fill-opacity=".2" stroke-width="2"/><path d="m669.28-1355.8c11.92 1.1 25.17 4.6 33.6 13.8 11.57 12.64 36.62 268.76 43.08 336.62" fill="none" stroke-dasharray="5 2"/><path d="m748.03-1005.74-1.52 6.17-2.66-5.78z" fill-opacity=".2"/><path d="m669.31-1497.98c12.22 2.85 25.74 8.35 33.57 18.98 10.55 14.33 6.57 142.26 8 160 9.69 120.58 28.1 265.23 34.42 313.46" fill="none" stroke-dasharray="5 2"/><path d="m747.38-1005.89-1.3 6.22-2.87-5.67z" fill-opacity=".2"/><path d="m480.46-1308.14c65.73-4.13 191.04-7.81 222.42 21.14 41.49 38.29 44.74 223.92 44.73 281.16" fill="none" stroke-dasharray="5 2"/><path d="m749.71-1005.87-2.11 6-2.09-6.01z" fill-opacity=".2"/></g><a xlink:href="test-cases/build-errors/index.test.js" xlink:title="index.test.js"><path d="m140.83-2093.88h-52.16c-2.96 0-5.92 2.96-5.92 5.92v5.92c0 2.96 2.96 5.92 5.92 5.92h52.16c2.96 0 5.92-2.96 5.92-5.92v-5.92c0-2.96-2.96-5.92-5.92-5.92" fill="#ffc" stroke="#000"/><text font-family="Helvetica,sans-Serif" font-size="9" x="90.75" y="-2081.32">index.test.js</text></a><path d="m146.94-2081.69c19.24.26 43.11-2.9 58.56-17.31 24.18-22.55 36.34-123.9 40.4-165.79" fill="none" stroke="#000" stroke-opacity=".2" stroke-width="2"/><path d="m243.8-2264.86 2.64-5.78 1.54 6.17z" fill-opacity=".2" stroke="#000" stroke-opacity=".2" stroke-width="2"/><path d="m146.88-2077.25c20.53 6.9 45.9 19.24 58.62 40.25 12.06 19.91 4.44 814.99 8 838 33.13 214.08-73.75 466 142.88 466h179.12c125.11 0 190.36-183.61 207.41-239.83" fill="none" stroke="#000" stroke-dasharray="5 2" stroke-opacity=".2"/><path d="m740.85-973.28 3.72-5.16.31 6.35z" fill-opacity=".2" stroke="#000" stroke-opacity=".2"/><a xlink:href="test-cases/build-errors/src/another-broken-page/page.js" xlink:title="page.js"><path d="m135.83-2161.88h-42.16c-2.96 0-5.92 2.96-5.92 5.92v5.92c0 2.96 2.96 5.92 5.92 5.92h42.16c2.96 0 5.92-2.96 5.92-5.92v-5.92c0-2.96-2.96-5.92-5.92-5.92" fill="#cfc" stroke="#000"/><text font-family="Helvetica,sans-Serif" font-size="9" x="99.75" y="-2149.32">page.js</text></a><a xlink:href="test-cases/build-errors/src/client.js" xlink:title="client.js"><path d="m135.83-2127.88h-42.16c-2.96 0-5.92 2.96-5.92 5.92v5.92c0 2.96 2.96 5.92 5.92 5.92h42.16c2.96 0 5.92-2.96 5.92-5.92v-5.92c0-2.96-2.96-5.92-5.92-5.92" fill="#cfc" stroke="#000"/><text font-family="Helvetica,sans-Serif" font-size="9" x="99.38" y="-2115.32">client.js</text></a><a xlink:href="test-cases/conflict-pages/index.test.js" xlink:title="index.test.js"><path d="m140.83-1943.88h-52.16c-2.96 0-5.92 2.96-5.92 5.92v5.92c0 2.96 2.96 5.92 5.92 5.92h52.16c2.96 0 5.92-2.96 5.92-5.92v-5.92c0-2.96-2.96-5.92-5.92-5.92" fill="#ffc" stroke="#000"/><text font-family="Helvetica,sans-Serif" font-size="9" x="90.75" y="-1931.33">index.test.js</text></a><path d="m147.01-1931.19c19.51.52 43.66-2.53 58.49-17.81 44.15-45.48 43.64-253.65 42.45-316.19" fill="none" stroke="#000" stroke-opacity=".2" stroke-width="2"/><path d="m245.86-2264.85 1.97-6.05 2.23 5.96z" fill-opacity=".2" stroke="#000" stroke-opacity=".2" stroke-width="2"/><path d="m146.9-1927.26c20.53 6.89 45.9 19.24 58.6 40.26 8.36 13.84-2.82 1151.99 8 1164 42.76 47.48 78.98 16 142.88 16h179.12c74.73 0 112.69 34.93 167.38-16 36.58-34.08 43.18-196.44 44.36-249.31" fill="none" stroke="#000" stroke-dasharray="5 2" stroke-opacity=".2"/><path d="m745.14-972.35 2.22-5.96 1.98 6.04z" fill-opacity=".2" stroke="#000" stroke-opacity=".2"/><a xlink:href="test-cases/conflict-pages/src/page.js" xlink:title="page.js"><path d="m135.83-2007.88h-42.16c-2.96 0-5.92 2.96-5.92 5.92v5.92c0 2.96 2.96 5.92 5.92 5.92h42.16c2.96 0 5.92-2.96 5.92-5.92v-5.92c0-2.96-2.96-5.92-5.92-5.92" fill="#cfc" stroke="#000"/><text font-family="Helvetica,sans-Serif" font-size="9" x="99.75" y="-1995.33">page.js</text></a><a xlink:href="test-cases/conflict-pages/src/page.vars.js" xlink:title="page.vars.js"><path d="m141.58-1977.88h-53.66c-2.96 0-5.92 2.96-5.92 5.92v5.92c0 2.96 2.96 5.92 5.92 5.92h53.66c2.96 0 5.92-2.96 5.92-5.92v-5.92c0-2.96-2.96-5.92-5.92-5.92" fill="#cfc" stroke="#000"/><text font-family="Helvetica,sans-Serif" font-size="9" x="90" y="-1965.33">page.vars.js</text></a><a xlink:href="test-cases/default-layout/index.test.js" xlink:title="index.test.js"><path d="m140.83-1823.88h-52.16c-2.96 0-5.92 2.96-5.92 5.92v5.92c0 2.96 2.96 5.92 5.92 5.92h52.16c2.96 0 5.92-2.96 5.92-5.92v-5.92c0-2.96-2.96-5.92-5.92-5.92" fill="#ffc" stroke="#000"/><text font-family="Helvetica,sans-Serif" font-size="9" x="90.75" y="-1811.33">index.test.js</text></a><path d="m147.18-1811.03c19.58.59 43.74-2.45 58.32-17.97 30.34-32.3 39.74-355.45 41.62-435.92" fill="none" stroke="#000" stroke-opacity=".2" stroke-width="2"/><path d="m245.01-2264.9 2.24-5.95 1.96 6.05z" fill-opacity=".2" stroke="#000" stroke-opacity=".2" stroke-width="2"/><path d="m135.1-1805.64c21.72 11.71 55.81 34.01 70.4 64.64 12.47 26.18-11.41 1022.46 8 1044 42.78 47.47 78.98 16 142.88 16h179.12c74.73 0 113.07 35.33 167.38-16 40.22-38.02 44.34-219.57 44.64-275.54" fill="none" stroke="#000" stroke-dasharray="5 2" stroke-opacity=".2"/><path d="m745.42-972.34 2.12-6 2.08 6.01z" fill-opacity=".2" stroke="#000" stroke-opacity=".2"/><a xlink:href="test-cases/default-layout/src/global.vars.js" xlink:title="global.vars.js"><path d="m143.83-1857.88h-58.16c-2.96 0-5.92 2.96-5.92 5.92v5.92c0 2.96 2.96 5.92 5.92 5.92h58.16c2.96 0 5.92-2.96 5.92-5.92v-5.92c0-2.96-2.96-5.92-5.92-5.92" fill="#cfc" stroke="#000"/><text font-family="Helvetica,sans-Serif" font-size="9" x="87.75" y="-1845.33">global.vars.js</text></a><a xlink:href="test-cases/general-features/index.test.js" xlink:title="index.test.js"><path d="m140.83-773.88h-52.16c-2.96 0-5.92 2.96-5.92 5.92v5.92c0 2.96 2.96 5.92 5.92 5.92h52.16c2.96 0 5.92-2.96 5.92-5.92v-5.92c0-2.96-2.96-5.92-5.92-5.92" fill="#ffc" stroke="#000"/><text font-family="Helvetica,sans-Serif" font-size="9" x="90.75" y="-761.33">index.test.js</text></a><path d="m147.16-760.66c19.84.8 44.29-2.14 58.34-18.34 5.75-6.63 7.77-623.22 8-632 8.88-343.79 28.74-763.49 33.13-854.19" fill="none" stroke="#000" stroke-opacity=".2" stroke-width="2"/><path d="m244.52-2265.07 2.39-5.89 1.81 6.1z" fill-opacity=".2" stroke="#000" stroke-opacity=".2" stroke-width="2"/><path d="m147.14-756.08c19.83 7.28 44.28 19.6 58.36 39.08 12.16 16.82-7.11 31.78 8 46 46.53 43.79 78.98 16 142.88 16h179.12c74.73 0 113.38 35.66 167.38-16 43.76-41.87 45.38-241.75 44.87-301.25" fill="none" stroke="#000" stroke-dasharray="5 2" stroke-opacity=".2"/><path d="m745.65-972.15 2.03-6.02 2.17 5.98z" fill-opacity=".2" stroke="#000" stroke-opacity=".2"/><a xlink:href="test-cases/general-features/public/client-XA44T36G.js" xlink:title="client&#45;XA44T36G.js"><path d="m156.21-837.88h-82.92c-2.96 0-5.91 2.96-5.91 5.92v5.92c0 2.96 2.95 5.92 5.91 5.92h82.92c2.96 0 5.91-2.96 5.91-5.92v-5.92c0-2.96-2.95-5.92-5.91-5.92" fill="#cfc" stroke="#000"/><text font-family="Helvetica,sans-Serif" font-size="9" x="75.38" y="-825.33">client-XA44T36G.js</text></a><a xlink:href="test-cases/general-features/public/global.client-HGEKZZSE.js" xlink:title="global.client&#45;HGEKZZSE.js"><path d="m171.58-807.88h-113.66c-2.96 0-5.92 2.96-5.92 5.92v5.92c0 2.96 2.96 5.92 5.92 5.92h113.66c2.96 0 5.92-2.96 5.92-5.92v-5.92c0-2.96-2.96-5.92-5.92-5.92" fill="#cfc" stroke="#000"/><text font-family="Helvetica,sans-Serif" font-size="9" x="60" y="-795.33">global.client-HGEKZZSE.js</text></a><a xlink:href="test-cases/general-features/public/html-page/client-P33YF4QG.js" xlink:title="client&#45;P33YF4QG.js"><path d="m156.96-1051.88h-84.42c-2.96 0-5.92 2.96-5.92 5.92v5.92c0 2.96 2.96 5.92 5.92 5.92h84.42c2.96 0 5.92-2.96 5.92-5.92v-5.92c0-2.96-2.96-5.92-5.92-5.92" fill="#cfc" stroke="#000"/><text font-family="Helvetica,sans-Serif" font-size="9" x="74.62" y="-1039.33">client-P33YF4QG.js</text></a><a xlink:href="test-cases/general-features/public/js-page/client-GDCZFMOL.js" xlink:title="client&#45;GDCZFMOL.js"><path d="m158.83-991.88h-88.16c-2.96 0-5.92 2.96-5.92 5.92v5.92c0 2.96 2.96 5.92 5.92 5.92h88.16c2.96 0 5.92-2.96 5.92-5.92v-5.92c0-2.96-2.96-5.92-5.92-5.92" fill="#cfc" stroke="#000"/><text font-family="Helvetica,sans-Serif" font-size="9" x="72.75" y="-979.33">client-GDCZFMOL.js</text></a><a xlink:href="test-cases/general-features/public/layouts/blog.layout.client-GHS6BWW7.js" xlink:title="blog.layout.client&#45;GHS6BWW7.js"><path d="m183.58-931.88h-137.66c-2.96 0-5.92 2.96-5.92 5.92v5.92c0 2.96 2.96 5.92 5.92 5.92h137.66c2.96 0 5.92-2.96 5.92-5.92v-5.92c0-2.96-2.96-5.92-5.92-5.92" fill="#cfc" stroke="#000"/><text font-family="Helvetica,sans-Serif" font-size="9" x="48" y="-919.33">blog.layout.client-GHS6BWW7.js</text></a><a xlink:href="test-cases/general-features/public/md-page/client-R4ZZXMTO.js" xlink:title="client&#45;R4ZZXMTO.js"><path d="m157.71-871.88h-85.92c-2.96 0-5.91 2.96-5.91 5.92v5.92c0 2.96 2.95 5.92 5.91 5.92h85.92c2.96 0 5.91-2.96 5.91-5.92v-5.92c0-2.96-2.95-5.92-5.91-5.92" fill="#cfc" stroke="#000"/><text font-family="Helvetica,sans-Serif" font-size="9" x="73.88" y="-859.33">client-R4ZZXMTO.js</text></a><a xlink:href="test-cases/general-features/src/client.js" xlink:title="client.js"><path d="m135.83-1227.88h-42.16c-2.96 0-5.92 2.96-5.92 5.92v5.92c0 2.96 2.96 5.92 5.92 5.92h42.16c2.96 0 5.92-2.96 5.92-5.92v-5.92c0-2.96-2.96-5.92-5.92-5.92" fill="#ffc" stroke="#000"/><text font-family="Helvetica,sans-Serif" font-size="9" x="99.38" y="-1215.33">client.js</text></a><a xlink:href="test-cases/general-features/src/libs/a-lib.js" xlink:title="a&#45;lib.js"><path d="m269.58-1227.88h-42.16c-2.96 0-5.92 2.96-5.92 5.92v5.92c0 2.96 2.96 5.92 5.92 5.92h42.16c2.96 0 5.92-2.96 5.92-5.92v-5.92c0-2.96-2.96-5.92-5.92-5.92" fill="#ffc" stroke="#000"/><text font-family="Helvetica,sans-Serif" font-size="9" x="235" y="-1215.33">a-lib.js</text></a><path d="m142.09-1219h70.36" fill="none" stroke="#000" stroke-opacity=".2" stroke-width="2"/><path d="m212.17-1221.1 6 2.1-6 2.1z" fill-opacity=".2" stroke="#000" stroke-opacity=".2" stroke-width="2"/><a xlink:href="test-cases/general-features/src/global.client.js" xlink:title="global.client.js"><path d="m146.08-1197.88h-62.66c-2.96 0-5.92 2.96-5.92 5.92v5.92c0 2.96 2.96 5.92 5.92 5.92h62.66c2.96 0 5.92-2.96 5.92-5.92v-5.92c0-2.96-2.96-5.92-5.92-5.92" fill="#cfc" stroke="#000"/><text font-family="Helvetica,sans-Serif" font-size="9" x="85.5" y="-1185.33">global.client.js</text></a><a xlink:href="test-cases/general-features/src/global.vars.js" xlink:title="global.vars.js"><path d="m143.83-1167.88h-58.16c-2.96 0-5.92 2.96-5.92 5.92v5.92c0 2.96 2.96 5.92 5.92 5.92h58.16c2.96 0 5.92-2.96 5.92-5.92v-5.92c0-2.96-2.96-5.92-5.92-5.92" fill="#cfc" stroke="#000"/><text font-family="Helvetica,sans-Serif" font-size="9" x="87.75" y="-1155.33">global.vars.js</text></a><a xlink:href="test-cases/general-features/src/html-page/client.js" xlink:title="client.js"><path d="m135.83-1711.88h-42.16c-2.96 0-5.92 2.96-5.92 5.92v5.92c0 2.96 2.96 5.92 5.92 5.92h42.16c2.96 0 5.92-2.96 5.92-5.92v-5.92c0-2.96-2.96-5.92-5.92-5.92" fill="#cfc" stroke="#000"/><text font-family="Helvetica,sans-Serif" font-size="9" x="99.38" y="-1699.33">client.js</text></a><a xlink:href="test-cases/general-features/src/html-page/page.vars.js" xlink:title="page.vars.js"><path d="m141.58-1681.88h-53.66c-2.96 0-5.92 2.96-5.92 5.92v5.92c0 2.96 2.96 5.92 5.92 5.92h53.66c2.96 0 5.92-2.96 5.92-5.92v-5.92c0-2.96-2.96-5.92-5.92-5.92" fill="#cfc" stroke="#000"/><text font-family="Helvetica,sans-Serif" font-size="9" x="90" y="-1669.33">page.vars.js</text></a><a xlink:href="test-cases/general-features/src/js-page/client.js" xlink:title="client.js"><path d="m135.83-1501.88h-42.16c-2.96 0-5.92 2.96-5.92 5.92v5.92c0 2.96 2.96 5.92 5.92 5.92h42.16c2.96 0 5.92-2.96 5.92-5.92v-5.92c0-2.96-2.96-5.92-5.92-5.92" fill="#cfc" stroke="#000"/><text font-family="Helvetica,sans-Serif" font-size="9" x="99.38" y="-1489.33">client.js</text></a><a xlink:href="test-cases/general-features/src/js-page/js-no-async-export/page.js" xlink:title="page.js"><path d="m135.83-1595.88h-42.16c-2.96 0-5.92 2.96-5.92 5.92v5.92c0 2.96 2.96 5.92 5.92 5.92h42.16c2.96 0 5.92-2.96 5.92-5.92v-5.92c0-2.96-2.96-5.92-5.92-5.92" fill="#cfc" stroke="#000"/><text font-family="Helvetica,sans-Serif" font-size="9" x="99.75" y="-1583.33">page.js</text></a><a xlink:href="test-cases/general-features/src/js-page/js-no-style-client/page.js" xlink:title="page.js"><path d="m135.83-1535.88h-42.16c-2.96 0-5.92 2.96-5.92 5.92v5.92c0 2.96 2.96 5.92 5.92 5.92h42.16c2.96 0 5.92-2.96 5.92-5.92v-5.92c0-2.96-2.96-5.92-5.92-5.92" fill="#cfc" stroke="#000"/><text font-family="Helvetica,sans-Serif" font-size="9" x="99.75" y="-1523.33">page.js</text></a><a xlink:href="test-cases/general-features/src/js-page/page.js" xlink:title="page.js"><path d="m135.83-1471.88h-42.16c-2.96 0-5.92 2.96-5.92 5.92v5.92c0 2.96 2.96 5.92 5.92 5.92h42.16c2.96 0 5.92-2.96 5.92-5.92v-5.92c0-2.96-2.96-5.92-5.92-5.92" fill="#cfc" stroke="#000"/><text font-family="Helvetica,sans-Serif" font-size="9" x="99.75" y="-1459.33">page.js</text></a><a xlink:href="test-cases/general-features/src/js-page/page.vars.js" xlink:title="page.vars.js"><path d="m141.58-1441.88h-53.66c-2.96 0-5.92 2.96-5.92 5.92v5.92c0 2.96 2.96 5.92 5.92 5.92h53.66c2.96 0 5.92-2.96 5.92-5.92v-5.92c0-2.96-2.96-5.92-5.92-5.92" fill="#cfc" stroke="#000"/><text font-family="Helvetica,sans-Serif" font-size="9" x="90" y="-1429.33">page.vars.js</text></a><a xlink:href="test-cases/general-features/src/layouts/blog.layout.client.js" xlink:title="blog.layout.client.js"><path d="m155.83-1381.88h-82.16c-2.96 0-5.92 2.96-5.92 5.92v5.92c0 2.96 2.96 5.92 5.92 5.92h82.16c2.96 0 5.92-2.96 5.92-5.92v-5.92c0-2.96-2.96-5.92-5.92-5.92" fill="#cfc" stroke="#000"/><text font-family="Helvetica,sans-Serif" font-size="9" x="75.75" y="-1369.33">blog.layout.client.js</text></a><a xlink:href="test-cases/general-features/src/layouts/blog.layout.js" xlink:title="blog.layout.js"><path d="m143.83-1351.88h-58.16c-2.96 0-5.92 2.96-5.92 5.92v5.92c0 2.96 2.96 5.92 5.92 5.92h58.16c2.96 0 5.92-2.96 5.92-5.92v-5.92c0-2.96-2.96-5.92-5.92-5.92" fill="#ffc" stroke="#000"/><text font-family="Helvetica,sans-Serif" font-size="9" x="87.75" y="-1339.33">blog.layout.js</text></a><a xlink:href="test-cases/general-features/src/layouts/root.layout.js" xlink:title="root.layout.js"><path d="m276.46-1351.88h-55.92c-2.96 0-5.92 2.96-5.92 5.92v5.92c0 2.96 2.96 5.92 5.92 5.92h55.92c2.96 0 5.92-2.96 5.92-5.92v-5.92c0-2.96-2.96-5.92-5.92-5.92" fill="#ffc" stroke="#000"/><text font-family="Helvetica,sans-Serif" font-size="9" x="222.62" y="-1339.33">root.layout.js</text></a><path d="m150.02-1343h55.73" fill="none" stroke="#000" stroke-opacity=".2" stroke-width="2"/><path d="m205.28-1345.1 6 2.1-6 2.1z" fill-opacity=".2" stroke="#000" stroke-opacity=".2" stroke-width="2"/><a xlink:href="test-cases/general-features/src/md-page/client.js" xlink:title="client.js"><path d="m135.83-1291.88h-42.16c-2.96 0-5.92 2.96-5.92 5.92v5.92c0 2.96 2.96 5.92 5.92 5.92h42.16c2.96 0 5.92-2.96 5.92-5.92v-5.92c0-2.96-2.96-5.92-5.92-5.92" fill="#cfc" stroke="#000"/><text font-family="Helvetica,sans-Serif" font-size="9" x="99.38" y="-1279.33">client.js</text></a><a xlink:href="test-cases/general-features/src/md-page/page.vars.js" xlink:title="page.vars.js"><path d="m141.58-1261.88h-53.66c-2.96 0-5.92 2.96-5.92 5.92v5.92c0 2.96 2.96 5.92 5.92 5.92h53.66c2.96 0 5.92-2.96 5.92-5.92v-5.92c0-2.96-2.96-5.92-5.92-5.92" fill="#cfc" stroke="#000"/><text font-family="Helvetica,sans-Serif" font-size="9" x="90" y="-1249.33">page.vars.js</text></a><a xlink:href="test-cases/general-features/src/page.vars.js" xlink:title="page.vars.js"><path d="m141.58-1137.88h-53.66c-2.96 0-5.92 2.96-5.92 5.92v5.92c0 2.96 2.96 5.92 5.92 5.92h53.66c2.96 0 5.92-2.96 5.92-5.92v-5.92c0-2.96-2.96-5.92-5.92-5.92" fill="#cfc" stroke="#000"/><text font-family="Helvetica,sans-Serif" font-size="9" x="90" y="-1125.33">page.vars.js</text></a><a xlink:href="test-cases/nested-dest/global.vars.js" xlink:title="global.vars.js"><path d="m143.83-529.88h-58.16c-2.96 0-5.92 2.96-5.92 5.92v5.92c0 2.96 2.96 5.92 5.92 5.92h58.16c2.96 0 5.92-2.96 5.92-5.92v-5.92c0-2.96-2.96-5.92-5.92-5.92" fill="#cfc" stroke="#000"/><text font-family="Helvetica,sans-Serif" font-size="9" x="87.75" y="-517.33">global.vars.js</text></a><a xlink:href="test-cases/nested-dest/index.test.js" xlink:title="index.test.js"><path d="m140.83-499.88h-52.16c-2.96 0-5.92 2.96-5.92 5.92v5.92c0 2.96 2.96 5.92 5.92 5.92h52.16c2.96 0 5.92-2.96 5.92-5.92v-5.92c0-2.96-2.96-5.92-5.92-5.92" fill="#ffc" stroke="#000"/><text font-family="Helvetica,sans-Serif" font-size="9" x="90.75" y="-487.32">index.test.js</text></a><path d="m147.22-487.03c19.87.58 44.32-2.63 58.28-18.97 8.17-9.56 7.7-892.43 8-905 8.22-343.8 28.59-763.49 33.11-854.19" fill="none" stroke="#000" stroke-opacity=".2" stroke-width="2"/><path d="m244.5-2265.07 2.39-5.89 1.8 6.1z" fill-opacity=".2" stroke="#000" stroke-opacity=".2" stroke-width="2"/><path d="m147.19-494.86c17.35-2.47 39.2-6.17 58.31-11.14 68.92-17.94 79.65-54 150.88-54h179.12c82.45 0 119.06-13.19 167.38-80 39.13-54.12 43.97-270.44 44.55-332.36" fill="none" stroke="#000" stroke-dasharray="5 2" stroke-opacity=".2"/><path d="m745.33-972.24 2.14-5.99 2.06 6.02z" fill-opacity=".2" stroke="#000" stroke-opacity=".2"/><a xlink:href="test-cases/nested-dest/md-page/client.js" xlink:title="client.js"><path d="m135.83-687.88h-42.16c-2.96 0-5.92 2.96-5.92 5.92v5.92c0 2.96 2.96 5.92 5.92 5.92h42.16c2.96 0 5.92-2.96 5.92-5.92v-5.92c0-2.96-2.96-5.92-5.92-5.92" fill="#cfc" stroke="#000"/><text font-family="Helvetica,sans-Serif" font-size="9" x="99.38" y="-675.33">client.js</text></a><a xlink:href="test-cases/nested-dest/md-page/page.vars.js" xlink:title="page.vars.js"><path d="m141.58-657.88h-53.66c-2.96 0-5.92 2.96-5.92 5.92v5.92c0 2.96 2.96 5.92 5.92 5.92h53.66c2.96 0 5.92-2.96 5.92-5.92v-5.92c0-2.96-2.96-5.92-5.92-5.92" fill="#cfc" stroke="#000"/><text font-family="Helvetica,sans-Serif" font-size="9" x="90" y="-645.33">page.vars.js</text></a><a xlink:href="test-cases/nested-dest/public/md-page/client-BI3TWBFA.js" xlink:title="client&#45;BI3TWBFA.js"><path d="m155.83-571.88h-82.16c-2.96 0-5.92 2.96-5.92 5.92v5.92c0 2.96 2.96 5.92 5.92 5.92h82.16c2.96 0 5.92-2.96 5.92-5.92v-5.92c0-2.96-2.96-5.92-5.92-5.92" fill="#cfc" stroke="#000"/><text font-family="Helvetica,sans-Serif" font-size="9" x="75.75" y="-559.33">client-BI3TWBFA.js</text></a><a xlink:href="test-cases/page-build-errors/index.test.js" xlink:title="index.test.js"><path d="m140.83-229.88h-52.16c-2.96 0-5.92 2.96-5.92 5.92v5.92c0 2.96 2.96 5.92 5.92 5.92h52.16c2.96 0 5.92-2.96 5.92-5.92v-5.92c0-2.96-2.96-5.92-5.92-5.92" fill="#ffc" stroke="#000"/><text font-family="Helvetica,sans-Serif" font-size="9" x="90.75" y="-217.32">index.test.js</text></a><path d="m147.19-216.64c19.85.82 44.31-2.12 58.31-18.36 5.33-6.19 7.81-1167.84 8-1176 7.87-343.81 28.51-763.49 33.09-854.19" fill="none" stroke="#000" stroke-opacity=".2" stroke-width="2"/><path d="m244.48-2265.07 2.4-5.89 1.8 6.1z" fill-opacity=".2" stroke="#000" stroke-opacity=".2" stroke-width="2"/><path d="m147.03-222.31c17.7-1.61 39.93-5.11 58.47-12.69 76.33-31.2 68.41-108 150.88-108h179.12c121.8 0 122.16-103.9 167.38-217 30.85-77.17 41.75-343.06 44.1-412.37" fill="none" stroke="#000" stroke-dasharray="5 2" stroke-opacity=".2"/><path d="m744.88-972.38 2.3-5.93 1.9 6.07z" fill-opacity=".2" stroke="#000" stroke-opacity=".2"/><a xlink:href="test-cases/page-build-errors/public/client-MPACHZ4G.js" xlink:title="client&#45;MPACHZ4G.js"><path d="m158.83-263.88h-88.16c-2.96 0-5.92 2.96-5.92 5.92v5.92c0 2.96 2.96 5.92 5.92 5.92h88.16c2.96 0 5.92-2.96 5.92-5.92v-5.92c0-2.96-2.96-5.92-5.92-5.92" fill="#cfc" stroke="#000"/><text font-family="Helvetica,sans-Serif" font-size="9" x="72.75" y="-251.32">client-MPACHZ4G.js</text></a><a xlink:href="test-cases/page-build-errors/src/another-broken-page/page.js" xlink:title="page.js"><path d="m135.83-387.88h-42.16c-2.96 0-5.92 2.96-5.92 5.92v5.92c0 2.96 2.96 5.92 5.92 5.92h42.16c2.96 0 5.92-2.96 5.92-5.92v-5.92c0-2.96-2.96-5.92-5.92-5.92" fill="#cfc" stroke="#000"/><text font-family="Helvetica,sans-Serif" font-size="9" x="99.75" y="-375.32">page.js</text></a><a xlink:href="test-cases/page-build-errors/src/client.js" xlink:title="client.js"><path d="m135.83-353.88h-42.16c-2.96 0-5.92 2.96-5.92 5.92v5.92c0 2.96 2.96 5.92 5.92 5.92h42.16c2.96 0 5.92-2.96 5.92-5.92v-5.92c0-2.96-2.96-5.92-5.92-5.92" fill="#cfc" stroke="#000"/><text font-family="Helvetica,sans-Serif" font-size="9" x="99.38" y="-341.32">client.js</text></a><a xlink:href="test-cases/page-build-errors/src/page.js" xlink:title="page.js"><path d="m135.83-323.88h-42.16c-2.96 0-5.92 2.96-5.92 5.92v5.92c0 2.96 2.96 5.92 5.92 5.92h42.16c2.96 0 5.92-2.96 5.92-5.92v-5.92c0-2.96-2.96-5.92-5.92-5.92" fill="#cfc" stroke="#000"/><text font-family="Helvetica,sans-Serif" font-size="9" x="99.75" y="-311.32">page.js</text></a></g></svg>